<svg width="292" height="96" viewBox="0 0 292 96" fill="none" xmlns="http://www.w3.org/2000/svg">
<path d="M87.143 4.65828C85.8528 3.5137 83.8158 4.42967 83.8158 6.15443V89.5389C83.8158 91.2442 85.8131 92.1672 87.1119 91.0621L135.089 50.2384C136.015 49.4506 136.03 48.0258 135.12 47.2191L87.143 4.65828Z" fill="#26A047"/>
<path d="M96.2171 60C96.2171 61.0609 95.7947 62.0783 95.0429 62.8284C94.291 63.5786 93.2713 64 92.2081 64H64.1447V92C64.1447 93.0609 63.7223 94.0783 62.9705 94.8284C62.2187 95.5786 61.1989 96 60.1357 96H36.0814C35.0181 96 33.9984 95.5786 33.2466 94.8284C32.4947 94.0783 32.0724 93.0609 32.0724 92V64H4.00904C2.94578 64 1.92606 63.5786 1.17422 62.8284C0.42238 62.0783 0 61.0609 0 60V36C0 34.9391 0.42238 33.9217 1.17422 33.1716C1.92606 32.4214 2.94578 32 4.00904 32H32.0724V4C32.0724 2.93913 32.4947 1.92172 33.2466 1.17157C33.9984 0.421427 35.0181 0 36.0814 0H60.1357C61.1989 0 62.2187 0.421427 62.9705 1.17157C63.7223 1.92172 64.1447 2.93913 64.1447 4V32H92.2081C93.2713 32 94.291 32.4214 95.0429 33.1716C95.7947 33.9217 96.2171 34.9391 96.2171 36V60Z" fill="#4DA9FF"/>
<path d="M166.59 33V19.02L161.13 29.43H158.82L153.36 19.02V33H149.22V11.7H153.66L159.96 23.82L166.32 11.7H170.73V33H166.59ZM180.967 11.7H185.167L192.997 33H188.737L186.757 27.69H179.317L177.367 33H173.107L180.967 11.7ZM186.007 24.78L183.067 15.99L180.007 24.78H186.007ZM195.333 33V11.7H204.363C205.343 11.7 206.243 11.9 207.063 12.3C207.903 12.7 208.623 13.24 209.223 13.92C209.823 14.6 210.293 15.36 210.633 16.2C210.973 17.04 211.143 17.9 211.143 18.78C211.143 19.98 210.863 21.12 210.303 22.2C209.743 23.28 208.963 24.16 207.963 24.84C206.983 25.52 205.833 25.86 204.513 25.86H199.473V33H195.333ZM199.473 22.23H204.273C205.033 22.23 205.663 21.92 206.163 21.3C206.683 20.66 206.943 19.82 206.943 18.78C206.943 17.68 206.653 16.83 206.073 16.23C205.493 15.63 204.833 15.33 204.093 15.33H199.473V22.23ZM166.59 59V45.02L161.13 55.43H158.82L153.36 45.02V59H149.22V37.7H153.66L159.96 49.82L166.32 37.7H170.73V59H166.59ZM177.577 37.7L182.827 47.72L188.167 37.7H192.637L184.897 51.56V59H180.787V51.5L173.077 37.7H177.577ZM167.13 63.7V85H163.02V75.91H153.36V85H149.22V63.7H153.36V72.31H163.02V63.7H167.13ZM180.664 85.15C179.104 85.15 177.684 84.85 176.404 84.25C175.144 83.65 174.054 82.84 173.134 81.82C172.234 80.78 171.534 79.62 171.034 78.34C170.534 77.04 170.284 75.71 170.284 74.35C170.284 72.93 170.544 71.58 171.064 70.3C171.584 69 172.314 67.85 173.254 66.85C174.194 65.83 175.294 65.03 176.554 64.45C177.834 63.85 179.234 63.55 180.754 63.55C182.294 63.55 183.694 63.86 184.954 64.48C186.234 65.1 187.324 65.93 188.224 66.97C189.144 68.01 189.844 69.18 190.324 70.48C190.824 71.76 191.074 73.07 191.074 74.41C191.074 75.81 190.814 77.16 190.294 78.46C189.774 79.74 189.044 80.89 188.104 81.91C187.184 82.91 186.084 83.7 184.804 84.28C183.544 84.86 182.164 85.15 180.664 85.15ZM174.484 74.35C174.484 75.59 174.724 76.75 175.204 77.83C175.704 78.91 176.414 79.79 177.334 80.47C178.274 81.15 179.394 81.49 180.694 81.49C182.034 81.49 183.164 81.14 184.084 80.44C185.004 79.74 185.704 78.84 186.184 77.74C186.664 76.64 186.904 75.51 186.904 74.35C186.904 73.11 186.654 71.95 186.154 70.87C185.654 69.79 184.934 68.92 183.994 68.26C183.074 67.58 181.974 67.24 180.694 67.24C179.354 67.24 178.224 67.59 177.304 68.29C176.384 68.99 175.684 69.89 175.204 70.99C174.724 72.07 174.484 73.19 174.484 74.35ZM206.851 69.28C206.671 69.08 206.291 68.82 205.711 68.5C205.131 68.16 204.431 67.86 203.611 67.6C202.811 67.32 201.981 67.18 201.121 67.18C198.861 67.18 197.731 67.98 197.731 69.58C197.731 70.16 197.911 70.62 198.271 70.96C198.631 71.3 199.171 71.59 199.891 71.83C200.611 72.07 201.511 72.33 202.591 72.61C203.991 72.97 205.201 73.39 206.221 73.87C207.261 74.35 208.051 74.99 208.591 75.79C209.151 76.57 209.431 77.61 209.431 78.91C209.431 80.43 209.061 81.66 208.321 82.6C207.601 83.52 206.641 84.19 205.441 84.61C204.241 85.03 202.941 85.24 201.541 85.24C199.941 85.24 198.351 85 196.771 84.52C195.211 84.02 193.821 83.34 192.601 82.48L194.431 78.91C194.611 79.09 194.931 79.33 195.391 79.63C195.851 79.91 196.411 80.2 197.071 80.5C197.731 80.78 198.451 81.02 199.231 81.22C200.011 81.42 200.801 81.52 201.601 81.52C203.881 81.52 205.021 80.79 205.021 79.33C205.021 78.71 204.791 78.21 204.331 77.83C203.871 77.45 203.221 77.13 202.381 76.87C201.561 76.61 200.601 76.32 199.501 76C198.141 75.62 197.011 75.2 196.111 74.74C195.231 74.26 194.571 73.67 194.131 72.97C193.691 72.25 193.471 71.34 193.471 70.24C193.471 68.78 193.811 67.56 194.491 66.58C195.191 65.58 196.131 64.83 197.311 64.33C198.491 63.81 199.801 63.55 201.241 63.55C202.721 63.55 204.101 63.79 205.381 64.27C206.661 64.75 207.761 65.3 208.681 65.92L206.851 69.28ZM212.56 85V63.7H221.59C222.57 63.7 223.47 63.9 224.29 64.3C225.13 64.7 225.85 65.24 226.45 65.92C227.05 66.6 227.52 67.36 227.86 68.2C228.2 69.04 228.37 69.9 228.37 70.78C228.37 71.98 228.09 73.12 227.53 74.2C226.97 75.28 226.19 76.16 225.19 76.84C224.21 77.52 223.06 77.86 221.74 77.86H216.7V85H212.56ZM216.7 74.23H221.5C222.26 74.23 222.89 73.92 223.39 73.3C223.91 72.66 224.17 71.82 224.17 70.78C224.17 69.68 223.88 68.83 223.3 68.23C222.72 67.63 222.06 67.33 221.32 67.33H216.7V74.23ZM231.251 85V63.7H235.391V85H231.251ZM255.765 67.33H248.955V85H244.845V67.33H238.035V63.7H255.765V67.33ZM262.207 63.7H266.407L274.237 85H269.977L267.997 79.69H260.557L258.607 85H254.347L262.207 63.7ZM267.247 76.78L264.307 67.99L261.247 76.78H267.247ZM276.574 85V63.7H280.714V81.37H291.574V85H276.574Z" fill="black"/>
</svg>
