<svg width="1840" height="1380" viewBox="0 0 1840 1380" fill="none" xmlns="http://www.w3.org/2000/svg">
<path d="M919.799 1379.9C614.765 1379.9 309.632 1379.9 4.59897 1380C0.899779 1380 0 1379.2 0 1375.4C0.0999781 918.5 0.0999781 461.5 0 4.60001C0 0.900006 0.799801 0 4.59897 0C614.766 0.1 1224.83 0.1 1835 0C1838.7 0 1839.6 0.800006 1839.6 4.60001C1839.5 461.5 1839.5 918.5 1839.6 1375.4C1839.6 1379.1 1838.8 1380 1835 1380C1529.97 1379.9 1224.83 1379.9 919.799 1379.9Z" fill="#FCFCFC"/>
<path d="M441.904 754.8C446.203 743.6 447.903 731.7 450.602 720.1C457.101 692.8 463.299 665.4 469.598 638.1C474.797 615.8 492.993 601.3 516.088 601C531.884 600.8 547.681 600.8 563.477 600.6C563.977 600.9 564.477 601.3 564.777 601.8C567.077 608.5 566.977 615.5 567.776 622.5C572.275 661.3 576.874 700.2 581.473 739C581.473 739.3 581.573 739.7 581.573 740C582.573 753.4 583.173 751.2 594.271 751.4C598.77 751.5 603.269 751.5 607.768 751.4C613.366 751.3 614.166 750.7 613.766 744.9C613.166 735.9 612.267 727 611.467 718.1C609.967 699.7 608.467 681.3 606.768 662.9C605.168 645.3 604.068 627.8 602.169 610.2C601.969 607.9 601.669 605.6 602.269 603.3C602.469 602.7 602.669 602.2 603.069 601.8C606.068 599.9 609.467 600.8 612.667 600.3C613.966 600.5 615.366 600.3 616.666 600.3C622.964 600.6 629.263 600.2 635.562 600.5C638.761 600.6 639.961 599.4 639.961 596.2C639.961 587.1 639.461 578 640.261 568.9C640.76 567.9 640.86 566.3 642.76 567.2C643.06 578.6 642.86 589.9 642.96 598.8C642.56 589.3 643.66 577.5 642.46 565.6C642.26 564 642.36 562.6 643.96 561.7C646.559 563.2 645.759 565.8 645.759 568C645.859 577.8 645.959 587.7 645.759 597.5C645.659 601.2 646.959 603.8 649.958 605.9C655.757 610 658.956 615.7 661.156 622.5C667.555 642.5 675.553 661.9 682.551 681.7C682.851 682.7 683.251 683.7 683.551 684.6C686.85 693.4 689.95 702.3 693.249 711.1C693.549 712 693.849 712.9 694.149 713.8C695.448 717.5 696.848 721.2 698.348 725.1C703.247 722 705.646 717.1 709.545 713.5C710.345 712.7 711.145 711.9 711.945 711.1C719.543 702 727.841 693.6 735.54 684.5C736.34 683.7 737.139 682.9 737.939 682C742.038 676.8 746.937 672.4 751.036 667.2C752.136 665.8 753.336 664.4 755.335 664.2C758.835 664.9 761.034 667.5 763.634 669.6C775.031 678.8 786.629 687.7 797.926 697.1C805.624 703.5 805.624 704.3 798.626 711.8C793.927 716.8 789.328 721.8 785.029 727C780.43 731.7 776.131 736.7 771.832 741.6C753.336 762.1 735.34 783.1 716.344 803.1C710.445 809.3 703.047 812.4 694.349 812C692.749 811.9 690.949 812.1 689.85 810.4C689.35 809.5 689.25 808.5 689.15 807.5C687.95 794.9 681.552 786.7 669.154 783.8C659.956 781.7 650.858 778.9 641.56 777.1C641.06 777 640.561 776.9 640.061 776.8C628.263 774.6 627.563 775.1 624.764 786.4C622.164 796.7 619.965 807.2 617.466 817.5C616.866 820.1 616.466 822.8 613.366 823.9C611.867 824.3 610.367 824.2 608.867 824.2C562.478 824.2 516.088 824.2 469.698 824.2C468.698 824.2 467.698 824.2 466.699 824.1C456.601 820.6 449.202 813.9 443.504 805.1C442.604 803.7 441.804 802.3 440.904 800.9C440.004 798.7 439.304 796.4 438.405 794.3C435.305 784.8 435.705 775.4 438.505 766C440.104 762.4 439.304 758.1 441.904 754.8Z" fill="#6DB5DE"/>
<path d="M894.604 939.5C893.305 963 891.905 986.5 890.605 1009.9C890.905 1011 891.505 1012.1 891.605 1013.3C891.405 1020.6 890.605 1027.8 890.405 1035.1C889.806 1037.2 889.705 1039.5 888.606 1041.5C886.806 1071.5 885.006 1101.6 883.207 1131.6C882.707 1140.4 882.007 1149.2 881.407 1158C879.908 1159.6 877.808 1159.6 875.808 1159.6C857.612 1159.6 839.417 1161.3 821.22 1160.6C818.721 1160.5 816.222 1160.8 813.922 1159.7C811.823 1158 812.722 1155.7 813.022 1153.7C821.62 1090 829.919 1026.3 838.417 962.6C840.516 947.3 842.516 931.9 844.215 916.5C842.416 923 841.816 929.7 841.016 936.3C833.018 996.4 825.12 1056.5 817.121 1116.5C815.422 1129.7 813.422 1142.9 812.023 1156.1C811.923 1157.4 812.122 1158.8 810.723 1159.7C808.323 1160.8 805.824 1160.6 803.324 1160.6C779.43 1160.6 755.435 1160.6 731.54 1160.6C728.741 1160.6 725.842 1161.1 723.442 1158.9C724.842 1148.3 726.141 1137.6 727.541 1127C728.341 1125.5 727.141 1124.1 727.441 1122.7C727.341 1119.9 727.241 1117 727.741 1114.2C731.64 1090.5 733.84 1066.5 737.339 1042.7C737.739 1041.3 738.139 1040 738.039 1038.5C738.939 1027.6 740.438 1016.8 741.938 1006.1C741.938 1004.9 742.038 1003.8 742.238 1002.6C742.838 999.5 743.138 996.4 743.638 993.3C744.437 987.3 743.838 986.6 737.939 986.6C727.341 986.6 716.743 986.6 706.146 986.6C703.846 986.6 701.447 986.9 699.447 985.3C700.247 981.7 703.246 982.7 705.446 982.7C715.944 982.5 726.441 982.6 736.939 982.6C744.937 982.6 744.937 982.4 746.037 974.3C747.837 960.1 749.836 945.9 751.936 931.7C752.736 925.9 752.536 925.7 746.837 925.6C742.838 925.6 738.839 925.6 734.839 925.6C732.34 925.6 729.841 925.5 727.641 924C725.742 922.6 725.342 920.4 724.842 918.3C718.843 893.4 713.144 868.4 707.246 843.5C706.646 841 705.446 838.3 708.345 836.2C710.545 835.3 712.944 835.4 715.244 835.4C762.233 835.4 809.223 835.4 856.213 835.4C858.212 835.4 860.212 835.4 862.212 835.8C872.409 838.5 881.307 843.4 888.306 851.5C897.504 861.9 900.703 874 899.203 887.6C898.404 894.4 898.404 901.2 898.004 908C897.604 916 896.604 923.9 896.504 931.9C895.804 934.3 895.704 937 894.604 939.5Z" fill="#8F3600"/>
<path d="M727.041 922.9C734.94 924.5 742.938 923.5 750.836 923.8C753.235 923.9 754.535 924.2 754.135 927.1C751.536 944.6 749.036 962.1 746.737 979.7C746.337 983.1 745.137 984 741.838 983.9C728.541 983.7 715.244 983.8 702.047 983.8C701.247 983.8 700.447 984.2 699.747 984.3C702.647 989.8 703.247 996 704.946 1001.9C705.146 1003.2 705.746 1004.4 705.946 1005.8C708.545 1016.7 710.845 1027.6 713.444 1038.5C713.644 1039.3 713.844 1040.1 713.944 1040.9C718.943 1062.4 723.442 1084 728.141 1105.6C728.841 1108.7 729.141 1111.8 728.641 1115C728.541 1117.6 728.441 1120.1 728.341 1122.7C727.841 1123.3 727.241 1123.3 726.741 1122.8C721.043 1096.9 715.244 1071 709.545 1045.2C709.245 1043.7 708.745 1042.3 708.345 1040.9C707.546 1039.8 706.846 1038.7 706.546 1037.4C703.946 1027.1 701.747 1016.7 699.247 1006.4C699.047 1005.1 698.547 1003.8 698.348 1002.5C697.548 998.3 696.348 994.2 695.448 990C694.648 986.5 692.649 985.1 689.15 985.2C684.051 985.3 678.952 985 673.853 985.7C672.953 985.7 672.253 985.3 671.653 984.7C669.854 984.6 668.054 984.3 666.255 984.3C642.46 984.3 618.665 984.5 594.87 984.1C589.771 984 587.772 985.4 586.672 990.5C578.574 1027.2 570.076 1063.7 561.978 1100.4C552.78 1141.9 543.982 1183.5 534.984 1225.1C534.584 1226.8 534.784 1229.5 532.184 1228.9C529.585 1228.3 530.884 1225.9 531.284 1224.3C548.181 1146.5 564.377 1068.6 582.773 991.1C584.373 984.5 584.373 984.5 577.574 984.3C530.585 982.9 493.993 951.2 485.694 904.7C481.795 883.1 477.796 861.5 473.797 839.9C473.597 838.6 473.597 837.1 471.797 836.9C468.998 838 465.999 838.3 462.999 838.2C452.902 838.1 442.704 838.1 432.606 838.2C426.008 838.3 419.809 839.7 414.71 844.5C410.611 848.3 408.611 853.1 407.812 858.5C407.012 861.3 407.312 864.1 407.312 867C407.312 985.3 407.312 1103.6 407.312 1221.8C407.312 1234.5 407.012 1231.7 396.614 1232.2C392.915 1232.4 391.415 1230.8 391.315 1227.3C391.315 1225.8 391.215 1224.3 391.215 1222.8C391.215 1102.2 391.215 981.6 391.215 861C391.215 843.3 401.513 828.7 417.01 824C418.809 823.5 420.609 823.3 422.308 822.7C423.908 822.3 425.608 822.1 427.207 822.3C459.3 822.3 491.293 823.8 523.386 823.3C538.683 823.1 553.979 823.2 569.276 823.3C608.367 823.5 647.359 821.7 686.45 822.3C753.735 822.3 821.021 822.3 888.206 822.3C933.096 822 977.986 822.2 1022.88 822.1C1040.47 822.1 1058.17 822.5 1075.76 822.3C1077.46 822.3 1079.06 822.2 1080.76 822.7C1081.66 823.1 1082.86 823.6 1082.36 824.8C1080.06 829.5 1079.16 835.1 1073.96 837.9C1071.67 838.5 1069.37 838.4 1067.07 838.4C1039.57 838.4 1011.98 838.4 984.485 838.4C981.685 838.4 978.786 838.9 976.286 837C950.992 837 925.698 837.1 900.403 837.1C899.303 837.9 898.104 838.2 896.804 838.3C885.706 838.3 874.509 839.4 863.411 837.1C820.521 837.1 777.63 837 734.839 837C725.741 837 716.544 837.2 707.446 837.2C704.846 838.9 701.947 838.4 699.147 838.4C640.56 838.4 582.073 838.4 523.486 838.4C514.288 838.4 514.188 838.5 516.388 847.2C518.887 856.9 520.687 866.7 523.486 876.3C528.785 894.5 539.882 908 556.779 916.7C560.078 918.4 563.577 919.2 567.376 919.3C588.772 920.1 610.267 920.7 631.662 920.3C661.456 919.7 691.149 922 720.943 921.3C723.042 921.4 725.242 921.5 727.041 922.9Z" fill="black"/>
<path d="M422.609 824.2C407.012 827.9 396.914 837.3 393.215 853.1C392.715 855.3 392.615 857.7 392.615 860C392.615 982.3 392.615 1104.5 392.515 1226.8C392.515 1230.6 393.415 1232.4 397.414 1231.8C398.914 1231.6 400.413 1231.6 401.913 1231.8C405.112 1232.3 406.012 1230.7 405.812 1227.8C405.712 1226.5 405.812 1225.1 405.812 1223.8C405.812 1104 405.812 984.3 405.812 864.5C405.812 862.2 405.112 859.8 406.612 857.7C408.912 860 408.312 863 408.312 865.8C408.412 893.5 408.312 921.1 408.312 948.8C408.312 1039.8 408.312 1130.7 408.312 1221.7C408.312 1225.5 407.612 1229.6 412.311 1231.5C413.311 1232.8 412.411 1233.5 411.411 1233.5C409.811 1233.5 408.112 1233.8 406.612 1233.1C380.618 1232 354.723 1232.7 328.729 1232.7C324.43 1232.7 323.13 1231.8 323.13 1227.3C323.23 1104.3 323.23 981.4 323.23 858.4C323.23 836.4 335.527 824.2 357.623 824.2C375.619 824.2 393.615 824.1 411.511 824C412.211 823.5 413.011 823 413.91 822.9C417.01 822.7 420.109 821.7 422.609 824.2Z" fill="#202B6D"/>
<path d="M1445.08 799.1C1443.28 809.4 1441.48 819.6 1439.68 829.9C1438.99 834.1 1438.99 838.4 1438.29 842.6C1436.59 852.4 1435.19 862.2 1432.99 871.8C1431.89 878.1 1430.79 884.4 1429.39 890.7C1426.59 907.6 1423.89 924.5 1414.99 939.7C1405.89 955.3 1393.6 967.5 1377.8 976.3C1375.1 977.8 1372.4 979 1369.6 980.2C1358.3 985.6 1346.21 987.4 1333.91 988.3C1328.71 988.7 1328.51 988.9 1329.61 993.9C1330.41 997.5 1331.51 1001 1332.11 1004.6C1332.21 1006.2 1332.31 1007.8 1333.01 1009.3C1338.21 1029.9 1342.61 1050.8 1347.21 1071.6C1352.8 1097.1 1358.6 1122.6 1363.8 1148.2C1364.2 1149.8 1363.6 1151.4 1363.6 1153C1368.8 1177.5 1374.1 1202 1379.2 1226.5C1379.5 1228 1381.3 1230.2 1378.5 1230.9C1375.7 1231.6 1376 1229 1375.7 1227.3C1370.3 1202.5 1365 1177.7 1359.6 1152.8C1358.9 1151.4 1357.5 1150.3 1357.4 1148.6C1352.6 1129 1348.7 1109.3 1344.41 1089.6C1338.41 1062.1 1332.11 1034.7 1325.91 1007.2C1325.61 1005.3 1325.41 1003.3 1324.61 1001.4C1324.31 1000.5 1324.01 999.5 1323.71 998.5C1320.81 987.8 1322.41 988.5 1310.41 988.5C1281.72 988.5 1252.93 988.5 1224.23 988.5C1216.53 988.5 1216.43 988.6 1214.53 996.1C1213.83 998.8 1213.24 1001.6 1212.44 1004.3C1212.24 1005.4 1211.74 1006.5 1211.54 1007.6C1200.74 1054.5 1190.64 1101.5 1180.34 1148.4C1180.04 1149.8 1179.24 1150.9 1178.24 1151.9C1174.84 1167.9 1171.34 1184 1167.95 1200C1167.15 1201.8 1168.74 1203.5 1168.05 1205.3C1165.75 1213.7 1165.25 1222.5 1161.75 1230.6C1161.35 1231.1 1160.95 1231.4 1160.35 1231.5C1156.95 1231.7 1156.75 1229.2 1156.95 1226.9C1157.15 1223.8 1157.95 1220.8 1158.75 1217.8C1160.15 1212.6 1160.75 1207.3 1162.15 1202.1C1162.85 1199.8 1163.55 1197.6 1163.75 1195.2C1166.45 1180.7 1170.04 1166.5 1172.84 1152C1172.94 1150.6 1173.54 1149.4 1173.74 1148C1183.94 1101 1194.24 1053.9 1204.94 1007C1205.14 1005.9 1205.64 1004.9 1205.74 1003.8C1206.44 1000.4 1207.44 997 1208.14 993.6C1209.14 989 1208.74 988.4 1203.84 988.4C1191.54 988.3 1179.34 988.4 1167.05 988.4C1165.85 988.4 1164.75 988.4 1163.55 988.3C1162.65 988.3 1161.85 988.3 1160.95 988.3C1154.75 987.8 1148.35 988 1143.05 983.7C1141.65 981.8 1141.55 979.7 1141.55 977.5C1141.45 967.5 1141.45 957.5 1141.55 947.6C1141.65 941.6 1142.85 940.4 1149.05 940.4C1163.05 940.3 1176.94 940.3 1190.94 940.4C1213.54 940.5 1236.13 941.2 1258.72 939.8C1271.62 939 1284.72 939.8 1297.62 939.6C1330.71 939 1354.7 923.7 1369.5 894.3C1375.8 881.8 1377.5 868.4 1375.9 854.4C1374.4 841.7 1373.9 828.9 1372.6 816.1C1372.2 812.3 1373.8 809.4 1376.8 807.1C1383.7 801.6 1390.6 796.1 1397.49 790.6C1405.49 784.1 1411.49 776.4 1412.99 765.8C1413.59 761.8 1413.29 757.9 1412.49 753.9C1407.09 727.3 1401.49 700.8 1396.19 674.1C1395.69 671.8 1394.99 669.6 1395.59 667.2C1400.39 664.5 1405.29 666.7 1409.99 667.2C1420.09 668.3 1428.99 672.6 1436.99 678.9C1438.29 680.2 1439.58 681.5 1440.98 682.8C1457.48 698.4 1462.18 717.4 1457.28 739.3C1457.28 741.5 1456.38 743.5 1456.28 745.7C1453.58 760.7 1450.88 775.8 1447.88 790.8C1447.08 793.5 1446.88 796.6 1445.08 799.1Z" fill="black"/>
<path d="M412.71 1231.9C408.011 1232.7 406.612 1230.8 406.612 1226C406.711 1105.6 406.711 985.2 406.711 864.8C406.711 862.5 406.711 860.1 406.612 857.8C407.211 846.2 417.309 837.3 430.306 837.1C444.003 836.9 457.8 837.1 471.496 837.1C469.997 838.2 468.597 839.4 467.097 840.4C462.099 843.9 460.099 848.4 460.099 854.8C460.299 922 460.199 989.2 460.199 1056.5C460.199 1058.7 460.399 1060.8 460.499 1063C461.099 1063.7 461.299 1064.5 461.199 1065.5C461.099 1066.1 460.999 1066.7 460.899 1067.3C460.799 1119.5 460.799 1171.7 460.899 1223.9C460.999 1224.5 461.099 1225.1 461.199 1225.7C461.299 1226.6 460.999 1227.5 460.499 1228.2C459.799 1229.4 460.699 1231.1 459.499 1232.2C455.9 1233.2 452.001 1231.9 448.402 1232.9C448.102 1233 447.802 1233 447.402 1233C444.503 1233.9 441.603 1233.6 438.704 1233.5C430.806 1233.3 422.808 1233.7 414.91 1233.3C414.21 1233 413.31 1232.7 412.71 1231.9Z" fill="#202B6D"/>
<path d="M976.187 837.2C1009.18 837.2 1042.17 837.2 1075.06 837.1C1076.66 838.9 1075.76 840.9 1075.36 842.8C1067.07 878.1 1058.87 913.5 1050.67 948.8C1047.97 960.5 1045.17 972.1 1042.57 983.8C1042.17 985.6 1041.87 987.4 1040.87 989C1038.77 989.6 1038.37 991.1 1037.97 993.2C1032.07 1021 1025.78 1048.8 1019.78 1076.6C1019.08 1079.9 1017.48 1082.4 1014.18 1083.7C1003.68 1088 993.283 1092.5 982.886 1096.8C981.086 1097.6 979.186 1098.6 977.187 1097.5C977.087 1095.5 976.887 1093.5 976.887 1091.6C976.887 1009 976.887 926.3 976.887 843.7C976.687 841.4 976.987 839.2 976.187 837.2Z" fill="#202B6D"/>
<path d="M813.422 1158.5C836.117 1159.3 858.812 1158 881.507 1157.9C905.602 1171.9 929.697 1185.8 953.791 1199.9C964.889 1206.4 969.388 1217.1 970.688 1229.4C971.088 1233.1 968.288 1231.8 966.589 1231.8C945.493 1231.9 924.298 1232 903.203 1232C902.503 1232 901.903 1232 901.203 1232.1C890.405 1232.6 879.608 1232.4 868.81 1232.4C819.921 1232.4 770.931 1232.4 722.042 1232.4C720.243 1232.4 718.343 1232.8 716.643 1232C717.643 1220.1 718.543 1208.2 719.643 1196.4C720.842 1183.9 722.242 1171.4 723.542 1158.8C752.735 1158.7 781.929 1158.7 811.123 1158.6C811.823 1158.1 812.622 1158.1 813.422 1158.5Z" fill="black"/>
<path d="M977.087 1097.4C989.884 1092.2 1002.58 1086.9 1015.38 1081.7C1017.58 1080.8 1017.88 1078.8 1018.28 1076.8C1024.28 1049.4 1030.28 1022 1036.37 994.6C1036.87 992.6 1036.17 989.3 1039.77 989.1C1048.37 990.3 1055.97 994.6 1064.17 997.1C1066.07 997.7 1067.87 998.4 1069.67 999.3C1071.07 1000.1 1071.97 1001.2 1072.27 1002.8C1072.67 1021.7 1073.27 1040.6 1071.97 1059.4C1069.97 1062.6 1069.47 1066.2 1069.57 1069.9C1070.07 1086.8 1068.47 1103.7 1068.27 1120.6C1068.17 1130 1067.87 1139.5 1067.37 1148.9C1066.97 1157.6 1060.27 1161.7 1053.67 1165.8C1046.37 1165.3 1039.37 1163.1 1032.27 1161.5C1015.68 1157.7 998.982 1154 982.386 1150.2C980.286 1149.7 978.086 1149.6 976.587 1147.8C962.39 1144.5 948.293 1141 933.996 1137.9C929.997 1137 928.897 1135.9 930.497 1131.8C934.996 1120.5 941.794 1111.7 953.592 1107.3C961.69 1104.4 969.288 1100.8 977.087 1097.4Z" fill="#8F3600"/>
<path d="M1445.08 799.1C1445.98 796.5 1445.08 793.6 1446.58 791.1C1452.88 785.2 1458.08 778.3 1463.58 771.6C1472.98 760.2 1483.18 749.4 1489.87 735.9C1497.27 720.9 1501.07 705.2 1501.17 688.7C1501.57 649.9 1501.37 611.1 1501.27 572.2C1501.27 557.1 1492.67 545 1479.78 541.3C1473.58 539.5 1472.28 540.5 1472.18 546.8C1472.18 551.8 1472.18 556.8 1472.18 561.8C1472.18 564.9 1473.28 566.8 1476.28 567.9C1484.28 570.8 1487.27 576.6 1487.27 585C1487.08 615.2 1487.08 645.3 1487.27 675.5C1487.38 699.6 1479.48 720.5 1463.08 738.2C1460.68 740.8 1459.38 744.8 1455.08 745.1C1455.38 743.1 1455.68 741 1455.98 739C1462.98 729.5 1471.38 721.1 1475.58 709.7C1479.68 698.7 1482.28 687.4 1482.28 675.6C1482.28 646.1 1482.28 616.6 1482.28 587.2C1482.28 582.6 1481.78 578.2 1477.78 575C1476.58 574.1 1475.28 572.9 1473.78 573.5C1472.08 574.2 1472.38 576 1472.38 577.4C1472.28 589.2 1472.38 601.1 1472.38 612.9C1472.38 614.6 1472.38 616.2 1472.38 617.9C1472.28 626.3 1471.08 627.5 1462.88 627.6C1441.38 627.7 1419.99 627.6 1398.49 627.6C1392.5 627.6 1386.5 627.5 1380.5 627.7C1378.1 627.6 1376.3 626.2 1374.6 624.7C1373.4 623.6 1373.9 622.8 1375.1 622.1C1377.7 621.1 1380.4 621.4 1383 621.4C1408.29 621.4 1433.59 621.4 1458.88 621.4C1465.88 621.4 1466.18 621.1 1466.18 614.1C1466.18 545 1466.18 475.8 1466.18 406.7C1466.18 400.1 1465.88 399.7 1459.08 399.7C1363.4 399.7 1267.62 399.7 1171.94 399.7C1165.05 399.7 1164.75 400 1164.75 407.1C1164.75 438.6 1164.75 470.1 1164.75 501.6C1164.75 504.4 1165.15 507.3 1163.55 509.9C1162.65 510.7 1161.75 510.7 1160.85 510C1159.15 507.6 1159.55 504.9 1159.55 502.3C1159.55 469.6 1159.55 437 1159.55 404.3C1159.55 395.4 1160.45 394.5 1169.24 394.5C1208.74 394.5 1248.13 394.5 1287.62 394.5C1297.42 394.5 1297.42 394.5 1297.42 384.5C1297.42 317.3 1297.42 250.2 1297.42 183C1297.42 173.8 1297.42 173.8 1288.52 173.8C1077.16 173.8 865.911 173.8 654.558 173.8C653.358 173.8 652.258 173.9 651.058 173.8C647.659 173.6 646.16 175.2 646.259 178.6C646.359 180.4 646.259 182.3 646.259 184.1C646.259 293.4 646.259 402.7 646.259 512C646.259 515.1 646.659 518.4 645.36 521.4C642.86 523.4 642.76 520.9 642.46 519.6C641.761 516.6 641.161 513.6 641.161 510.5C641.86 505.9 639.661 501.6 639.961 497.1C640.561 493.8 639.961 490.4 639.961 487.1C639.961 385.3 639.961 283.5 639.961 181.7C639.961 168.9 640.361 168.5 653.058 168.5C865.511 168.5 1077.96 168.5 1290.42 168.5C1302.52 168.5 1302.62 168.6 1302.62 180.8C1302.62 249 1302.62 317.1 1302.62 385.3C1302.62 394.5 1302.62 394.6 1312.01 394.5C1325.71 394.4 1324.31 395.6 1324.31 382.1C1324.31 307.1 1324.31 232.1 1324.31 157.2C1324.31 147.9 1324.31 147.9 1314.91 147.9C1085.46 147.9 856.014 147.9 626.564 147.9C617.166 147.9 617.166 147.9 617.166 157.1C617.166 263.1 617.166 369.1 617.166 475C617.166 478.3 617.766 481.7 616.066 484.8C615.266 485.7 614.366 485.7 613.367 485.1C613.367 483.3 613.267 481.4 613.267 479.6C613.267 370 613.267 260.3 613.267 150.7C613.267 143.6 613.267 143.5 620.665 143.5C854.414 143.5 1088.16 143.5 1321.91 143.5C1328.71 143.5 1328.71 143.5 1328.71 150.2C1328.71 230.2 1328.71 310.1 1328.61 390.1C1328.61 394.5 1329.51 396 1334.31 396C1377.8 395.8 1421.19 396 1464.68 395.8C1469.38 395.8 1470.48 397.2 1470.48 401.7C1470.28 444.5 1470.48 487.3 1470.28 530.2C1470.28 534.2 1470.68 536.2 1475.48 536.9C1493.67 539.7 1504.67 553.2 1504.67 571.7C1504.67 609.5 1504.47 647.3 1504.77 685.2C1504.97 714.1 1496.07 739.4 1477.28 761.3C1466.58 773.7 1455.88 786.4 1445.08 799.1Z" fill="#5A83AF"/>
<path d="M642.26 510C642.86 514 643.56 518 644.16 522C646.559 524 645.959 526.5 645.359 529C645.259 529.1 645.259 529.3 645.159 529.4C640.86 533.2 640.86 533.2 645.859 536.1C647.459 544.8 648.359 553.5 644.26 561.9C643.36 562.7 643.46 563.7 643.36 564.7C642.76 565.3 643.16 566.4 642.26 566.8C641.96 567.4 641.76 568.1 641.46 568.7C637.861 577.5 630.363 581.3 621.964 584C619.765 584.7 617.465 585.1 615.266 585.8C614.566 586 613.766 586.1 613.066 586.2C603.668 588 603.268 585.3 604.068 597.5C604.168 598.8 604.568 600.1 603.568 601.3C603.468 601.5 603.268 601.7 603.168 601.9C601.668 603.6 599.569 603.5 597.569 603.5C588.271 603.6 578.973 603.6 569.675 603.5C567.675 603.5 565.676 603.3 564.076 601.9C563.876 601.5 563.676 601.1 563.576 600.7C563.476 590.8 563.476 580.8 563.376 570.9C563.376 566.9 562.377 564 557.578 562.7C552.579 561.3 548.679 557.5 547.58 552C546.38 546 549.379 541.8 553.978 538.5C555.178 537.6 556.578 537 556.678 535.2C558.377 533.4 560.677 533.8 562.776 533.8C578.373 533.9 591.77 529.1 602.268 517.1C608.467 510 615.866 504.4 625.164 501.7C633.162 499.3 639.361 502.3 642.26 510Z" fill="#FD9993"/>
<path d="M413.91 823.8C413.11 823.8 412.41 823.8 411.61 823.8C411.61 728.7 411.61 633.5 411.71 538.4C411.71 534.9 410.111 532.5 408.011 530C375.918 492.6 354.023 449.9 342.426 402C334.528 369.7 332.128 337 334.928 303.9C335.028 302.6 334.628 300.9 336.327 300.5C337.827 300.2 338.427 302 339.127 303C353.623 322.2 366.021 342.6 376.518 364.3C377.318 365.9 378.118 367.5 379.417 370.2C380.417 358 381.217 347 382.617 336.1C386.516 306.4 394.214 277.8 405.012 249.9C405.512 248.6 405.612 246.6 407.511 246.5C409.511 246.5 409.411 248.5 409.911 249.8C416.409 266.9 421.508 284.5 425.707 302.3C426.107 303.9 426.507 305.5 427.207 308.4C430.606 295.7 433.805 284.1 437.704 272.7C445.702 249.2 455.5 226.5 467.498 204.7C468.197 203.3 468.497 200.9 470.497 201.2C472.496 201.5 471.996 203.9 472.396 205.4C479.095 233.8 483.194 262.6 484.994 291.7C485.993 308.5 485.693 325.3 485.693 342.2C487.593 342.3 487.693 340.7 488.293 339.7C495.391 329 502.989 318.7 511.388 309C512.287 308 512.887 305.9 514.687 306.6C516.486 307.2 515.887 309.1 515.987 310.6C516.886 349.7 511.687 387.9 500.29 425.3C488.093 465.3 469.397 502.1 444.403 535.6C442.403 538.2 442.003 540.9 442.003 544C442.003 614.3 442.003 684.6 442.003 754.9C441.703 758.7 441.403 762.4 440.004 766C437.404 763.4 438.204 760.1 438.204 757C438.104 692.2 438.204 627.4 438.204 562.6C438.204 557.1 438.104 551.6 438.204 546.1C438.304 542.4 436.804 540.6 432.905 540.7C428.906 540.8 424.907 540.8 420.908 540.7C416.809 540.6 415.209 542.5 415.409 546.4C415.509 548.2 415.409 550.1 415.409 551.9C415.409 639.5 415.409 727.1 415.409 814.7C415.309 817.8 416.009 821.1 413.91 823.8Z" fill="#5882AE"/>
<path d="M976.886 1147.9C991.083 1151 1005.28 1154 1019.48 1157.1C1030.87 1159.7 1042.27 1162.4 1053.77 1165C1054.37 1166.2 1054.17 1167.3 1053.67 1168.4C1052.57 1170.3 1050.77 1171.5 1048.97 1172.8C1037.17 1181.2 1025.38 1189.7 1013.58 1198C1004.88 1204.2 1000.78 1213 999.081 1223.2C998.482 1226.5 999.681 1228.3 1003.28 1228.3C1004.98 1228.3 1006.58 1228.3 1008.28 1228.3C1049.57 1228.3 1090.86 1228.3 1132.15 1228.3C1134.75 1228.3 1137.45 1227.9 1140.05 1229.2C1140.85 1229.8 1141.05 1230.6 1140.95 1231.6C1140.45 1232.9 1139.85 1233.8 1138.35 1232.7C1136.55 1231.9 1134.75 1232.3 1132.95 1232.3C1082.96 1232.3 1032.87 1232.3 982.885 1232.3C981.085 1232.3 979.186 1232.7 977.486 1231.9C977.286 1231.3 976.986 1230.7 976.986 1230C976.786 1202.7 976.786 1175.3 976.886 1147.9Z" fill="#202B6D"/>
<path d="M1363.6 1152.9C1362.5 1151.8 1363 1150.4 1362.9 1149.1C1365.1 1147 1367.9 1147.5 1370.5 1147.5C1387.1 1147.4 1403.79 1147.5 1420.39 1147.5C1426.79 1147.5 1427.19 1147.1 1427.19 1140.7C1427.19 1099.1 1427.19 1057.4 1427.19 1015.8C1427.19 1009.1 1426.79 1008.7 1420.09 1008.8C1390.6 1008.9 1361.2 1008.4 1331.71 1009.1C1330.41 1008 1331.11 1006.5 1331.01 1005.1C1333.41 1003.1 1336.41 1003.6 1339.21 1003.6C1365.8 1003.6 1392.5 1003.6 1419.09 1003.6C1427.09 1003.6 1427.19 1003.5 1427.19 995.6C1427.19 992.6 1427.29 989.6 1427.19 986.6C1427.09 981.4 1426.59 980.9 1421.39 980.9C1406.69 980.8 1392.1 980.9 1377.4 980.8C1374.8 980.8 1372 981.4 1369.9 979.1C1372.2 977.9 1374.5 976.7 1376.9 975.5C1391.3 973.7 1405.79 975 1420.19 974.7C1426.89 974.5 1427.19 974.4 1427.19 967.6C1427.29 946.6 1427.09 925.6 1427.29 904.6C1427.29 900.1 1428.79 895.7 1427.99 891.2C1429.19 884.9 1430.39 878.6 1431.59 872.4C1434.09 874.8 1433.39 878 1433.39 880.9C1433.49 917.2 1433.39 953.5 1433.39 989.9C1433.39 1050.9 1433.39 1111.9 1433.39 1172.8C1433.39 1175.3 1432.79 1178.1 1434.89 1180.6C1436.79 1177.7 1436.09 1174.8 1436.09 1172.1C1436.09 1069 1436.19 965.8 1436.09 862.7C1436.09 855.9 1437.39 849.1 1436.99 842.3C1437.89 838.2 1438.69 834.2 1439.58 830.1C1439.68 832.6 1439.78 835.1 1439.78 837.6C1439.78 951.6 1439.78 1065.5 1439.78 1179.5C1439.78 1185.5 1436.49 1187.8 1430.69 1185.8C1428.49 1185 1428.89 1183.3 1428.79 1181.7C1428.79 1173.2 1428.69 1164.7 1428.89 1156.2C1428.99 1153 1428.09 1151.7 1424.69 1151.9C1421.09 1152.2 1417.39 1152.1 1413.69 1151.9C1410.99 1151.8 1410.29 1152.9 1410.29 1155.4C1410.39 1166.7 1410.49 1178.1 1410.19 1189.4C1410.09 1193.3 1412.59 1193 1414.89 1193.7C1423.79 1196.5 1429.39 1202.3 1430.79 1211.6C1432.19 1220.7 1428.89 1228.1 1421.39 1233.2C1413.89 1238.4 1405.69 1238.7 1397.89 1234C1390.1 1229.3 1386.2 1222.1 1387 1213C1387.8 1203.5 1394.09 1196 1403.39 1193.8C1407.19 1192.9 1407.89 1191.3 1407.89 1187.8C1407.69 1177.1 1407.79 1166.5 1407.79 1155.8C1407.79 1153.8 1408.19 1151.8 1404.99 1151.8C1391.8 1151.9 1378.7 1151.9 1365.5 1151.9C1364.8 1151.7 1364.1 1152.1 1363.6 1152.9Z" fill="#5A83B0"/>
<path d="M642.26 510C634.662 500.8 629.663 499.8 618.865 505.3C613.267 508.1 608.168 511.7 604.268 516.5C592.771 530.7 577.574 535.5 560.078 535.2C558.878 535.2 557.778 535.2 556.579 535.1C555.679 527.7 555.979 520.2 556.379 512.8C557.079 499.7 568.076 489.1 581.173 487.9C591.871 487 602.669 486.7 613.267 484.9C613.966 484.9 614.666 484.9 615.466 484.9C627.963 479.7 639.961 485.9 640.661 498.1C641.56 502 642.86 505.9 642.26 510Z" fill="black"/>
<path d="M699.547 1003C700.247 1003.8 700.647 1004.8 700.447 1005.9C698.247 1007.9 695.448 1007.5 692.848 1007.5C675.852 1007.6 658.956 1007.4 641.959 1007.6C629.062 1007.7 618.764 1017.2 617.264 1029.9C616.565 1036.5 617.364 1037.5 624.063 1037.5C649.658 1037.5 675.252 1037.5 700.847 1037.5C703.146 1037.5 705.546 1037.4 707.745 1038.1C708.745 1039 708.245 1040.1 708.245 1041.2C699.547 1041.2 690.949 1041.4 682.251 1041.1C678.252 1041 677.352 1042.3 677.352 1046.1C677.452 1107.4 677.452 1168.7 677.452 1230.1C677.452 1232 678.052 1234.1 676.752 1236.2C674.452 1234.6 675.452 1232.2 675.452 1230.4C675.352 1169.6 675.452 1108.8 675.352 1047.9C675.352 1040.4 676.252 1041.3 668.754 1041.2C661.755 1041.2 654.757 1041.1 647.758 1041.2C639.36 1041.3 640.56 1040 640.56 1048.7C640.56 1109.2 640.56 1169.7 640.56 1230.2C640.56 1232.1 641.059 1234.1 639.46 1236.4C637.86 1234.1 638.36 1231.9 638.36 1230C638.36 1169.2 638.26 1108.4 638.46 1047.5C638.46 1042.6 637.46 1040.6 632.161 1041.1C627.062 1041.6 621.864 1041.1 616.665 1041.2C614.465 1041.2 613.465 1040.6 613.265 1038.2C611.366 1017.8 624.263 1003.4 644.959 1003.2C652.257 1003.1 659.656 1003 666.954 1003.3C670.853 1003.5 671.853 1002.1 671.553 998.5C671.253 994 671.553 989.5 671.553 985C672.253 985 672.853 985 673.553 985C676.052 988.4 675.052 992.4 674.952 996.1C674.952 1000.2 676.452 1001.8 680.551 1001.6C684.85 1001.4 689.149 1001.5 693.448 1001.6C695.548 1001.5 697.747 1001.4 699.547 1003Z" fill="#5983AF"/>
<path d="M460.798 1228C460.798 1227.3 460.798 1226.6 460.698 1225.8C461.798 1223.8 463.498 1222.6 465.297 1221.4C488.593 1206.5 500.191 1184.9 500.991 1157.6C501.49 1139.6 501.09 1121.6 501.09 1103.7C501.09 1097.9 500.691 1097.5 494.792 1097.5C486.093 1097.5 477.495 1097.5 468.797 1097.5C462.498 1097.5 462.098 1097.9 462.098 1104.4C462.098 1142 462.098 1179.6 462.098 1217.3C462.098 1220.3 462.498 1223.3 460.598 1226C458.899 1224.8 459.599 1223 459.599 1221.4C459.599 1180.8 459.599 1140.2 459.599 1099.5C459.599 1089.7 459.599 1079.9 459.599 1070.1C459.599 1068.4 458.799 1066.4 460.598 1065C462.298 1066.9 462.098 1069.3 462.098 1071.6C462.198 1076.7 462.098 1081.9 462.098 1087C462.098 1089.8 463.298 1091.3 466.297 1091.3C476.395 1091.3 486.593 1091.3 496.691 1091.3C499.991 1091.3 500.991 1089.6 500.991 1086.6C500.991 1081.6 500.891 1076.6 500.991 1071.7C501.09 1067.8 499.291 1066.4 495.592 1066.5C486.293 1066.6 476.995 1066.6 467.697 1066.5C465.197 1066.5 462.698 1066.8 460.598 1065C460.598 1064.3 460.598 1063.6 460.598 1062.9C473.896 1062.9 487.193 1062.9 500.491 1062.8C503.39 1062.8 504.59 1063.5 504.59 1066.7C504.49 1098.7 505.49 1130.7 504.19 1162.6C502.99 1192.4 487.793 1214.6 460.798 1228Z" fill="#5A83AF"/>
<path d="M1358.7 1148.9C1359 1150.2 1359.3 1151.5 1359.7 1152.8C1358.5 1151.7 1357 1151.7 1355.5 1151.7C1297.12 1151.7 1238.63 1151.7 1180.24 1151.7C1179.54 1151.7 1178.94 1151.8 1178.24 1151.9C1178.54 1150.9 1178.84 1150 1179.14 1149C1181.04 1147.3 1183.44 1147.3 1185.74 1147.3C1241.23 1147.3 1296.72 1147.3 1352.2 1147.3C1354.4 1147.3 1356.8 1147.1 1358.7 1148.9Z" fill="#5881AE"/>
<path d="M897.205 837.3C898.205 837.3 899.304 837.3 900.304 837.2C902.804 865.7 900.904 894.3 901.304 922.8C901.404 929.1 898.804 934.7 894.605 939.5C894.705 937.4 894.905 935.4 895.005 933.3C897.305 929.6 897.505 925.4 897.605 921.4C898.005 908.6 899.004 895.8 898.604 883C898.105 868.9 898.604 854.7 896.805 840.7C896.605 839.5 896.505 838.4 897.205 837.3Z" fill="#5982AE"/>
<path d="M716.643 1232C757.434 1232 798.126 1232.1 838.917 1232.1C859.712 1232.1 880.508 1232.1 901.203 1232.1C894.505 1233.7 887.706 1232.3 880.908 1232.9C879.208 1233 876.709 1231.7 876.209 1235C876.109 1235.7 875.009 1236.1 874.809 1235.4C873.409 1231 869.91 1233.1 867.311 1233C860.012 1232.7 852.714 1232.8 845.315 1233C843.416 1233 840.716 1231.8 840.117 1235.2C840.017 1235.8 838.817 1236.3 838.617 1235.5C837.417 1230.9 833.718 1233 831.318 1233C794.726 1232.9 758.134 1232.9 721.542 1232.9C720.043 1232.8 718.143 1233.8 716.643 1232Z" fill="#50749B"/>
<path d="M977.286 1232C1029.87 1232 1082.46 1231.9 1134.95 1231.9C1136.15 1231.9 1137.35 1231.8 1138.15 1232.9C1086.36 1232.9 1034.67 1232.9 982.885 1232.9C981.085 1232.8 978.986 1233.6 977.286 1232Z" fill="#6088B2"/>
<path d="M1138.15 1232.8C1138.85 1232.5 1139.45 1232.1 1140.15 1231.8C1141.25 1231.3 1142.45 1231.5 1143.45 1231.9C1149.45 1234.3 1155.25 1232.9 1161.05 1230.8L1160.95 1230.9C1169.04 1223.6 1170.54 1214.7 1166.94 1204.7C1167.04 1203.1 1166.94 1201.5 1167.84 1200C1171.04 1206 1173.74 1212 1172.24 1219.3C1169.04 1234.7 1151.05 1242 1138.15 1232.8Z" fill="#6088B2"/>
<path d="M890.405 1013C890.405 1012 890.505 1011 890.505 1009.9C900.004 1017.3 902.103 1027.4 901.403 1038.7C901.303 1040.8 900.104 1041.1 898.504 1041.1C895.204 1041.2 891.905 1041.3 888.605 1041.5C888.505 1039.8 888.106 1038.1 888.905 1036.5C889.605 1036.6 890.205 1036.9 890.805 1037.1C896.804 1038.7 898.304 1037.4 897.904 1031.2C897.504 1024.2 893.605 1018.8 890.405 1013Z" fill="#5C84B0"/>
<path d="M412.709 1231.9C413.409 1231.9 414.109 1232 414.809 1232C416.409 1233 418.208 1232.8 419.908 1232.9C424.507 1232.9 429.006 1232.9 433.505 1232.9C435.505 1233 437.605 1232.9 439.504 1232.1C442.204 1232.4 444.903 1232.6 447.603 1232.9C433.905 1237.2 420.208 1237.5 406.511 1233C408.61 1232.2 410.91 1233.6 412.709 1231.9Z" fill="#5B82AE"/>
<path d="M448.603 1232.8C452.202 1231 456.001 1232.1 459.7 1232.1C456.101 1233.6 452.302 1232.5 448.603 1232.8Z" fill="#5B82AE"/>
<path d="M726.742 1123C727.242 1123 727.841 1122.9 728.341 1122.9C728.441 1124.3 728.741 1125.7 727.641 1126.9C727.342 1125.6 727.042 1124.3 726.742 1123Z" fill="#3F1700"/>
<path d="M644.358 530.3C644.358 527.5 644.258 524.8 644.258 522C644.358 519.2 644.458 516.3 644.458 513.5C644.458 401.7 644.458 289.9 644.358 178.1C644.358 173.1 645.458 171.8 650.557 171.8C864.61 171.9 1078.76 171.9 1292.82 171.8C1297.62 171.8 1298.82 173 1298.82 177.8C1298.62 248.4 1298.62 319.1 1298.82 389.7C1298.82 394.5 1297.52 395.8 1292.72 395.8C1250.73 395.6 1208.83 395.8 1166.84 395.6C1162.25 395.6 1161.05 396.8 1161.05 401.4C1161.25 435.6 1161.15 469.7 1161.15 503.9C1161.15 505.9 1160.95 507.9 1160.85 509.9C1159.05 511.9 1156.55 511.6 1154.35 511.6C1085.16 511.6 1015.88 511.6 946.692 511.6C945.392 511.6 943.993 511.6 942.693 511.3C939.994 510.7 939.394 509.4 941.093 507.2C942.093 505.9 943.293 504.8 944.493 503.6C958.79 489.3 973.186 474.9 987.283 460.4C972.486 474.9 957.79 489.6 943.093 504.3C940.394 506.9 938.294 510.4 934.195 511.3C931.395 511.7 928.496 511.6 925.697 511.6C882.606 511.6 839.616 511.6 796.525 511.6C779.229 511.6 770.931 519.9 770.931 537.4C770.931 571 770.931 604.6 770.931 638.2C770.931 640.9 770.931 643.5 770.731 646.2C770.631 647.4 770.731 648.7 770.031 649.6C765.532 655 761.633 661.1 755.434 664.9C749.735 671 744.036 677.1 738.338 683.2C736.338 684.2 734.239 684.5 732.039 684.5C717.042 684.5 702.146 684.5 687.149 684.5C685.149 684.5 683.15 684.3 681.45 683.1C674.952 665.5 668.553 647.8 662.054 630.2C661.155 627.9 660.155 625.5 659.655 623.1C658.255 615.6 654.056 610 647.658 606.1C644.858 604.4 644.358 602.5 644.358 599.6C644.458 587.1 644.358 574.6 644.258 562.1C645.258 555 645.658 547.8 645.258 540.6C645.158 539 645.658 537.3 644.358 535.9C643.958 534 644.158 532.2 644.358 530.3Z" fill="#FEFEFE"/>
<path d="M784.329 727C789.028 720 795.127 714.2 800.825 708.1C804.025 704.7 804.025 702.6 800.026 700.3C798.926 699.7 798.026 698.6 796.926 697.8C798.726 691.6 803.425 687.5 807.924 683.5C813.523 678.6 820.121 674.9 826.42 670.9C828.219 669.8 830.419 668.4 831.519 671.9C832.419 683.1 831.719 694.2 831.919 705.4C832.019 713.3 832.119 713.4 840.117 713.4C879.408 713.4 918.7 713.4 957.991 713.4C965.389 713.4 965.589 713.2 965.589 705.9C965.589 656.6 965.589 607.3 965.589 558C965.589 550.6 965.489 550.6 957.991 550.6C918.4 550.6 878.708 550.6 839.117 550.6C832.019 550.6 831.919 550.7 831.919 557.9C831.819 574.4 832.219 590.9 831.719 607.4C831.419 610.2 829.619 611.7 827.42 613.1C818.422 618.7 809.424 624.4 800.426 630C798.926 630.9 797.326 632.6 795.527 631C794.127 629.7 795.127 627.9 795.527 626.3C796.326 623.4 797.426 620.6 798.326 617.8C799.226 614.8 798.626 612.2 796.126 610.2C793.527 608.2 790.928 608.7 788.328 610.4C787.028 611.3 785.829 613.6 783.829 611.3C782.629 608.8 782.929 606.1 782.929 603.4C782.929 583.2 782.929 563.1 782.929 542.9C782.929 528.3 787.728 523.5 802.425 523.4C902.603 523.4 1002.88 523.4 1103.06 523.4C1118.76 523.4 1134.35 523.4 1150.05 523.4C1152.35 523.4 1154.75 523.4 1157.05 523.8C1164.15 525.1 1168.24 529.6 1168.74 536.7C1168.84 538.5 1168.84 540.4 1168.84 542.2C1168.84 602.3 1168.84 662.5 1168.84 722.6C1168.84 724.8 1168.94 726.9 1168.64 729.1C1167.95 735.3 1163.45 739.8 1157.25 740.5C1155.05 740.7 1152.95 740.7 1150.75 740.7C1034.57 740.7 918.4 740.7 802.225 740.7C799.226 740.7 796.226 740.9 793.227 740.2C786.329 738.4 782.729 733 784.329 727Z" fill="black"/>
<path d="M784.328 727C785.728 736.1 789.227 739.1 798.225 739.1C916.6 739.1 1034.97 739.1 1153.35 739.1C1163.45 739.1 1167.15 735.3 1167.15 725.2C1167.15 663.2 1167.15 601.3 1167.15 539.3C1167.15 529.4 1163.05 525.3 1153.25 525.3C1035.17 525.3 917.2 525.3 799.125 525.3C788.527 525.3 784.528 529.3 784.528 539.7C784.528 562 784.528 584.3 784.528 606.7C784.528 608.5 784.828 610.3 784.928 612.1C786.328 613.5 785.228 614.9 784.728 616.2C781.329 625.3 777.83 634.5 774.23 643.5C773.431 645.6 772.531 648 769.631 648C769.631 609.4 769.332 570.8 769.532 532.2C769.631 519.5 779.629 509.9 792.427 509.9C840.316 509.8 888.206 509.9 936.095 509.9C937.495 509.2 938.995 508.6 940.395 509.9C1013.88 509.9 1087.36 509.9 1160.75 509.9C1161.55 509.9 1162.45 509.9 1163.25 509.9C1169.54 508.9 1177.24 513.2 1181.14 519.9C1182.24 521.8 1182.94 523.8 1183.74 525.8C1184.54 528.2 1185.24 530.5 1185.24 533.1C1185.24 548.2 1185.94 563.4 1185.04 578.4C1184.14 591.5 1184.64 604.6 1184.34 617.7C1184.24 619.7 1184.14 621.7 1184.84 623.6C1185.14 624.5 1185.14 625.4 1185.24 626.4C1185.64 635.5 1185.34 644.7 1185.44 653.8C1185.54 660.2 1185.64 660.4 1192.24 660.4C1200.04 660.4 1207.84 660.4 1215.64 660.4C1217.93 660.4 1220.33 660.2 1222.43 661.5C1222.93 662 1223.13 662.5 1222.83 663.1C1221.03 664.6 1218.73 664.3 1216.63 664.3C1208.04 664.4 1199.44 664.3 1190.84 664.4C1189.04 664.4 1186.74 663.6 1185.74 666.2C1184.84 674.6 1185.54 683.1 1185.34 691.5C1185.34 695 1187.74 695.4 1190.44 695.4C1200.04 695.4 1209.64 695.4 1219.23 695.4C1221.73 695.4 1224.23 695.1 1226.43 696.6C1226.93 697.1 1226.93 697.7 1226.53 698.2C1212.94 698.3 1199.24 699.1 1185.64 697.8C1185.64 697.9 1185.64 698.1 1185.74 698.5C1199.14 698.6 1212.64 698.4 1226.13 698.6C1226.83 698.8 1227.03 699.3 1226.93 700C1225.03 701.9 1222.63 701.5 1220.33 701.5C1210.64 701.6 1201.04 701.5 1191.34 701.5C1185.74 701.5 1185.34 701.9 1185.24 707.4C1185.14 715.7 1185.44 724.1 1185.14 732.4C1184.74 745.8 1176.74 755.3 1164.45 757.4C1162.95 757.3 1161.55 757.7 1160.05 758.1C1151.95 758.8 1143.95 758.6 1135.85 758.2C1134.45 757.9 1132.95 757.9 1131.55 758.2C1115.56 758.9 1099.66 758.4 1083.66 758.5C1068.87 758.6 1054.07 758.5 1039.27 758.5C1032.77 758.5 1032.37 758.9 1032.37 765.2C1032.37 776.7 1032.27 788.2 1032.37 799.6C1032.37 804.8 1032.97 805.2 1038.17 805.4C1039.67 805.4 1041.17 805.4 1042.67 805.4C1052.77 805.6 1056.67 811.5 1052.67 821.4C1059.97 821.4 1066.97 821.4 1074.07 821.4C1076.57 821.4 1079.06 821.1 1081.36 822.4C1081.96 822.9 1081.96 823.4 1081.46 823.9C1024.78 823.9 968.089 823.8 911.301 823.8C903.502 823.8 895.704 824.5 887.906 823.6C887.906 822.9 888.206 822.4 888.806 822.2C891.305 821.1 894.005 821.5 896.704 821.5C898.604 821.5 899.703 821.3 899.203 818.7C897.604 809.6 901.003 805.7 910.401 805.5C920.699 805.3 920.399 806.5 920.399 795.4C920.399 785.6 920.399 775.8 920.399 765.9C920.399 758.6 920.199 758.5 912.8 758.5C874.409 758.5 836.017 758.5 797.525 758.5C787.728 758.5 779.029 756.2 772.831 748C771.331 746 769.631 744 770.831 741.2C775.13 736.2 779.129 731 784.328 727Z" fill="#5494A2"/>
<path d="M771.231 741.3C774.93 751.4 783.028 756.6 795.026 756.6C835.317 756.6 875.609 756.6 915.9 756.6C923.598 756.6 922.698 755.8 922.698 763.7C922.698 776.5 922.598 789.4 922.798 802.2C922.898 806 921.699 807.3 918 806.9C915.2 806.6 912.301 806.9 909.501 806.8C905.602 806.6 902.403 807.9 900.903 811.4C899.304 815 899.903 818.6 903.003 821.4C903.303 821.7 903.503 822.1 904.102 823C898.504 823 893.405 823 888.406 823C887.406 823.1 886.306 823.1 885.407 822.7C876.808 818.7 867.61 819.3 858.412 819.3C804.824 819.3 751.335 819.3 697.747 819.3C695.147 819.3 692.448 819.7 689.848 818.5C687.749 815.6 688.449 813.1 690.848 810.8C706.245 812.9 715.343 803.3 724.341 793C739.838 775.7 755.534 758.6 771.231 741.3Z" fill="#FEFEFE"/>
<path d="M413.91 823.8C413.91 730.5 413.91 637.3 413.811 544C413.811 539.5 415.11 538.2 419.409 538.5C425.008 538.9 430.706 538.7 436.405 538.5C439.004 538.4 440.004 539.4 439.804 542C439.704 543.3 439.804 544.7 439.804 546C439.804 616.9 439.804 687.9 439.804 758.8C439.804 761.1 439.904 763.5 440.004 765.8C437.505 775.5 437.205 785.3 440.004 795C441.804 802.9 441.104 810.9 441.204 818.8C441.204 822.1 439.904 823.6 436.405 823.4C433.306 823.2 430.107 823 427.007 823.6C425.608 823.8 424.208 823.9 422.808 824.1C419.709 824.1 416.81 824 413.91 823.8Z" fill="#FEFEFE"/>
<path d="M769.732 648C771.732 646.8 772.631 644.9 773.331 642.8C777.23 632.5 781.13 622.3 785.029 612.1C788.528 607.4 792.027 606.2 795.926 608.2C799.726 610.1 801.025 614.2 799.326 619.3C798.126 623 796.826 626.7 795.027 631.9C807.624 623.9 819.121 616.6 830.519 609.2C831.519 607.2 833.518 606.8 835.418 606.2C841.017 604.3 846.515 604.4 851.814 607C856.513 609.2 856.713 611.6 852.314 614.3C844.716 619 837.017 623.5 829.719 628.7C831.918 628.6 833.518 627.3 835.218 626.2C840.817 622.6 846.615 619.4 852.214 615.8C860.312 610.6 863.612 611.2 869.81 618.8C870.01 619.5 870.01 620.2 869.71 620.9C860.112 627 850.115 632.5 841.117 639.5C850.814 633.5 861.412 628.8 870.31 621.5C871.01 621.2 871.71 621.3 872.41 621.7C876.409 634.3 873.409 642.6 861.812 650C852.914 655.7 844.016 661.5 835.418 667.7C833.718 668.6 832.418 670.1 830.319 670C818.021 677.8 805.024 684.7 797.026 697.7C783.229 686.7 769.332 675.7 755.535 664.8C760.234 659.2 764.933 653.6 769.732 648Z" fill="#FD9993"/>
<path d="M564.077 602C577.074 602 590.171 602 603.168 602C605.968 634.8 608.767 667.6 611.567 700.4C612.966 716.5 614.166 732.6 615.666 748.6C616.065 752.4 614.766 753 611.367 753C602.768 752.8 594.07 752.7 585.372 752.9C582.373 753 581.473 752.1 581.074 749.1C578.674 727.9 576.075 706.8 573.575 685.7C570.476 657.8 567.277 629.9 564.077 602Z" fill="black"/>
<path d="M690.849 810.9C690.449 813.3 689.949 815.6 689.549 818C690.049 819.1 689.549 820 689.049 820.9C688.349 822.2 687.35 823 685.95 823.4C685.35 823.4 684.75 823.5 684.15 823.4C662.655 823.4 641.26 823.4 619.764 823.4C617.965 823.4 616.065 824.1 614.466 822.8C617.765 808.8 621.364 794.8 624.363 780.8C625.363 776.4 626.763 774.2 631.762 774.8C635.861 775.3 640.06 775.5 644.059 776.4C652.257 778.2 660.356 780.7 668.554 782.5C683.151 785.7 689.649 794.7 690.849 810.9Z" fill="#FD9993"/>
<path d="M692.449 711.9C689.149 703 685.85 694.1 682.551 685.2C683.751 683.6 685.55 683.9 687.15 683.9C701.946 683.9 716.743 683.9 731.64 683.9C733.24 683.9 735.039 683.5 736.239 685.1C728.841 694.5 720.542 703.1 712.444 711.9C705.746 714.1 699.147 714.4 692.449 711.9Z" fill="#FEFEFE"/>
<path d="M615.465 584.9C623.164 582.3 631.362 580.6 637.061 574C638.56 572.3 640.06 570.6 641.56 568.9C641.56 579 641.56 589.1 641.66 599.2C641.66 601.5 641.56 602.6 638.46 602.3C632.362 601.7 626.263 602 620.164 601.9C618.565 601.9 616.865 602.4 615.465 601.1C613.366 595.7 613.466 590.3 615.465 584.9Z" fill="#FDFDFD"/>
<path d="M614.566 822.8C619.465 823.7 624.463 823.2 629.362 823.2C648.358 823.4 667.354 823.5 686.45 823.6V823.8C621.864 823.8 557.278 823.8 492.693 823.9C472.597 823.9 452.401 824 432.306 824C430.506 824 428.707 823.8 426.807 823.7C429.806 822.5 433.006 823.2 436.105 823.2C439.004 823.2 439.804 822.2 439.704 819.5C439.604 811.4 439.804 803.2 439.804 795.1C441.104 796.9 441.504 799.1 441.904 801.2C443.803 805.5 443.104 810 443.203 814.5C443.303 821.2 443.403 821.4 450.302 821.4C455.301 821.4 460.3 821.1 465.099 823C512.788 823 560.478 823 608.167 822.9C610.267 822.9 612.466 822.8 614.566 822.8Z" fill="#5781AD"/>
<path d="M465.099 823C458.6 823.1 452.202 823 445.703 823.2C442.504 823.3 441.804 822 441.804 819.1C442.004 813.1 441.904 807.2 441.904 801.2C446.403 807.1 450.302 813.5 456.701 817.6C459.5 819.4 462.3 821.2 465.099 823Z" fill="#F8F9FA"/>
<path d="M603.568 601.4C603.268 600.1 602.868 598.8 602.768 597.5C601.568 586.6 602.068 586 613.166 585.1C615.366 590.3 615.166 595.6 613.266 600.9C610.167 602.5 606.867 602 603.568 601.4Z" fill="#FAFAFB"/>
<path d="M710.345 714.1C706.745 718.9 702.846 723.3 698.047 727.8C696.547 722.9 694.248 718.7 693.448 714C699.147 712.4 704.746 712.3 710.345 714.1Z" fill="#FDFDFE"/>
<path d="M736.238 685.2C718.343 685.2 700.447 685.2 682.551 685.2C682.251 684.4 681.852 683.7 681.552 682.9C700.547 682.9 719.443 683 738.438 683C737.638 683.8 736.938 684.5 736.238 685.2Z" fill="#5882AE"/>
<path d="M710.344 714.1C704.746 714.1 699.047 714 693.449 714C692.649 713.5 692.449 712.8 692.449 711.9C699.147 711.9 705.746 711.9 712.444 712C712.044 713 711.344 713.7 710.344 714.1Z" fill="#5882AF"/>
<path d="M642.359 567C642.459 566.1 642.559 565.3 643.459 564.9C643.459 577.3 643.459 589.7 643.459 602.1C643.059 602.1 642.759 602.1 642.359 602.1C642.359 590.3 642.359 578.6 642.359 567Z" fill="#5882AE"/>
<path d="M613.367 600.9C613.367 595.6 613.267 590.4 613.267 585.1C613.966 585 614.765 585 615.465 584.9C615.465 590.3 615.465 595.6 615.465 601C614.666 601.3 613.966 601.9 613.367 600.9Z" fill="#5881AE"/>
<path d="M727.042 922.9C675.153 922.4 623.164 921.8 571.275 921.4C555.179 921.3 544.281 912.2 534.683 901.1C527.285 892.5 522.886 882.4 520.486 871.3C518.387 861.4 516.087 851.5 513.388 841.7C512.288 837.7 513.188 837 517.087 837C575.175 837.1 633.262 837.1 691.349 837.1C696.648 837.1 701.947 837.2 707.346 837.3C713.544 863.9 719.743 890.5 725.942 917.1C726.342 919 726.642 921 727.042 922.9Z" fill="#6DB5DE"/>
<path d="M712.345 1039C709.146 1028.1 707.046 1016.9 704.547 1005.9C705.847 1004.6 707.446 1004.5 709.146 1004.5C719.143 1004.5 729.141 1004.5 739.038 1004.5C740.538 1004.5 742.038 1004.7 743.237 1005.8C741.838 1016.9 740.438 1027.9 739.038 1039C738.039 1040.1 736.739 1040.3 735.439 1040.3C728.941 1040.4 722.543 1040.4 716.044 1040.3C714.645 1040.3 713.445 1039.9 712.345 1039Z" fill="#FEFEFE"/>
<path d="M728.64 1115.2C723.341 1091.2 718.142 1067.2 712.843 1043.1C712.743 1042.5 712.744 1041.8 712.644 1041.1C713.743 1039.8 715.243 1040 716.743 1039.9C722.642 1039.9 728.541 1039.8 734.439 1039.9C736.039 1039.9 737.839 1039.5 738.738 1041.4C735.739 1065.1 732.64 1088.7 729.64 1112.4C729.54 1113.4 729.54 1114.5 728.64 1115.2Z" fill="#FEFEFE"/>
<path d="M813.422 1158.5C812.622 1158.5 811.922 1158.6 811.123 1158.6C809.723 1151.7 812.022 1145.1 812.822 1138.5C817.221 1104 821.82 1069.6 826.419 1035.1C831.318 998.7 836.217 962.3 841.015 925.8C841.515 922.3 841.915 918.9 842.315 915.4C842.515 913.8 842.515 911.6 844.915 912.1C846.914 912.5 846.314 914.5 846.114 915.9C844.715 926.6 843.315 937.3 841.815 948.1C837.616 979.4 833.417 1010.7 829.318 1042C824.219 1080.1 819.221 1118.2 814.222 1156.2C814.222 1157.1 813.722 1157.8 813.422 1158.5Z" fill="#FDFDFD"/>
<path d="M703.746 1002.9C702.546 996.7 700.247 990.8 699.747 984.5C713.844 984.5 727.84 984.7 741.937 984.5C745.537 984.5 746.436 985.4 745.736 988.9C744.737 993.6 744.237 998.3 743.537 1003.1C742.037 1004.4 740.238 1004.4 738.338 1004.4C728.74 1004.4 719.042 1004.4 709.445 1004.4C707.345 1004.5 705.445 1004.3 703.746 1002.9Z" fill="#FCFDFD"/>
<path d="M897.203 837.3C898.703 841.4 899.403 845.6 899.403 849.9C899.303 873.3 899.403 896.7 899.303 920.2C899.303 924.9 899.603 929.9 895.104 933.3C896.103 917.2 897.103 901.1 898.203 885C899.603 864.5 888.105 846.6 869.01 839.3C867.11 838.6 865.311 837.9 863.511 837.1C874.609 837.2 885.906 837.3 897.203 837.3Z" fill="#FDFDFD"/>
<path d="M890.405 1013C897.804 1019.3 899.604 1027.6 899.204 1036.8C899.204 1037.3 899.204 1037.9 898.904 1038.2C897.504 1040.1 890.105 1038.8 888.906 1036.4C889.505 1028.6 890.005 1020.8 890.405 1013Z" fill="#FDFDFD"/>
<path d="M703.747 1002.9C716.944 1003 730.241 1003 743.438 1003.1C743.438 1004 743.338 1004.9 743.338 1005.8C730.441 1005.8 717.544 1005.9 704.647 1006C704.247 1004.9 704.047 1003.9 703.747 1002.9Z" fill="#5881AE"/>
<path d="M738.738 1041.5C730.04 1040.6 721.343 1041.3 712.645 1041.1C712.545 1040.4 712.445 1039.7 712.345 1039C721.243 1039 730.14 1038.9 739.038 1038.9C739.138 1039.8 739.438 1040.7 738.738 1041.5Z" fill="#5881AD"/>
<path d="M1081.86 824C1081.96 823.8 1082.06 823.5 1082.06 823.2C1084.66 817.6 1089.86 814.7 1094.86 811.8C1105.06 806 1115.96 804.3 1127.45 807.3C1129.35 807.8 1131.35 808.1 1133.25 808.5C1134.05 808.6 1134.85 808.7 1135.65 808.9C1144.15 811.2 1152.75 812.4 1161.25 814.8C1161.75 815 1162.15 815.3 1162.65 815.6C1171.04 828.4 1178.14 842 1185.84 855.2C1200.84 881 1215.53 906.8 1230.33 932.7C1231.73 935.1 1234.43 937.9 1233.13 940.3C1231.73 942.9 1228.03 941.3 1225.33 941.3C1214.33 941.6 1203.44 941.1 1192.44 941.6C1177.54 941.7 1162.55 941.8 1147.65 941.8C1145.65 941.8 1143.75 941.4 1143.75 944.6C1143.75 957.2 1143.55 969.8 1143.55 982.4C1143.55 982.9 1143.95 983.3 1144.15 983.8C1145.15 986 1144.95 988.4 1144.95 990.7C1144.95 1010.3 1145.05 1029.9 1144.95 1049.5C1144.95 1056.5 1144.35 1063.4 1143.15 1070.3C1141.55 1072.5 1139.25 1071.7 1137.15 1071.5C1119.26 1069.7 1101.46 1067 1083.66 1064.7C1079.96 1064.2 1076.36 1064 1072.77 1065.1C1070.67 1063.7 1071.07 1061.7 1071.27 1059.7C1071.37 1040.4 1071.47 1021.1 1071.67 1001.7C1072.37 979.6 1071.77 957.4 1072.07 935.3C1072.17 924.3 1072.77 913.3 1073.27 902.4C1074.07 882.7 1092.76 865 1112.46 864.4C1119.96 864.2 1127.35 864.3 1134.85 863.6C1142.05 862.9 1149.45 863.5 1156.75 863.3C1142.95 863.4 1129.25 863.3 1115.46 863.4C1090.96 863.6 1072.17 882.4 1072.07 907C1071.97 921.3 1071.77 935.7 1072.07 950C1072.47 965 1070.57 979.9 1070.97 994.9C1070.97 996.7 1071.07 998.6 1069.47 1000C1059.57 996.8 1049.57 993.7 1040.07 989.2C1051.87 938.8 1063.67 888.4 1075.37 838C1075.47 837.7 1075.37 837.3 1075.37 837C1077.36 832.7 1079.56 828.4 1081.86 824Z" fill="#FD9993"/>
<path d="M707.746 1038C706.447 1039.6 704.647 1038.9 703.047 1038.9C675.453 1038.9 647.859 1038.8 620.265 1039C616.166 1039 615.366 1037.8 615.366 1034C615.566 1017.1 626.664 1005.7 643.46 1005.7C662.456 1005.7 681.352 1005.8 700.348 1005.9C702.847 1016.6 705.347 1027.3 707.746 1038Z" fill="#FEFEFE"/>
<path d="M686.45 823.8V823.6C686.55 823.4 686.65 823.2 686.85 823.1C688.649 821.6 690.749 821.5 692.948 821.5C752.336 821.5 811.823 821.5 871.21 821.5C874.21 821.5 877.209 822.6 880.208 822.1C876.309 822.4 872.41 821.5 868.511 821.5C811.123 821.6 753.635 821.6 696.248 821.5C693.648 821.5 690.849 822.2 688.649 820C688.949 819.3 689.249 818.7 689.549 818C749.436 818 809.323 818.1 869.311 818C876.209 818 882.508 819.4 888.307 823C888.307 823.2 888.307 823.4 888.307 823.6C866.011 823.7 843.816 823.9 821.521 824C778.53 824.1 735.439 824 692.448 824C690.449 824 688.449 823.9 686.45 823.8Z" fill="#5882AE"/>
<path d="M699.547 1003C692.449 1003 685.25 1002.8 678.152 1003.2C674.153 1003.4 673.353 1001.8 673.553 998.3C673.753 993.8 673.553 989.4 673.553 984.9C680.152 984 686.65 984.7 693.249 984.4C694.948 984.3 695.448 985.2 695.848 986.7C697.048 992.1 698.947 997.4 699.547 1003Z" fill="#FDFDFD"/>
<path d="M1192.24 941.7C1202.84 940.8 1213.43 941.4 1224.03 941.1C1226.83 941 1229.63 941.1 1233.43 941.1C1209.24 898.9 1185.54 857.5 1161.75 816.1C1161.75 815.1 1162.45 814.6 1163.35 814.5C1174.64 815.9 1185.54 818.9 1196.54 821.3C1205.34 823.2 1214.23 824.6 1222.83 827.3C1223.83 827.8 1224.83 828.4 1226.03 828.6C1253.43 833.9 1281.02 838.5 1308.31 844.8C1309.11 842.8 1307.81 841.7 1307.11 840.6C1300.72 830.5 1294.72 820.1 1288.42 809.9C1286.52 806.9 1284.32 805.7 1280.82 805.3C1274.42 804.5 1267.92 804.6 1261.42 803.7C1255.33 802.8 1249.53 804.1 1243.93 806.7C1242.43 807.4 1241.03 808.4 1239.33 808.4C1238.73 808.2 1238.33 807.9 1238.03 807.4C1237.33 806.1 1236.83 804.7 1236.63 803.3C1233.83 775.9 1230.83 748.5 1227.83 721.1C1227.23 715.7 1226.63 710.2 1226.23 704.7C1226.13 703.1 1225.73 701.4 1226.93 699.9C1227.13 699.6 1227.13 699.4 1226.93 699.1C1226.23 698.8 1226.23 698.4 1226.83 698C1226.83 697.7 1226.73 697.3 1226.73 697C1223.73 693.4 1224.63 688.9 1224.13 684.7C1223.33 678.8 1222.43 673 1222.33 667.1C1222.43 665.7 1222.13 664.3 1223.03 663C1223.13 662.7 1223.13 662.4 1222.93 662.2C1220.03 655.9 1220.83 649.2 1223.53 643.5C1226.63 636.9 1230.83 630.5 1237.43 626.4C1239.03 625.5 1240.23 624.2 1241.83 623.3C1243.03 622.7 1244.23 622.1 1245.43 621.4C1257.33 616 1269.92 617.5 1282.42 617.8C1292.52 617 1302.52 618.1 1312.61 617.5C1318.71 619.5 1324.81 618 1330.91 618C1334.41 618.9 1337.91 618.9 1341.31 618.2C1349.01 616.8 1356.6 617.8 1364.2 618.6C1367.7 619 1371.6 619.2 1373.7 623C1375.7 624.3 1377.7 625.6 1379.7 626.8C1382.1 626.4 1383.4 628 1384.6 629.5C1389.4 634.9 1392.9 641 1393.8 648.3C1394.3 652.6 1395.2 656.8 1396 661C1396.1 662.3 1396.5 663.5 1396.6 664.7C1396.6 665.5 1396.3 666.2 1395.9 666.8C1400.19 687.6 1404.49 708.4 1408.79 729.1C1410.29 736.2 1411.49 743.5 1413.29 750.5C1417.59 767.3 1411.79 780.5 1398.79 791C1391.6 796.8 1384.3 802.6 1376.9 808.3C1374.5 810.1 1373.6 812.2 1373.9 815.1C1375.2 828.8 1376.6 842.5 1377.7 856.2C1379.4 877.9 1372.9 896.9 1358.7 913.2C1342.41 931.8 1321.61 940.4 1297.02 940.6C1264.12 940.8 1231.13 941.2 1198.24 941.6C1196.24 942 1194.24 941.8 1192.24 941.7Z" fill="#202B6D"/>
<path d="M1358.7 1148.9C1358 1149 1357.4 1149.1 1356.7 1149.1C1297.52 1149.1 1238.23 1149.1 1179.04 1149C1183.04 1130.3 1186.84 1111.7 1191.04 1093C1197.34 1064.3 1203.84 1035.7 1210.34 1007C1212.14 1005.4 1214.33 1005.5 1216.53 1005.5C1251.53 1005.5 1286.42 1005.5 1321.41 1005.5C1323.41 1005.5 1325.41 1005.4 1327.11 1006.8C1332.11 1024.7 1335.71 1043 1339.71 1061.1C1346.21 1090.4 1352.4 1119.7 1358.7 1148.9Z" fill="#FEFEFE"/>
<path d="M1331.81 1008.8C1332.11 1006.2 1334.11 1006.9 1335.61 1006.9C1365.4 1006.9 1395.19 1006.9 1424.89 1006.8C1428.19 1006.8 1428.99 1007.8 1428.99 1011C1428.89 1055.6 1428.89 1100.2 1428.99 1144.8C1428.99 1148.1 1427.99 1149 1424.79 1149C1404.19 1148.8 1383.5 1148.9 1362.9 1148.9C1358.7 1130.1 1354.6 1111.4 1350.41 1092.6C1344.21 1064.8 1338.01 1036.8 1331.81 1008.8Z" fill="#FEFEFE"/>
<path d="M1395 661.9C1394 656.4 1393.3 650.7 1391.9 645.3C1390.1 637.8 1386.1 631.6 1379.8 627C1381.1 625.1 1383.2 626 1384.8 626C1411.39 625.9 1438.09 625.8 1464.68 626.1C1469.48 626.1 1470.58 624.6 1470.48 620.1C1470.28 605.1 1470.38 590.1 1470.38 575.1C1470.38 570.6 1471.68 569.7 1475.78 571.5C1480.78 573.7 1483.78 577.5 1483.78 583.1C1483.78 615.9 1484.38 648.7 1483.48 681.5C1482.88 703.4 1473.58 722.3 1458.18 738C1457.58 738.6 1456.88 738.9 1455.98 738.8C1461.08 717.1 1455.48 698.5 1439.89 682.7C1437.29 678.5 1438.69 673.9 1438.49 669.5C1438.19 663.4 1438.39 663.3 1432.49 663.3C1422.19 663.3 1411.89 663.3 1401.59 663.3C1399.29 663.5 1396.9 663.8 1395 661.9Z" fill="#FEFEFE"/>
<path d="M1455.08 745C1475.68 724.8 1486.78 700.9 1486.18 671.5C1485.58 643 1486.08 614.5 1486.08 586C1486.08 575.2 1483.48 571.5 1473.08 568.4C1470.58 567.7 1470.48 566.4 1470.48 564.4C1470.48 557.1 1470.58 549.7 1470.48 542.4C1470.38 539.2 1471.58 538.5 1474.58 538.7C1489.27 539.5 1502.47 553.4 1502.57 569.4C1502.77 610.1 1503.07 650.7 1502.47 691.4C1502.17 715.6 1493.77 737.4 1478.38 756.2C1468.88 767.8 1459.18 779.2 1449.48 790.6C1449.08 791 1447.98 794.9 1446.58 791C1449.38 775.7 1452.18 760.4 1455.08 745Z" fill="#FEFEFE"/>
<path d="M1206.04 1007C1202.04 1025.1 1198.04 1043.3 1194.04 1061.4C1187.64 1090.6 1181.24 1119.8 1174.84 1148.9C1172.24 1150.9 1169.14 1150.5 1166.24 1150.3C1163.54 1150.1 1162.05 1148.6 1161.85 1145.9C1161.75 1144.1 1161.75 1142.2 1161.75 1140.4C1161.75 1098.7 1161.75 1056.9 1161.75 1015.2C1161.75 1013.5 1161.75 1011.9 1161.85 1010.2C1162.05 1007.5 1163.25 1005.7 1166.14 1005.7C1178.64 1005.5 1191.04 1005.4 1203.54 1005.7C1204.44 1005.7 1205.34 1006.2 1206.04 1007Z" fill="#FEFEFE"/>
<path d="M1142.25 1070.7C1143.25 1043.2 1142.95 1015.7 1143.15 988.2C1143.15 986.8 1142.75 985.2 1143.85 983.9C1149.45 985.8 1155.25 986.5 1161.05 987C1163.85 993.2 1162.05 999.7 1162.25 1006.1C1162.35 1008.2 1161.95 1010.4 1161.95 1012.6C1161.95 1056.2 1161.85 1099.7 1162.05 1143.3C1162.15 1153.9 1162.35 1164.6 1162.35 1175.2C1162.35 1184 1161.25 1184.9 1152.55 1184.3C1151.35 1184.2 1150.25 1184.1 1149.15 1183.5C1146.05 1178.2 1146.95 1172.2 1146.55 1166.6C1144.95 1145.6 1144.95 1124.5 1143.25 1103.5C1142.45 1092.5 1142.85 1081.6 1142.25 1070.7Z" fill="#FDFDFE"/>
<path d="M1370 978.8C1388.3 978.8 1406.49 978.8 1424.79 978.7C1427.99 978.7 1429.19 979.5 1429.09 982.9C1428.89 988.7 1428.79 994.5 1429.09 1000.3C1429.29 1004.2 1427.79 1004.9 1424.19 1004.9C1393.1 1004.8 1362.1 1004.9 1331.01 1004.9C1329.71 1000 1328.51 995 1327.01 990.1C1326.21 987.2 1327.31 986.8 1329.81 986.8C1343.81 986.9 1357.2 984.2 1370 978.8Z" fill="#FEFEFE"/>
<path d="M1211.14 1004.8C1211.64 999.5 1213.63 994.5 1214.53 989.3C1215.13 986 1217.43 986.8 1219.43 986.8C1248.23 986.8 1277.02 986.8 1305.81 986.8C1309.31 986.8 1312.81 987.2 1316.31 986.7C1321.41 986 1323.41 988.2 1324.01 992.9C1324.41 996 1325.41 999 1326.11 1002.1C1326.81 1004.4 1326.01 1005.7 1323.61 1005.9C1322.11 1006 1320.61 1006 1319.11 1006C1285.32 1006 1251.53 1006 1217.73 1006C1215.53 1005.9 1213.13 1006.6 1211.14 1004.8Z" fill="#FEFEFE"/>
<path d="M1437.09 842C1438.19 843.7 1437.79 845.6 1437.79 847.4C1437.79 957.4 1437.79 1067.3 1437.79 1177.3C1437.79 1178.5 1437.79 1179.6 1437.79 1180.8C1437.89 1183 1436.39 1183.1 1434.79 1183C1433.29 1183 1431.59 1183.2 1431.59 1180.9C1431.59 1179.4 1431.59 1177.9 1431.59 1176.4C1431.59 1079.8 1431.59 983.1 1431.59 886.5C1431.59 881.7 1431.69 876.9 1431.79 872C1433.49 862.1 1435.29 852.1 1437.09 842Z" fill="#FDFDFE"/>
<path d="M1427.99 890.9C1429.39 892.3 1428.89 894 1428.89 895.6C1428.89 920.8 1428.89 946.1 1428.99 971.3C1428.99 974.9 1428.29 976.2 1424.39 976.1C1409.99 975.9 1395.5 976 1381.1 976C1379.7 976 1378.1 976.5 1376.9 975.2C1405.19 959.3 1420.89 934.9 1425.79 903.1C1426.49 899.1 1427.29 895 1427.99 890.9Z" fill="#FEFEFE"/>
<path d="M1163.25 987.1C1178.34 987 1193.54 986.9 1208.64 986.8C1211.33 986.8 1211.13 987.9 1210.53 989.9C1209.14 994.9 1207.94 999.9 1206.74 1004.9C1205.44 1006.2 1203.64 1006 1202.04 1006.1C1190.74 1006.1 1179.44 1006.2 1168.15 1006.1C1162.95 1006.1 1161.95 1005.2 1162.15 999.9C1162.35 995.5 1160.85 991.1 1163.25 987.1Z" fill="#FEFEFE"/>
<path d="M1163.25 987.1C1163.25 991.3 1163.55 995.4 1163.25 999.5C1162.95 1003.5 1164.15 1005 1168.44 1004.9C1181.24 1004.6 1194.04 1004.8 1206.74 1004.8C1206.54 1005.5 1206.24 1006.3 1206.04 1007C1193.44 1007 1180.74 1007.1 1168.14 1006.9C1164.65 1006.8 1163.25 1007.5 1163.25 1011.5C1163.35 1055.8 1163.35 1100.1 1163.25 1144.4C1163.25 1148 1163.95 1149.7 1167.84 1149.2C1170.14 1148.9 1172.44 1149 1174.84 1149C1174.54 1150 1174.34 1151 1174.04 1152C1172.94 1153.1 1171.44 1153.6 1169.94 1153.5C1165.35 1153.2 1164.45 1155.8 1164.55 1159.7C1164.65 1166 1164.65 1172.2 1164.55 1178.5C1164.55 1180.8 1164.75 1183.2 1163.15 1185.1C1161.05 1186.8 1158.55 1186.3 1156.15 1186.3C1152.45 1186.4 1151.55 1188.1 1153.25 1191.3C1156.35 1193.6 1161.05 1193.1 1163.25 1196.9C1163.35 1197.8 1162.85 1198.3 1162.15 1198.6C1161.15 1198.9 1160.15 1198.8 1159.25 1198.3C1156.15 1196.7 1153.15 1196.5 1149.95 1197.9C1147.85 1193 1147.95 1188 1149.55 1183C1161.05 1183.5 1161.15 1183.5 1161.05 1171.9C1161.05 1110.3 1161.05 1048.6 1161.05 987C1161.85 987 1162.55 987 1163.25 987.1Z" fill="#5982AF"/>
<path d="M1163.05 1197.1C1159.85 1194.6 1156.15 1193.6 1152.25 1192.9C1150.95 1191.5 1151.75 1189.8 1151.65 1188.2C1151.35 1186 1152.55 1185.4 1154.55 1185.4C1157.15 1185.4 1159.75 1185.9 1162.35 1185C1164.35 1182.5 1163.15 1179.6 1163.25 1176.9C1163.45 1170.1 1163.55 1163.4 1163.25 1156.6C1163.15 1152.8 1164.05 1151 1168.14 1151.6C1170.04 1151.9 1172.04 1151.8 1174.04 1151.8C1170.94 1166.5 1167.84 1181.2 1164.85 1195.9C1164.45 1196.8 1164.15 1197.5 1163.05 1197.1Z" fill="#FCFCFD"/>
<path d="M1396 667C1396 666.3 1395.99 665.7 1395.9 665C1397.39 663.3 1399.49 663.5 1401.49 663.5C1411.79 663.5 1422.09 663.4 1432.39 663.5C1438.19 663.5 1439.09 664.3 1438.79 670.2C1438.59 673.6 1440.69 677.5 1436.89 680.2C1424.99 670.5 1410.79 667.6 1396 667Z" fill="#F6F8FA"/>
<path d="M1211.14 1004.8C1247.83 1004.8 1284.42 1004.8 1321.11 1004.7C1323.11 1004.7 1326.11 1006 1326.11 1002C1327.51 1003.4 1326.81 1005.2 1327.01 1006.8C1288.12 1006.8 1249.23 1006.9 1210.34 1006.9C1210.54 1006.3 1210.84 1005.6 1211.14 1004.8Z" fill="#5881AE"/>
<path d="M1436.89 680.3C1438.88 675.9 1437.49 671.2 1437.69 666.6C1437.79 664.3 1435.59 664.9 1434.29 664.9C1421.49 664.9 1408.69 664.9 1395.89 665C1395.59 664 1395.29 663 1394.99 661.9C1407.89 662.9 1420.79 662.3 1433.59 662.2C1438.39 662.2 1440.58 663.1 1439.98 668.4C1439.48 673.1 1439.88 678 1439.88 682.8C1438.88 682 1437.89 681.1 1436.89 680.3Z" fill="#5881AD"/>
<path d="M1150.75 1197.2C1150.85 1194.8 1152.35 1194.6 1154.05 1195.2C1156.65 1196.1 1159.15 1197.1 1161.75 1198C1163.95 1198.6 1163.65 1200.2 1163.35 1201.8C1162.15 1207.1 1161.05 1212.5 1159.85 1217.8C1158.95 1217.9 1158.55 1217.3 1158.25 1216.6C1158.35 1211.4 1154.45 1209 1150.85 1206.3C1149.35 1203.3 1149.15 1200.3 1150.75 1197.2Z" fill="#FCFCFD"/>
<path d="M1159.05 1216.8C1159.35 1217.2 1159.65 1217.5 1159.85 1217.9C1159.25 1221.2 1158.75 1224.6 1157.95 1227.9C1157.15 1231 1158.85 1231.1 1161.05 1230.8C1154.35 1236.5 1147.25 1235.1 1140.15 1231.8C1140.15 1231.2 1140.05 1230.6 1140.05 1230C1141.65 1228.1 1143.95 1228.4 1145.95 1228.6C1149.75 1228.9 1151.85 1227.4 1152.15 1223.6C1154.35 1221.2 1155.75 1218.1 1159.05 1216.8Z" fill="#F9FAFB"/>
<path d="M1167.04 1204.7C1173.34 1213.3 1170.24 1226.6 1161.05 1230.9C1163.05 1222.2 1165.05 1213.4 1167.04 1204.7Z" fill="#FAFAFB"/>
<path d="M1163.35 1201.9C1163.35 1200.4 1162.85 1199.1 1161.75 1198.1C1162.15 1197.8 1162.55 1197.4 1163.05 1197.1C1163.64 1196.7 1164.24 1196.4 1164.84 1196C1164.24 1197.9 1164.64 1200.1 1163.35 1201.9Z" fill="#678BB2"/>
<path d="M439.604 1232.1C438.104 1233.5 436.505 1234.2 434.405 1233.7C429.307 1233.1 424.108 1233.1 419.01 1233.7C417.21 1234.1 415.71 1233.8 414.811 1232C423.008 1232.1 431.306 1232.1 439.604 1232.1Z" fill="#929BBA"/>
<path d="M1069.07 1000.1C1069.77 969.6 1070.07 939.2 1070.07 908.7C1070.07 881.3 1088.96 862.3 1116.36 862C1130.15 861.8 1143.95 862.4 1157.75 861.4C1159.15 861.3 1160.65 861.5 1160.85 863.2C1161.15 865.6 1159.15 865.2 1157.75 865.2C1143.95 865.5 1130.15 866.4 1116.36 865.9C1093.26 865.1 1073.67 884.5 1073.77 908.4C1073.87 937.9 1073.17 967.3 1073.17 996.8C1073.17 998.7 1073.87 1000.9 1071.37 1002C1070.57 1001.2 1069.87 1000.7 1069.07 1000.1Z" fill="#FEFDFD"/>
<path d="M1070.97 1059.8C1072.97 1061.1 1071.57 1063.3 1072.37 1064.9C1073.87 1066.7 1073.67 1069 1073.67 1071.1C1073.47 1089.4 1072.87 1107.7 1071.87 1126C1071.47 1133.2 1071.57 1140.3 1071.77 1147.5C1071.97 1154 1069.67 1159.2 1064.47 1163.1C1062.37 1164.7 1060.47 1166.6 1058.27 1168.2C1056.67 1169.4 1054.77 1170.6 1053.37 1167.9C1053.47 1167 1053.57 1166.1 1053.67 1165.2C1057.07 1162.3 1060.37 1159.2 1063.87 1156.4C1065.97 1154.7 1065.97 1152.5 1066.07 1150.1C1066.87 1122 1067.77 1093.9 1068.77 1065.8C1068.77 1063.6 1067.77 1060.7 1070.97 1059.8Z" fill="#FDFCFC"/>
<path d="M640.76 498.1C636.661 486.8 632.062 483.8 620.565 484.8C618.965 484.9 617.265 484.9 615.666 484.9C615.666 449.6 615.566 414.3 615.566 378.9C615.566 303.4 615.566 227.9 615.466 152.5C615.466 147.5 616.365 145.9 621.764 145.9C854.513 146.1 1087.26 146.1 1320.11 145.9C1325.01 145.9 1326.51 146.9 1326.51 152.1C1326.31 231.4 1326.31 310.7 1326.51 390C1326.51 394.5 1325.51 396.3 1320.71 395.8C1315.91 395.4 1311.01 395.4 1306.21 395.8C1302.12 396.1 1300.72 395 1300.82 390.7C1301.12 377.9 1300.92 365 1300.92 352.2C1300.92 293.4 1300.82 234.6 1301.02 175.7C1301.02 170.9 1299.82 169.6 1295.02 169.6C1079.36 169.7 863.811 169.7 648.159 169.6C642.96 169.6 641.86 171.1 641.86 176C641.96 281.3 641.96 386.6 641.96 491.9C641.86 494.1 642.86 496.4 640.76 498.1Z" fill="#FEFEFE"/>
<path d="M1373.9 623.2C1364.8 618.5 1354.9 619.7 1345.21 619.6C1340.51 619.5 1335.71 620.7 1331.01 619.2C1332.21 617.3 1334.31 617.2 1336.11 616.4C1343.61 613.1 1348.9 607.9 1351.4 599.9C1352.7 595.8 1352.7 591.9 1351.3 587.8C1350.7 585.8 1349 583.3 1352.4 581.9C1366.5 581 1380.7 581.7 1394.79 581.5C1396.09 581.5 1397.49 581.4 1398.79 581.5C1402.89 582 1404.39 580.4 1404.29 576.2C1404.19 525.4 1404.19 474.6 1404.19 423.8C1404.19 418.7 1403.99 418.6 1398.19 418.6C1338.31 418.6 1278.32 418.6 1218.43 418.6C1208.94 418.6 1199.44 418.6 1189.94 418.6C1184.54 418.6 1184.34 418.8 1184.34 424.8C1184.34 455.5 1184.34 486.1 1184.34 516.8C1184.34 519.3 1184.74 521.8 1183.64 524.2C1183.34 524.9 1182.74 525.1 1182.04 525C1179.14 515.9 1172.24 511.7 1163.35 510C1163.35 474.2 1163.35 438.4 1163.15 402.5C1163.15 398.4 1164.75 398 1168.14 398C1194.74 398.1 1221.43 398.1 1248.03 398.1C1319.31 398.1 1390.6 398.1 1461.78 398C1466.38 398 1467.98 398.8 1467.88 403.9C1467.68 475.2 1467.68 546.5 1467.88 617.9C1467.88 622.5 1466.68 623.7 1462.08 623.7C1432.79 623.2 1403.39 623.2 1373.9 623.2Z" fill="#FEFEFE"/>
<path d="M612.167 532.6C611.767 534.5 610.867 535.9 608.867 535.8C607.067 535.7 605.767 534.5 605.867 532.6C605.967 530.8 607.067 529.5 609.067 529.6C610.967 529.7 611.967 530.9 612.167 532.6Z" fill="#1B100F"/>
<path d="M644.359 530.3C645.759 532.1 645.859 534 644.46 535.8C642.06 536.2 639.461 536.5 639.461 533C639.461 529.8 641.86 529.7 644.359 530.3Z" fill="#0D0A0A"/>
<path d="M407.512 250C424.108 294.7 432.806 339.7 434.506 386C436.305 436.1 429.307 485.1 413.51 534.1C394.314 491 384.017 447.2 382.017 401.4C379.718 349.6 387.916 299.5 407.512 250Z" fill="#FEFEFE"/>
<path d="M469.898 205.6C474.297 223.7 477.296 241 479.496 258.4C482.495 282.9 483.795 307.5 483.495 332.1C483.395 342 481.395 350.9 476.296 359.9C456.701 395 444.903 432.7 440.404 472.7C438.304 492 437.705 511.2 439.504 530.5C439.904 534.8 439.004 536.5 434.305 536.1C429.306 535.7 424.307 535.8 419.309 536.1C415.509 536.3 415.309 535 416.309 531.8C422.608 512 427.507 491.8 430.906 471.3C436.305 438.6 437.805 405.8 435.705 372.8C434.505 354.2 432.206 335.7 428.607 317.4C428.207 315.3 428.207 313.1 428.707 311C437.405 274.9 450.502 240.6 467.998 207.8C468.498 207.3 468.998 206.9 469.898 205.6Z" fill="#FEFEFE"/>
<path d="M513.188 310.8C514.788 393 491.393 467.2 442.503 533.3C436.005 449.6 459.6 375.4 513.188 310.8Z" fill="#FEFEFE"/>
<path d="M337.027 304.3C343.225 312.1 347.924 319.1 352.523 326.2C362.221 341.2 370.719 356.8 378.117 373C379.217 375.4 379.617 377.7 379.617 380.2C378.717 428.4 387.515 474.8 404.911 519.7C405.311 520.6 405.511 521.6 405.811 522.5C405.911 522.8 405.611 523.1 405.511 523.7C354.423 459.8 331.628 387.3 337.027 304.3Z" fill="#FEFEFE"/>
<path d="M1053.37 1167.8C1054.67 1168.5 1055.77 1168.7 1056.97 1167.6C1060.67 1164.2 1064.27 1160.9 1068.07 1157.6C1069.97 1155.9 1069.67 1153.7 1069.67 1151.6C1070.57 1122.7 1071.47 1093.9 1072.37 1065C1072.97 1063.1 1073.76 1062.3 1076.26 1062.6C1093.96 1065 1111.76 1067.1 1129.45 1069.3C1133.75 1069.8 1137.95 1070.2 1142.25 1070.7C1144.25 1071.9 1143.55 1073.9 1143.65 1075.6C1145.45 1111.4 1146.65 1147.2 1149.65 1182.9C1150.05 1187.7 1150.45 1192.4 1150.85 1197.2C1151.55 1200.3 1150.55 1203.7 1152.05 1206.7C1152.65 1207.3 1153.15 1208 1153.35 1208.9C1153.75 1211.7 1153.55 1214.5 1153.65 1217.3C1153.35 1219.1 1154.45 1221.1 1153.25 1222.8C1153.15 1229.8 1153.15 1229.8 1146.05 1229.8C1144.05 1229.8 1142.15 1229.9 1140.15 1230C1104.56 1229.9 1068.97 1229.9 1033.27 1229.8C1022.58 1229.8 1011.98 1229.7 1001.28 1229.9C998.081 1229.9 996.681 1229 997.181 1225.7C998.581 1214.2 1002.58 1204.2 1012.38 1197.2C1026.08 1187.4 1039.67 1177.6 1053.37 1167.8Z" fill="#8F3600"/>
<path d="M1428.99 1214.7C1429.09 1225.8 1420.09 1234.9 1409.09 1234.7C1398.3 1234.6 1389.6 1225.8 1389.6 1214.9C1389.6 1203.9 1398.09 1195.1 1408.89 1195C1419.99 1194.8 1428.89 1203.6 1428.99 1214.7Z" fill="#FEFEFE"/>
<path d="M460.699 1225.9C460.699 1183.9 460.699 1142 460.599 1100C460.599 1097 461.099 1095.5 464.598 1095.6C475.896 1095.8 487.194 1095.7 498.492 1095.7C500.591 1095.7 502.491 1095.5 502.491 1098.6C502.091 1120.7 503.691 1142.9 501.791 1165C499.491 1192.7 484.994 1212.7 460.699 1225.9Z" fill="#FEFEFE"/>
<path d="M460.7 1065C473.197 1065 485.594 1065.1 498.091 1065C501.491 1065 502.69 1065.9 502.59 1069.4C502.291 1076 502.39 1082.7 502.59 1089.3C502.59 1091.9 502.091 1093.2 499.091 1093.2C487.494 1093.1 475.796 1093.1 464.199 1093.2C461.199 1093.2 460.6 1092 460.7 1089.4C460.8 1081.3 460.7 1073.1 460.7 1065Z" fill="#FEFEFE"/>
<path d="M419.008 1233.7C424.107 1232.4 429.306 1232.4 434.405 1233.7C429.306 1233.8 424.107 1233.7 419.008 1233.7Z" fill="#E3EAF1"/>
<path d="M976.487 251.7C973.287 255.2 710.445 518 707.845 520.5C797.426 430.9 886.906 341.3 976.487 251.7Z" fill="#5E86B1"/>
<path d="M1044.47 249.8C974.887 319.4 905.402 389 835.817 458.6C836.517 459.3 837.317 460.1 838.017 460.8C907.602 391.2 977.087 321.6 1046.67 252C1045.87 251.3 1045.17 250.5 1044.47 249.8Z" fill="#5882AF"/>
<path d="M940.495 509.9C939.096 509.9 937.596 509.9 936.196 509.9C953.692 492.4 971.188 474.9 988.783 457.4C989.183 457.8 989.583 458.1 989.983 458.5C989.883 460.4 988.184 461.4 986.984 462.5C972.687 476.9 958.291 491.2 943.994 505.6C942.595 507 940.995 508 940.495 509.9Z" fill="#638AB4"/>
<path d="M988.384 631.1C988.384 605.5 988.484 579.8 988.284 554.2C988.284 549.7 989.384 548.1 994.083 548.2C1036.17 548.4 1078.26 548.4 1120.36 548.2C1124.85 548.2 1125.95 549.6 1125.95 553.9C1125.85 605.7 1125.85 657.5 1125.95 709.3C1125.95 713.6 1124.95 715.1 1120.36 715.1C1078.06 714.9 1035.77 715 993.583 715.1C989.384 715.1 988.184 713.7 988.184 709.6C988.484 683.4 988.384 657.2 988.384 631.1Z" fill="#1F2969"/>
<path d="M835.217 607.3C833.618 608 832.018 608.6 830.419 609.3C830.419 590.5 830.419 571.7 830.219 552.8C830.219 549.7 831.218 548.8 834.218 548.8C877.108 548.9 920.099 548.9 962.989 548.8C966.388 548.8 967.188 550 967.088 553.2C966.988 605.7 966.988 658.1 967.088 710.6C967.088 714.3 965.788 715 962.489 715C919.899 714.9 877.308 714.9 834.718 715C830.718 715 830.119 713.5 830.119 710C830.319 696.7 830.119 683.4 830.119 670C831.118 668.6 832.618 667.9 834.118 667.1C836.217 669.1 835.717 671.7 835.817 674.1C835.917 683.8 835.817 693.4 835.917 703.1C835.917 708.8 836.417 709.3 842.216 709.3C879.808 709.3 917.399 709.3 954.991 709.3C961.09 709.3 961.489 708.8 961.589 702.7C961.589 687.4 961.689 672.1 961.589 656.8C961.589 651 961.089 650.6 955.291 650.5C948.592 650.4 941.994 650.6 935.295 650.4C932.996 650.4 930.496 650.8 928.997 648.4C930.096 646.2 932.296 646.5 934.195 646.5C941.994 646.4 949.792 646.5 957.49 646.5C950.792 646.4 943.993 646.6 937.295 646.4C935.395 646.3 932.496 647.3 932.396 643.6C936.695 641.5 941.194 642.7 945.693 642.4C949.492 642.2 953.391 642.4 957.19 642.3C960.09 642.3 961.489 640.9 961.489 638.1C961.489 636.9 961.589 635.8 961.589 634.6C961.589 610 961.589 585.3 961.589 560.7C961.589 553.9 961.389 553.7 954.591 553.6C917.299 553.6 880.007 553.6 842.716 553.6C836.217 553.6 835.917 554 835.917 560.3C835.817 573.6 835.917 586.9 835.917 600.3C836.017 602.7 836.017 605 835.217 607.3Z" fill="#202A6C"/>
<path d="M1227.03 699.8C1228.53 713.2 1230.13 726.6 1231.63 740C1233.73 759.7 1235.83 779.4 1237.93 799.1C1238.13 800.7 1238.03 802.4 1238.03 804.1C1236.23 805.8 1234.03 805.5 1231.93 805.5C1211.04 805.5 1190.14 805.6 1169.24 805.5C1162.55 805.5 1161.75 804.7 1161.75 798.1C1161.65 786.3 1161.65 774.5 1161.75 762.7C1161.75 760.3 1161.35 757.6 1164.24 756.2C1175.54 754.9 1183.74 745.5 1183.94 733.7C1184.04 723.9 1184.14 714.1 1183.94 704.3C1183.84 700.8 1184.84 699.8 1188.44 699.8C1201.24 699.9 1214.13 699.8 1227.03 699.8Z" fill="#FEFEFE"/>
<path d="M1133.05 809.9C1120.26 806.6 1107.66 806.1 1095.56 812.7C1090.46 815.5 1086.66 819.9 1081.96 823.2C1071.27 823.2 1060.67 823.2 1050.07 823.2C1049.77 821.2 1051.47 820.9 1052.17 819.8C1055.87 814 1052.47 807.2 1045.57 806.8C1041.77 806.6 1037.87 806.7 1034.07 806.8C1031.67 806.9 1030.87 805.9 1030.87 803.6C1030.97 789.1 1030.97 774.6 1030.87 760.1C1030.87 756 1033.37 756.6 1035.87 756.6C1063.87 756.6 1091.86 756.6 1119.76 756.6C1124.26 756.6 1128.75 756.8 1133.25 756.9C1134.95 758.6 1134.65 760.9 1134.65 763C1134.65 776.6 1134.65 790.2 1134.65 803.7C1134.45 805.9 1134.75 808.1 1133.05 809.9Z" fill="#FEFEFE"/>
<path d="M1182.14 524.9C1183.94 523.3 1183.04 521.1 1183.04 519.3C1183.14 487.5 1183.14 455.6 1182.94 423.8C1182.94 418.9 1183.84 417.2 1189.14 417.3C1259.42 417.5 1329.71 417.5 1399.89 417.3C1404.49 417.3 1405.79 418.5 1405.79 423.2C1405.59 474.5 1405.59 525.8 1405.79 577.2C1405.79 581.9 1404.39 583.1 1399.89 583C1383.6 582.8 1367.3 583 1351 583.1C1349.3 582 1348.8 580.8 1350.6 579.3C1353 578.2 1355.5 578.5 1358 578.5C1370.3 578.5 1382.6 578.5 1394.89 578.5C1400.69 578.5 1401.19 578 1401.19 572.2C1401.29 524.1 1401.29 476 1401.19 427.8C1401.19 422.2 1400.69 421.8 1394.09 421.8C1351.8 421.8 1309.61 421.8 1267.32 421.8C1242.83 421.8 1218.43 421.8 1193.94 421.8C1186.94 421.8 1186.64 422.1 1186.64 429.1C1186.64 476.4 1186.64 523.7 1186.64 571C1186.64 578.3 1186.84 578.5 1194.24 578.6C1209.54 578.6 1224.83 578.6 1240.13 578.6C1242.63 578.6 1245.13 578.4 1247.63 579.1C1249.63 580 1251.33 581 1249.83 583.5C1247.43 585.1 1244.73 584.7 1242.03 584.7C1225.33 584.7 1208.74 584.7 1192.04 584.7C1185.84 584.7 1185.54 585.1 1185.54 591.2C1185.54 599.4 1185.44 607.5 1185.54 615.7C1185.64 620.9 1186.14 621.4 1191.34 621.4C1206.64 621.5 1221.93 621.4 1237.33 621.5C1239.93 621.5 1242.73 621 1244.93 623.1C1244.33 624.1 1243.33 624.2 1242.33 624.2C1239.93 625.1 1237.53 625.4 1235.03 625.4C1220.13 625.4 1205.14 625.4 1190.24 625.4C1188.14 625.4 1185.84 625.7 1184.04 624.1C1182.84 623.1 1183.04 621.7 1183.04 620.4C1183.04 608.7 1182.24 597 1183.24 585.4C1184.64 568.8 1183.44 552.1 1184.04 535.5C1184.24 531.8 1183.64 528.3 1182.14 524.9Z" fill="#5F87B2"/>
<path d="M1238.83 626.8C1227.13 635.7 1221.13 647.1 1223.03 662.1C1211.13 662.2 1199.14 662.2 1187.24 662.3C1184.54 662.3 1183.84 661.2 1183.84 658.7C1183.94 647.7 1183.94 636.8 1184.04 625.8C1185.44 624.7 1187.14 624.9 1188.84 624.9C1204.04 624.9 1219.23 624.8 1234.43 624.9C1236.03 625.1 1238.23 624.1 1238.83 626.8Z" fill="#FEFEFE"/>
<path d="M1160.95 815.8C1152.35 814.1 1143.65 812.7 1135.25 810.1C1134.05 808.9 1134.15 807.4 1134.15 805.9C1134.15 790.9 1134.15 775.8 1134.15 760.8C1134.15 759.5 1134.05 758.1 1135.15 757.1C1143.85 756.2 1152.45 756.7 1161.15 756.9C1162.45 758.5 1162.05 760.4 1162.05 762.1C1162.35 777.1 1161.65 792.2 1162.45 807.2C1162.65 810.1 1163.15 813.2 1160.95 815.8Z" fill="#FEFEFE"/>
<path d="M1223.83 666.1C1224.83 676.4 1225.83 686.7 1226.93 697C1213.74 697.1 1200.44 697.1 1187.24 697.3C1184.54 697.3 1183.84 696.3 1183.84 693.8C1183.94 684.2 1183.94 674.6 1184.04 665C1185.14 664.1 1186.44 664.1 1187.84 664.1C1198.34 664.1 1208.74 664.1 1219.23 664.1C1221.03 664 1222.93 664 1223.83 666.1Z" fill="#FDFEFE"/>
<path d="M1160.95 815.8C1161.05 796.2 1161.05 776.5 1161.15 756.9C1161.95 755.8 1163.05 756.1 1164.15 756.1C1163.05 757.6 1163.35 759.3 1163.35 760.9C1163.35 773.7 1163.55 786.5 1163.25 799.3C1163.15 803.5 1164.65 804.2 1168.34 804.1C1191.54 804 1214.83 804 1238.03 804.1C1238.33 805.1 1238.63 806 1238.93 807C1237.23 807.9 1235.43 807.7 1233.53 807.7C1214.43 807.7 1195.34 807.9 1176.34 807.6C1170.04 807.5 1164.55 807.5 1162.95 815.2C1162.55 815.5 1162.05 815.9 1161.65 816.2C1161.45 816 1161.15 815.9 1160.95 815.8Z" fill="#5A83AF"/>
<path d="M1238.83 626.8C1237.53 625.2 1235.73 625.9 1234.23 625.9C1217.53 625.8 1200.74 625.9 1184.04 625.9C1184.04 625.3 1184.04 624.7 1184.04 624C1203.44 624 1222.93 624.1 1242.33 624.1C1241.23 625.1 1240.03 626 1238.83 626.8Z" fill="#5781AE"/>
<path d="M1135.15 757.1C1135.15 774.8 1135.15 792.4 1135.25 810.1C1134.55 810 1133.85 810 1133.05 809.9C1133.05 792.3 1133.05 774.6 1133.15 757C1133.85 755.9 1134.55 756.1 1135.15 757.1Z" fill="#5882AE"/>
<path d="M1223.83 666.1C1222.43 664.4 1220.43 665 1218.73 665C1207.14 665 1195.54 665 1184.04 665C1184.54 662.2 1186.74 663.1 1188.44 663.1C1200.04 663 1211.63 663.1 1223.23 663.1C1223.43 664 1223.63 665 1223.83 666.1Z" fill="#5881AE"/>
<path d="M1227.03 698C1227.03 698.4 1227.13 698.7 1227.13 699.1C1213.23 699.1 1199.24 699.1 1185.34 699.1C1185.34 698.7 1185.34 698.4 1185.34 698C1199.24 698 1213.13 698 1227.03 698Z" fill="#5881AE"/>
<path d="M835.218 607.3C833.919 606.1 834.219 604.5 834.219 603.1C834.219 587.6 834.319 572.2 834.119 556.7C834.119 553.3 834.918 552.1 838.518 552.1C878.609 552.2 918.7 552.2 958.691 552.1C962.19 552.1 963.19 553.1 963.19 556.6C963.09 584.2 963.09 611.8 963.19 639.5C963.19 642.9 962.39 644.1 958.791 644.1C949.992 643.9 941.195 644.2 932.397 644.3C929.597 640 929.997 635.1 929.797 630.4C929.197 618.1 927.898 605.9 927.498 593.6C927.498 592 927.298 590.3 926.298 588.7C924.798 590.3 924.798 592.4 924.498 594.3C920.899 614.1 917.2 633.9 913.401 653.7C913.001 656 913.301 659.8 910.402 659.7C908.202 659.7 908.402 655.9 908.102 653.7C906.302 639.3 904.703 624.9 902.803 610.6C902.603 609.2 902.803 607.6 901.503 606.2C898.404 609.3 897.404 613.2 895.505 616.6C893.705 619.8 892.306 623.2 890.506 626.4C889.806 627.6 889.106 629.4 887.307 629C885.707 628.6 885.207 626.9 885.007 625.4C884.307 619.8 883.408 614.2 882.708 608.6C882.208 604.3 882.008 600 880.608 595.8C878.609 596.3 878.609 598 878.209 599.3C876.409 604.5 874.71 609.7 872.51 614.7C871.71 616.5 871.31 618.6 869.111 619.3C860.113 612.8 860.113 612.8 850.215 618.8C844.016 622.6 837.718 626.4 831.519 630.2C830.12 631 828.52 632.5 827.22 630.6C825.82 628.4 828.22 627.8 829.52 627.1C838.118 621.8 846.716 616.5 855.814 611C849.215 605.8 842.417 605.5 835.218 607.3Z" fill="black"/>
<path d="M929.397 648.1C930.697 649.8 932.496 649 933.996 649C942.294 649 950.592 649.1 958.89 648.9C961.99 648.8 963.289 649.5 963.289 653C963.189 671 963.189 688.9 963.289 706.9C963.289 710.3 961.99 711 958.89 711C918.799 710.9 878.808 710.9 838.716 711C834.717 711 834.117 709.6 834.117 706C834.317 693 834.217 680.1 834.117 667.1C844.215 660.2 854.213 653.1 864.511 646.5C871.709 641.8 872.909 635.1 872.409 627.5C872.309 625.7 871.009 624.1 871.909 622.2C871.909 615.8 875.608 610.7 877.808 605.1C878.108 604.4 879.008 603.8 879.908 604.1C881.107 604.6 881.307 605.9 881.507 607C882.807 614.4 883.507 621.8 884.606 629.2C884.906 631 884.806 632.9 886.106 634.6C888.106 634 888.506 632.1 889.305 630.6C892.105 625.3 894.604 619.8 897.504 614.6C898.204 613.3 899.103 611.7 900.803 612C902.602 612.4 902.403 614.3 902.603 615.7C904.802 632 906.502 648.4 908.601 664.7C908.901 667.3 909.201 669.9 910.101 672.5C911.901 671.6 911.601 670.1 911.8 668.9C915.2 650.2 918.799 631.6 922.098 612.9C922.398 611.1 922.698 609.3 923.798 607.7C924.698 606.9 925.598 606 926.797 607.3C928.697 611.5 927.997 616.1 928.197 620.5C928.697 629.8 930.697 638.9 929.397 648.1Z" fill="black"/>
<path d="M924.398 608.1C920.499 629.5 916.5 650.9 912.501 672.3C912.201 673.8 912.601 676.1 910.101 675.9C907.802 675.7 908.402 673.4 908.202 671.9C905.802 652.3 903.303 632.7 900.803 612.3C897.604 616.3 896.204 620.7 894.005 624.7C892.705 627 891.805 629.5 890.306 631.8C888.906 634 889.006 638.5 885.607 637.8C882.707 637.2 883.707 632.9 883.307 630.3C882.007 621.8 881.008 613.3 879.708 603.3C876.709 610.4 874.309 616.3 871.91 622.2C871.41 622.2 870.91 622.1 870.41 622.1C869.71 621.9 869.31 621.5 869.41 620.8C869.31 620.2 869.21 619.7 869.11 619.1C872.609 611.2 875.709 603.2 878.108 594.9C878.508 593.4 878.608 591.7 880.708 591.9C882.607 592.1 882.207 593.8 882.407 595C883.707 604.4 885.007 613.8 886.206 623.2C886.406 625 886.306 626.9 887.606 628.9C891.305 621.4 894.905 614.2 898.604 607C899.404 605.5 899.704 602.9 902.003 603.3C904.403 603.6 903.903 606.1 904.103 607.8C906.202 625 908.302 642.1 911.101 659.4C912.801 650.3 914.5 641.2 916.2 632.2C918.799 618 921.499 603.8 924.098 589.6C924.398 587.9 923.898 585.3 926.398 585.3C929.197 585.3 928.297 588 928.397 589.6C929.797 607.8 931.097 626.1 932.397 644.3C938.895 646.1 945.494 644.4 951.992 644.9C954.592 645.1 957.291 644.9 959.991 645C961.29 645 963.29 644.3 963.19 646.8C963.09 649 961.29 648.2 960.19 648.2C949.893 648.3 939.595 648.3 929.297 648.3C927.398 644.9 928.297 641.2 927.997 637.6C927.198 627.5 926.598 617.4 925.998 607.4C925.398 606.5 925.198 605.6 925.998 604.6C925.098 605.5 925.098 607 924.398 608.1Z" fill="#FDFDFD"/>
<path d="M869.51 620.8C869.81 621.2 870.21 621.7 870.51 622.1C870.41 623.9 869.01 624.5 867.81 625.3C859.512 630.4 851.114 635.5 842.815 640.6C841.616 641.3 840.216 642.8 838.916 641C837.417 638.9 839.516 638.1 840.816 637.3C849.414 632 858.112 626.8 866.71 621.6C867.51 621.1 868.51 621 869.51 620.8Z" fill="#060403"/>
<path d="M791.227 648.6C792.727 649.5 793.627 650 794.327 650.6C798.726 654.4 803.125 658.2 807.424 662C808.423 662.9 810.223 663.9 808.923 665.6C807.724 667.1 806.224 666.1 805.024 665C800.525 661.1 796.026 657.2 791.527 653.2C790.628 652.4 789.728 651.7 790.228 650.3C790.528 649.8 790.928 649.2 791.227 648.6Z" fill="#090605"/>
<path d="M688.75 820C705.346 820.1 722.043 820.1 738.639 820.1C782.23 820.1 825.82 820.1 869.411 820.1C873.61 820.1 877.609 820.5 882.708 822.7C880.508 823 879.608 823.2 878.609 823.2C815.522 823.2 752.436 823.2 689.45 823.2C688.65 823.2 687.75 823.1 686.951 823C686.851 821.7 688.15 821 688.75 820Z" fill="#E7EAED"/>
<path d="M1349.81 580.2C1350.21 581.1 1350.61 582.1 1351.01 583C1357.5 600.2 1349.41 615 1331.11 619.2C1326.41 619.9 1321.71 620 1316.91 619.9C1315.31 619.9 1313.51 620.3 1312.71 618.2C1311.21 616.3 1311.61 614.1 1311.91 612C1312.91 604.7 1313.81 597.5 1315.01 590.2C1315.81 585.5 1314.81 583 1310.21 580.9C1301.42 576.9 1294.62 570.8 1292.22 560.8C1291.22 556.7 1291.92 552.8 1292.72 548.9C1295.52 534.4 1289.02 523.7 1278.82 514.6C1275.72 511.8 1272.42 509.3 1268.92 506.9C1267.72 506.1 1266.32 505.3 1266.62 503.4C1270.62 499.7 1275.92 500 1280.72 499.7C1293.82 498.9 1306.81 499.3 1319.71 503C1331.31 506.4 1338.71 513.4 1341.71 525.1C1344.51 535.9 1344.61 547.1 1346.11 558.1C1347.01 564 1347.61 570 1349.51 575.7C1350.01 577.2 1350.21 578.7 1349.81 580.2Z" fill="black"/>
<path d="M1267.02 503.9C1273.32 508.7 1280.02 513.1 1285.22 519.2C1292.52 527.7 1295.92 537.1 1294.12 548.5C1291.52 564.9 1296.92 574 1312.51 580.4C1316.61 582.1 1317.31 584.2 1316.71 588.1C1315.21 598.1 1313.91 608.1 1312.61 618.2C1311.81 619.3 1310.71 619.8 1309.21 619.8C1300.52 619.6 1291.82 619.5 1283.12 619.3C1283.62 614.7 1283.32 610 1283.52 605.4C1283.72 601.6 1282.52 599.6 1278.42 599C1273.52 598.2 1268.62 597 1264.02 595C1258.12 592.4 1252.43 589.3 1249.73 582.8C1249.73 581.6 1248.93 580.8 1248.03 580.1C1246.73 579.4 1245.93 578.3 1245.53 577C1243.13 568.9 1242.63 560.7 1244.03 552.3C1244.63 548.8 1244.33 545 1250.93 544.9C1245.33 541.3 1245.33 537.5 1246.23 533.2C1246.83 530.1 1247.43 527 1247.43 523.8C1249.33 515.2 1254.13 508.8 1262.02 504.8C1263.72 503.9 1265.32 503.2 1267.02 503.9Z" fill="#FD9993"/>
<path d="M1250.03 582.7C1258.12 592.6 1269.22 596.3 1281.22 598C1284.12 598.4 1285.32 599.5 1285.12 602.4C1284.92 606.9 1285.02 611.3 1285.12 615.8C1285.12 617.3 1285.12 618.8 1283.22 619.3C1275.72 619.3 1268.32 619.2 1260.82 619.3C1255.32 619.4 1250.03 620.6 1244.93 623C1225.63 623.1 1206.44 623.1 1187.14 623.3C1184.34 623.3 1183.84 622.1 1183.84 619.7C1183.94 608.6 1184.04 597.4 1183.84 586.3C1183.74 582.8 1185.64 582.7 1188.14 582.7C1208.83 582.8 1229.43 582.7 1250.03 582.7Z" fill="#FEFEFE"/>
<path d="M1239.13 807.7C1246.63 802.6 1254.93 801.3 1263.92 802.4C1270.32 803.2 1276.82 803.6 1283.32 804C1285.22 804.1 1286.72 804.2 1287.92 806.2C1295.82 819.3 1303.72 832.4 1311.61 845.5C1311.71 845.7 1311.61 846.1 1311.61 846.7C1296.92 843.8 1282.32 840.8 1267.72 838C1253.83 835.3 1239.93 832.8 1226.13 830.2C1224.93 830 1223.33 830.3 1222.93 828.5C1225.53 820.4 1230.33 813.8 1236.93 808.4C1237.53 807.7 1238.33 807.5 1239.13 807.7Z" fill="#FD9993"/>
<path d="M1239.13 807.7C1231.33 812.7 1227.83 821.1 1222.83 828.3C1202.84 823.9 1182.94 819.5 1162.95 815C1163.84 806.1 1163.84 806.1 1173.24 806.1C1193.14 806.1 1213.13 806.1 1233.03 806.1C1235.03 806.1 1237.03 805.7 1238.83 806.8C1239.03 807.1 1239.13 807.4 1239.13 807.7Z" fill="#FEFEFE"/>
<path d="M1340.81 688.2C1343.01 688.5 1342.91 690.5 1343.31 692C1347.21 706.6 1351 721.2 1354.9 735.8C1356.4 741.4 1357.7 747.1 1359.4 752.7C1360.2 755.2 1359.6 756.7 1357.7 758.3C1347.9 766.6 1338.31 775 1328.51 783.3C1327.31 784.3 1325.91 786.3 1324.31 784.7C1322.31 782.7 1324.81 781.5 1326.11 780.4C1334.51 773.1 1342.81 765.6 1351.5 758.6C1355 755.8 1355.8 753.4 1354.6 749.1C1349.4 730.4 1344.71 711.5 1339.71 692.7C1339.21 691 1338.11 689.2 1340.81 688.2Z" fill="#FCFCFD"/>
<path d="M1162.35 1185C1161.05 1185.2 1159.85 1185.5 1158.55 1185.6C1151.35 1185.8 1151.35 1185.8 1152.25 1192.9C1149.45 1186.9 1150.45 1184.9 1156.45 1184.9C1158.35 1184.9 1160.35 1185 1162.35 1185Z" fill="#678BB2"/>
<path d="M1152.05 1209C1152.05 1208.3 1151.95 1207.5 1151.95 1206.8C1157.75 1207.8 1159.15 1211.8 1159.05 1216.9C1157.55 1219.3 1156.25 1222.1 1153.15 1222.9C1152.95 1221.5 1152.65 1220 1152.45 1218.6C1156.85 1215.2 1154.15 1212.1 1152.05 1209Z" fill="#6A8FB7"/>
<path d="M1438.89 582.8C1432.89 582.8 1426.89 582.7 1420.89 582.8C1418.19 582.8 1416.99 581.9 1416.99 579C1417.19 565.6 1415.69 568.2 1427.09 568C1436.79 567.9 1446.38 568.1 1456.08 567.9C1459.48 567.8 1460.78 568.9 1460.68 572.5C1460.38 584.6 1461.98 582.6 1450.78 582.8C1446.78 582.9 1442.88 582.9 1438.89 582.8Z" fill="#6A8FB7"/>
<path d="M1438.79 442.1C1444.58 442.1 1450.38 442.2 1456.18 442C1459.28 441.9 1460.68 442.8 1460.58 446.2C1460.38 457.8 1461.58 455.8 1451.18 455.9C1441.39 456 1431.59 455.8 1421.79 456C1418.19 456.1 1416.69 455.1 1416.79 451.3C1417.09 440.3 1415.99 442.3 1425.69 442.2C1430.19 442 1434.49 442.1 1438.79 442.1Z" fill="#678DB5"/>
<path d="M1438.79 562.8C1432.99 562.8 1427.19 562.7 1421.39 562.9C1418.19 563 1416.99 561.9 1416.99 558.6C1416.99 555.3 1418.39 554.8 1421.29 554.8C1433.09 554.9 1444.88 554.9 1456.68 554.8C1459.58 554.8 1460.88 555.5 1460.78 558.7C1460.68 561.6 1459.98 563 1456.78 562.9C1450.78 562.7 1444.78 562.8 1438.79 562.8Z" fill="#648BB4"/>
<path d="M1447.28 502C1443.69 502.7 1442.89 501.1 1442.79 498C1442.79 494.3 1444.68 494.2 1447.48 494.1C1450.58 494 1451.88 494.8 1451.88 498.2C1452.08 502.2 1450.18 502.6 1447.28 502Z" fill="#698FB7"/>
<path d="M1429.99 502.1C1426.99 502.7 1425.69 501.7 1425.69 498.2C1425.69 494.8 1427.09 494.1 1430.19 494C1433.49 493.9 1434.89 494.8 1434.89 498.4C1434.89 502.3 1432.79 502.4 1429.99 502.1Z" fill="#678DB6"/>
<path d="M1429.99 520C1426.99 520.6 1425.79 519.4 1425.69 516.1C1425.59 512.3 1427.29 512 1430.39 511.9C1433.99 511.8 1434.79 513.2 1434.89 516.5C1434.89 520.4 1432.69 520.2 1429.99 520Z" fill="#6B90B7"/>
<path d="M1447.28 520C1444.08 520.6 1442.89 519.3 1442.79 516C1442.59 511.9 1444.88 512.1 1447.78 511.9C1451.18 511.7 1451.88 513.1 1451.98 516.3C1452.08 520 1450.18 520.4 1447.28 520Z" fill="#698FB7"/>
<path d="M1447.78 484.2C1444.58 484.6 1442.79 484.2 1442.89 480.5C1442.99 477.3 1443.88 476.1 1447.18 476.1C1450.18 476.2 1452.18 476.4 1452.08 480.4C1451.88 483.9 1450.58 484.9 1447.78 484.2Z" fill="#668CB5"/>
<path d="M1430.09 476.3C1433.39 475.8 1434.89 477 1434.89 480.6C1434.89 483.8 1433.49 484.5 1430.69 484.4C1427.89 484.3 1425.49 484.6 1425.69 480.4C1425.79 477.1 1426.89 475.8 1430.09 476.3Z" fill="#658CB5"/>
<path d="M1152.05 1209C1156.45 1211.5 1157.65 1215.3 1155.25 1218.4C1154.25 1219.8 1153.35 1219.9 1152.35 1218.4C1152.25 1215.3 1152.15 1212.2 1152.05 1209Z" fill="#F9F7F6"/>
<path d="M1417.69 1214.9C1417.59 1219.5 1413.49 1223.2 1408.79 1223C1404.19 1222.8 1400.69 1219.1 1400.79 1214.6C1400.89 1209.9 1404.89 1206.2 1409.59 1206.4C1414.09 1206.7 1417.79 1210.6 1417.69 1214.9Z" fill="#6189B3"/>
<path d="M1101.26 648.3C1106.76 649.8 1112.46 648.8 1118.06 648.9C1121.06 649 1122.16 649.7 1122.16 652.9C1122.06 671.1 1122.06 689.2 1122.16 707.4C1122.16 710.3 1121.16 711.1 1118.36 711.1C1077.57 711 1036.77 711 996.082 711.1C992.183 711.1 992.383 709 992.383 706.3C992.383 675.2 992.383 644 992.383 612.9C992.383 594.2 992.483 575.6 992.283 556.9C992.283 553.3 993.083 552 996.982 552C1037.07 552.1 1077.17 552.2 1117.26 552C1121.46 552 1122.16 553.5 1122.16 557.2C1122.06 584.5 1122.06 611.8 1122.16 639.1C1122.16 642.7 1121.36 644.2 1117.46 643.9C1112.46 643.6 1107.46 644 1102.46 644C1097.26 640.7 1095.06 635.5 1093.36 629.9C1096.46 621.4 1096.26 613.3 1090.66 605.7C1087.26 601.1 1083.16 597.1 1077.17 597.5C1070.77 598 1065.47 601 1062.97 607.6C1062.47 608.9 1062.17 610.8 1060.37 610.7C1058.87 610.6 1058.47 609 1057.97 607.8C1057.17 605.9 1056.17 604.3 1054.77 602.8C1048.07 595.8 1040.37 595.5 1033.27 602.1C1024.48 610.3 1023.08 622.3 1029.68 633.6C1031.17 636.2 1032.97 638.6 1034.57 641.1C1035.97 643.3 1035.07 644.5 1032.77 644.9C1029.98 645.4 1027.08 644.5 1024.48 645.5C1027.48 647.4 1030.78 646.1 1033.87 646.4C1035.87 646.6 1037.87 646.3 1039.77 646.9C1045.37 651.1 1050.77 655.4 1056.57 659.3C1059.27 661.1 1061.57 661.2 1064.37 659.5C1072.47 654.2 1080.26 648.7 1086.26 640.9C1087.96 638.8 1089.06 635.9 1092.26 635.3C1096.86 638.5 1098.76 643.6 1101.26 648.3Z" fill="black"/>
<path d="M1101.26 648.3C1096.96 645 1095.76 639.4 1092.16 635.6C1090.26 634.9 1089.56 633.2 1088.46 631.7C1087.66 630.5 1087.26 628.4 1085.66 628.5C1083.76 628.6 1083.66 630.9 1083.06 632.4C1081.46 636.2 1079.96 640.1 1078.36 643.9C1077.46 646 1076.66 648.6 1073.87 648.6C1070.87 648.7 1070.37 645.9 1069.57 643.8C1068.77 641.6 1067.97 639.4 1066.87 636.6C1065.77 639.6 1064.97 642.2 1064.27 644.7C1063.57 647.1 1062.17 649 1059.47 649C1053.07 649 1046.57 650 1040.17 648.3C1034.87 648.2 1029.58 648.2 1024.38 648.1C1023.18 648.1 1021.98 648.1 1021.58 646.6C1021.28 645.3 1022.28 644.9 1023.18 644.5C1033.77 645 1044.07 641.4 1054.67 642.5C1057.17 642.8 1058.57 641 1059.37 638.8C1060.57 635.3 1061.57 631.8 1062.67 628.3C1063.27 626.4 1064.17 624.4 1066.67 624.4C1068.87 624.3 1069.67 626.2 1070.47 627.9C1071.77 630.6 1072.47 633.5 1074.27 636.5C1076.66 632.4 1077.56 628 1079.36 624.1C1080.16 622.3 1080.76 620.3 1081.96 618.7C1083.56 616.5 1085.66 616.2 1087.36 618.3C1090.26 621.9 1093.36 625.5 1094.16 630.3C1096.46 635.2 1099.46 639.7 1102.66 644.1C1108.06 645.5 1113.56 644.3 1118.96 644.7C1120.16 644.8 1121.96 644.2 1122.06 646.2C1122.26 648.8 1120.16 648 1118.86 648C1112.86 648.1 1107.06 648.2 1101.26 648.3Z" fill="#FDFCFC"/>
<path d="M1247.03 577C1247.43 578 1247.93 579 1248.33 580C1228.53 580.1 1208.74 580 1188.94 580.2C1184.34 580.3 1185.34 577.4 1185.34 574.9C1185.34 526.8 1185.34 478.6 1185.34 430.5C1185.34 419.9 1185.34 419.9 1196.04 419.9C1263.12 419.9 1330.21 420 1397.29 419.8C1402.09 419.8 1403.29 421 1403.29 425.8C1403.09 475.4 1403.09 525.1 1403.29 574.7C1403.29 579.2 1402.09 580.3 1397.69 580.2C1381.7 580 1365.7 580.1 1349.81 580.2C1345.41 571.2 1345.21 561.3 1343.91 551.7C1342.71 542.5 1342.61 533.1 1339.91 524.2C1336.81 514 1330.41 507.6 1319.91 504.8C1302.32 500.1 1284.72 499 1267.02 503.9C1257.83 507.1 1251.63 513.2 1249.03 522.8C1246.63 527.9 1243.33 532.5 1240.63 537.4C1234.33 549.1 1232.83 563.9 1245.83 575.3C1246.33 575.8 1246.63 576.5 1247.03 577Z" fill="#FEFEFE"/>
<path d="M924.397 608.1C923.997 606.4 924.397 605 925.697 603.6C926.697 604.8 926.397 605.9 926.097 607.1C925.497 607.5 924.997 607.8 924.397 608.1Z" fill="#8C8C8C"/>
<path d="M1321.91 577.1C1321.91 567.3 1322.01 558.2 1321.91 549.1C1321.91 546.5 1322.51 545.8 1325.01 546.9C1326.01 547.4 1327.21 547.5 1328.31 547.9C1334.81 550 1339.51 555.4 1339.81 560.9C1340.11 566.2 1335.61 572.1 1329.21 574.6C1326.91 575.4 1324.71 576.1 1321.91 577.1Z" fill="#FC9993"/>
<path d="M1247.03 577C1238.13 571.3 1234.03 563 1234.83 552.6C1235.73 540.9 1241.63 531.5 1249.03 522.8C1248.43 527.7 1247.83 532.6 1247.23 537.5C1247.03 539.3 1246.53 541.1 1249.53 541C1251.33 540.9 1252.13 542.4 1251.93 544.1C1251.73 545.8 1250.53 547.3 1249.03 546.8C1245.73 545.8 1246.13 547.9 1245.93 549.8C1244.53 559 1244.63 568 1247.03 577Z" fill="#010101"/>
<path d="M1282.22 548C1280.32 547.8 1279.12 546.8 1279.12 544.9C1279.12 543 1280.32 541.8 1282.32 541.9C1284.02 542 1285.12 543 1285.22 544.7C1285.32 546.6 1284.22 547.8 1282.22 548Z" fill="#0C0707"/>
<path d="M1438.79 570.9C1444.08 570.9 1449.38 571 1454.78 570.9C1458.68 570.8 1457.98 573.3 1457.98 575.6C1457.98 577.8 1458.68 580.3 1454.78 580.3C1444.18 580.1 1433.49 580.1 1422.89 580.3C1418.99 580.4 1419.69 577.9 1419.69 575.7C1419.69 573.5 1418.99 570.9 1422.89 571C1428.19 571 1433.49 570.9 1438.79 570.9Z" fill="#FEFEFE"/>
<path d="M1438.79 453.2C1433.49 453.2 1428.19 453.1 1422.89 453.3C1419.59 453.4 1419.49 451.5 1419.69 449.2C1419.79 447.1 1418.79 444.3 1422.69 444.4C1433.49 444.5 1444.28 444.5 1454.98 444.4C1458.98 444.4 1457.78 447.2 1457.88 449.3C1458.08 451.7 1457.88 453.5 1454.58 453.4C1449.38 453.1 1444.08 453.2 1438.79 453.2Z" fill="#FCFDFD"/>
<path d="M1439.08 557.1C1444.38 557.1 1449.68 557.1 1455.08 557.1C1456.18 557.1 1457.68 556.7 1457.78 558.4C1457.98 560.5 1456.18 560.2 1454.98 560.2C1444.18 560.2 1433.39 560.2 1422.59 560.2C1421.49 560.2 1419.99 560.5 1419.89 558.8C1419.69 556.6 1421.49 557.1 1422.69 557.1C1428.19 557 1433.69 557.1 1439.08 557.1Z" fill="#FEFEFE"/>
<path d="M1445.68 498.2C1445.78 497.1 1446.58 496.8 1447.68 496.8C1448.78 496.8 1449.58 497.2 1449.58 498.4C1449.58 499.7 1448.68 499.9 1447.58 499.9C1446.48 499.9 1445.68 499.6 1445.68 498.2Z" fill="#EEF2F7"/>
<path d="M1431.99 498.1C1432.09 499.3 1431.39 499.9 1430.29 499.9C1429.29 499.9 1428.29 499.9 1428.19 498.6C1428.09 497.4 1428.79 496.9 1429.89 496.8C1430.79 496.7 1431.79 496.9 1431.99 498.1Z" fill="#EEF2F6"/>
<path d="M1431.99 515.9C1431.99 517.1 1431.39 517.7 1430.19 517.7C1429.09 517.7 1428.19 517.3 1428.19 516C1428.19 515 1428.89 514.6 1429.79 514.5C1430.89 514.3 1431.79 514.5 1431.99 515.9Z" fill="#FEFEFE"/>
<path d="M1449.48 515.8C1449.48 517.2 1448.78 517.6 1447.68 517.7C1446.58 517.8 1445.78 517.4 1445.68 516.2C1445.58 515 1446.28 514.4 1447.48 514.5C1448.48 514.4 1449.28 514.8 1449.48 515.8Z" fill="#FEFEFE"/>
<path d="M1447.68 482.1C1446.48 482.1 1445.28 482.1 1445.28 480.5C1445.28 479.3 1446.18 478.9 1447.18 478.9C1448.38 478.9 1449.58 478.9 1449.58 480.5C1449.68 481.8 1448.78 482.1 1447.68 482.1Z" fill="#E7EDF3"/>
<path d="M1432.39 480.5C1432.39 481.7 1431.59 482.1 1430.49 482.1C1429.39 482.1 1428.09 482.2 1428.09 480.6C1428.09 479.4 1428.89 479 1429.99 479C1431.09 478.9 1432.29 478.9 1432.39 480.5Z" fill="#E7EDF3"/>
<path d="M1415.19 1214.6C1414.79 1218.6 1412.89 1220.9 1409.09 1220.8C1405.59 1220.7 1403.39 1218.4 1403.29 1215.1C1403.19 1211.5 1405.19 1209 1409.09 1209C1412.99 1208.9 1414.69 1211.2 1415.19 1214.6Z" fill="#FCFCFD"/>
<path d="M1094.06 630.3C1091.76 626.8 1089.46 623.4 1087.26 619.9C1086.56 618.8 1085.96 617.4 1084.26 617.7C1082.96 618 1082.66 619.2 1082.26 620.3C1079.76 626.8 1077.16 633.2 1074.17 640.9C1072.17 635.7 1070.67 631.6 1068.97 627.6C1068.47 626.5 1068.27 624.8 1066.47 624.9C1064.77 625 1064.57 626.4 1064.17 627.7C1062.87 632.2 1061.47 636.6 1060.07 641.1C1059.57 642.9 1058.97 644.4 1056.47 644.4C1045.37 644.3 1034.17 644.5 1023.08 644.5C1026.88 644.3 1030.57 644.1 1034.87 643.9C1032.87 640.9 1030.87 638.2 1029.08 635.3C1021.68 622.9 1022.48 611.5 1031.17 602.4C1040.27 592.7 1053.57 595.1 1058.97 607.3C1059.47 608.3 1059.87 609.4 1060.37 610.5C1061.47 608.3 1062.17 606.1 1063.37 604.2C1068.87 595.6 1079.56 593.9 1087.36 600.3C1096.66 607.7 1099.26 619.5 1094.06 630.3Z" fill="#E74F4F"/>
<path d="M1040.17 648.4C1045.67 648.3 1051.17 648 1056.57 648.3C1060.57 648.5 1062.77 647.5 1063.47 643.3C1063.97 640.1 1065.37 637 1066.67 632.9C1068.37 637.2 1069.67 640.8 1071.17 644.4C1071.77 645.9 1071.87 648 1073.96 648.1C1076.16 648.2 1076.26 646 1076.86 644.6C1079.56 638.1 1082.06 631.5 1084.96 624.3C1088.06 628.3 1090.36 631.9 1092.16 635.7C1084.46 646.5 1074.86 655.1 1063.37 661.7C1061.37 662.8 1059.97 663.1 1057.97 661.9C1051.67 657.7 1045.27 653.9 1040.17 648.4Z" fill="#E74F4F"/>
</svg>
