<svg width="1872" height="1380" viewBox="0 0 1872 1380" fill="none" xmlns="http://www.w3.org/2000/svg">
<path d="M935.799 1379.9C625.459 1379.9 315.018 1379.9 4.67903 1380C0.915492 1380 0 1379.2 0 1375.4C0.101717 918.5 0.101717 461.5 0 4.60001C0 0.900006 0.813775 0 4.67903 0C625.459 0.1 1246.14 0.1 1866.92 0C1870.68 0 1871.6 0.800006 1871.6 4.60001C1871.5 461.5 1871.5 918.5 1871.6 1375.4C1871.6 1379.1 1870.78 1380 1866.92 1380C1556.58 1379.9 1246.14 1379.9 935.799 1379.9Z" fill="#FCFCFC"/>
<path d="M1017.68 260.9C1028.87 252.6 1041.08 246.5 1055.42 245.4C1057.96 245.2 1060.5 245 1063.05 245C1169.65 245 1276.35 245 1382.95 245C1420.79 245 1450.59 274.1 1450.69 311.3C1450.79 330.8 1450.79 350.2 1450.89 369.7C1451.2 370.8 1451.91 371.8 1452.01 372.9C1452.12 374.9 1452.22 376.9 1452.12 379C1452.12 380.2 1452.12 381.4 1452.12 382.6C1452.42 413 1452.42 443.4 1452.12 473.7C1452.12 475.2 1452.01 476.7 1452.12 478.3C1452.22 480.1 1452.12 481.8 1452.01 483.6C1452.01 484.8 1451.51 485.8 1450.89 486.9C1450.79 488.2 1450.69 489.6 1450.69 490.9C1450.69 592.7 1450.69 694.5 1450.69 796.3C1450.69 797.6 1450.79 799 1450.89 800.3C1451.4 801.1 1451.81 801.9 1451.91 802.9C1452.32 810 1452.12 817 1452.01 824.1C1452.01 825 1452.01 826 1452.01 826.9C1452.32 840.1 1452.12 853.2 1452.12 866.4C1452.12 936 1452.32 1005.6 1452.01 1075.2C1451.91 1095.2 1443.88 1112 1428.31 1125.2C1426.08 1126.8 1423.74 1128.3 1420.99 1129C1407.87 1137.2 1393.63 1140.2 1378.07 1140.2C1272.28 1140 1166.39 1140.1 1060.61 1140.1C1026.84 1140.1 997.439 1113.2 994.896 1080.2C994.286 1078.4 994.591 1076.6 994.591 1074.8C994.591 1032.1 994.591 989.4 994.591 946.6C994.591 944.3 994.795 941.9 993.472 939.8C993.676 907 993.574 874.3 993.574 841.5C993.574 800.7 993.676 760 993.472 719.2C993.472 711.9 993.879 704.6 993.269 697.3C993.065 696.7 992.862 696.1 992.76 695.4C992.557 694.4 992.557 693.5 992.353 692.5C992.15 689.7 992.252 686.8 992.252 684C992.252 607.7 992.252 531.4 992.252 455.1C992.252 452.3 992.15 449.4 992.557 446.6C994.286 438.2 993.574 429.8 993.167 421.3C993.065 420.7 993.065 420 993.167 419.4C993.676 416.9 993.472 414.4 993.472 411.9C993.472 376.6 993.472 341.3 993.472 306.1C993.269 299.3 995.201 292.8 997.744 286.5C998.151 285.6 998.66 284.7 999.168 283.8C1003.03 275.9 1007.61 268.6 1014.32 262.7C1015.54 261.8 1016.77 261.6 1017.68 260.9Z" fill="black"/>
<path d="M658.721 244.9C658.823 237.3 658.823 229.6 658.925 222C659.026 210.1 667.265 201.9 679.37 201.9C754.742 201.9 830.013 201.9 905.386 201.9C917.286 201.9 925.322 210 925.424 221.8C925.526 234.8 925.627 247.7 925.627 260.7C926.034 261.5 926.441 262.4 926.543 263.3C926.95 270 926.746 276.8 926.644 283.6C926.644 284.5 926.644 285.5 926.644 286.4C926.746 316.8 926.339 347.2 926.848 377.7C927.051 389.9 917.998 399.9 904.368 400.3C892.366 400.6 880.363 400.4 868.361 400.4C854.324 400.4 840.287 400.6 826.25 400.3C825.639 400.3 824.927 400.3 824.317 400.3C817.4 400.4 810.382 400.5 803.465 400.3C776.001 400.4 748.639 400.4 721.175 400.3C715.988 400.3 712.123 401.8 708.664 405.4C696.357 418.2 684.354 431.4 671.639 443.8C669.91 445.4 668.384 447.2 666.248 448.4C662.485 450.5 659.23 449.2 657.907 445.2C657.399 443.6 657.297 441.9 657.297 440.3C657.297 393.4 657.195 346.4 657.297 299.5C656.992 283.1 657.195 266.7 657.195 250.3C657.195 248.2 657.297 246.4 658.721 244.9Z" fill="#E74F4F"/>
<path d="M658.721 244.9C658.721 263.2 658.721 281.6 658.721 299.9C656.89 301.5 654.551 301.2 652.415 301.2C606.54 301.2 560.666 301.3 514.791 301.2C499.025 301.2 485.802 289.2 484.683 273.7C484.378 269.7 483.055 268.2 478.885 268.2C463.526 268.4 448.065 268.1 432.705 268.3C415.922 268.6 399.545 281.8 394.46 298.6C393.646 301.2 393.239 303.8 392.527 306.4C391.815 308.5 391.917 310.7 391.917 312.8C391.917 487.6 391.815 662.4 392.018 837.1C392.018 885.5 392.222 934 392.12 982.4C392.018 1011.9 392.12 1041.3 392.018 1070.8C392.018 1073.1 391.815 1075.5 392.425 1077.7C394.561 1091.4 400.868 1102.5 413.074 1110C419.787 1114.2 427.111 1116.5 435.146 1116.5C449.489 1116.5 463.933 1116.5 478.275 1116.5C478.885 1116.5 479.495 1116.4 480.105 1116.4C508.485 1116.3 536.762 1116.2 565.141 1116.4C571.041 1116.3 576.94 1116.2 582.84 1116.4C613.05 1116.1 643.362 1116.3 673.572 1116.3C702.663 1116.4 731.754 1116.6 760.947 1116.3C782.816 1116.1 801.532 1096.7 801.736 1074.4C801.939 1047.8 801.736 1021.2 801.736 994.5C801.736 992.5 801.736 990.5 801.837 988.5C801.43 962.2 801.736 935.9 801.736 909.6C801.736 886.5 801.532 863.3 801.837 840.2C801.532 837 801.736 833.9 801.736 830.7C801.736 737 801.736 643.4 801.736 549.7C801.736 546.5 801.634 543.4 801.939 540.2C802.142 538.5 802.651 536.9 803.973 535.8C809.568 530.9 815.671 526.4 821.57 521.9C823.198 520.7 825.131 520.5 825.843 523.1C826.249 525.6 826.148 528.1 826.148 530.6C826.148 664.3 826.656 797.9 825.843 931.6C825.537 980.2 825.741 1028.7 825.232 1077.3C825.232 1078.1 825.232 1079 825.029 1079.8C822.181 1112.8 793.496 1139.6 759.726 1139.6C651.397 1139.8 543.068 1139.7 434.74 1139.6C423.754 1139.6 413.379 1136.6 403.818 1131.2C401.783 1130.1 399.647 1129.2 397.613 1128.1C396.494 1126.6 394.256 1127.1 393.036 1125.7C380.219 1115.8 372.794 1102.7 369.234 1087.3C368.115 1082.2 367.81 1077.1 367.81 1071.9C367.81 818.7 367.81 565.6 367.81 312.4C367.81 293.5 374.421 277.3 387.644 263.6C388.967 262.4 390.391 261.3 392.12 260.7C401.478 254.1 411.243 248.3 422.737 246.1C427.721 245.2 432.705 244.6 437.791 244.6C511.231 244.9 584.976 244.9 658.721 244.9Z" fill="black"/>
<path d="M394.561 1126.1C395.884 1126.4 397.002 1127 397.308 1128.4C385.305 1128.4 373.302 1128.4 361.198 1128.6C357.841 1128.7 356.01 1127.8 356.519 1124.2C356.621 1123.2 356.519 1122.2 356.519 1121.2C356.519 836.8 356.519 552.4 356.519 268.1C356.519 259.9 355.604 260.9 363.741 260.9C372.997 260.9 382.355 261.1 391.611 261.2C391.103 262.3 390.391 263.2 389.272 263.8C381.847 265.3 374.421 264.4 366.996 264.6C361.096 264.8 360.588 265.2 360.486 270.9C360.486 272.6 360.486 274.2 360.486 275.9C360.486 555 360.486 834 360.486 1113.1C360.486 1125.9 359.672 1124.3 372.387 1124.7C379.812 1124.7 387.339 1123.1 394.561 1126.1Z" fill="#5882AE"/>
<path d="M1450.89 802.5C1450.89 801.7 1450.89 801 1450.89 800.2C1463.81 800.2 1476.63 800.3 1489.55 800.2C1493.01 800.2 1494.43 801.2 1494.23 804.7C1494.02 810.7 1494.12 816.7 1494.23 822.7C1494.23 825.5 1493.21 826.5 1490.36 826.5C1482.02 826.4 1473.78 826.6 1465.44 826.4C1462.59 826.3 1461.37 827.3 1461.78 830.1C1461.88 831.2 1461.78 832.4 1461.78 833.6C1461.78 929.6 1461.78 1025.7 1461.78 1121.7C1461.78 1128.9 1461.78 1128.9 1454.25 1128.9C1443.27 1128.9 1432.28 1128.9 1421.19 1128.9C1422.82 1127.7 1424.45 1126.4 1426.08 1125.2C1434.31 1124 1442.66 1124.8 1450.89 1124.5C1456.49 1124.3 1457 1123.9 1457.1 1118.5C1457.2 1116 1457.1 1113.5 1457.1 1111C1457.1 1020.7 1457.1 930.3 1457.1 840C1457.1 839 1457 838 1457.1 837C1457.81 831.8 1456.39 828 1450.79 826.5C1450.79 825.7 1450.79 825 1450.79 824.2C1452.83 822.5 1455.27 822.9 1457.61 822.8C1466.36 822.7 1475.21 822.7 1483.95 822.8C1488.02 822.9 1489.75 821.4 1489.65 817.3C1489.34 801.8 1491.48 804.1 1476.32 803.9C1469.92 803.8 1463.51 803.9 1457.1 803.9C1454.96 803.9 1452.73 804.1 1450.89 802.5Z" fill="#688EB6"/>
<path d="M824.723 1080C824.723 1075.9 824.723 1071.7 824.723 1067.6C824.723 886.9 824.723 706.2 824.723 525.5C824.723 524.2 824.723 522.8 824.622 521.5C824.723 520.1 825.334 520.4 826.046 521.1C826.961 523 826.758 525 826.859 526.9C826.859 528.1 826.859 529.3 826.859 530.5C827.164 551.7 827.164 572.9 826.859 594C826.859 595 826.859 595.9 826.859 596.9C827.164 621 826.961 645 826.961 669.1C826.554 675.1 826.859 681.1 826.859 687.1C826.758 689 826.859 690.9 826.859 692.8C826.758 708.5 827.368 724.2 826.961 740C826.961 741 827.063 741.9 826.961 742.9C827.368 754 827.165 765.2 827.165 776.3C827.165 821.7 827.266 867.1 827.165 912.5C826.859 914 827.164 915.6 827.063 917.1C827.164 922 827.063 927 827.165 931.9C827.165 933.8 826.859 935.9 828.995 937.2C831.131 938.1 833.369 937.7 835.505 937.7C885.855 937.7 936.104 937.7 986.454 937.8C989.2 937.8 992.252 937 994.693 939.3C994.896 940.9 995.303 942.6 995.303 944.2C995.405 989.1 995.405 1034 995.405 1079C995.405 1079.3 995.303 1079.6 995.201 1080C993.879 1077.8 994.489 1075.5 994.388 1073.2C994.388 1031.1 994.286 989 994.489 946.8C994.489 941.8 993.065 940.9 988.285 940.9C935.595 941.1 882.906 941.1 830.216 940.9C826.452 940.9 825.537 941.6 825.537 945.4C825.639 988 825.639 1030.6 825.537 1073.2C825.537 1075.5 826.147 1077.9 824.723 1080Z" fill="#5881AE"/>
<path d="M1450.89 372.8C1450.89 371.8 1450.89 370.7 1450.89 369.7C1494.43 398.4 1495.35 457.3 1452.73 486C1452.22 486.4 1451.51 486.6 1450.89 486.8C1450.89 485.7 1450.79 484.7 1450.79 483.6C1456.29 478.4 1462.19 473.7 1466.86 467.7C1476.22 455.8 1479.99 442.3 1479.99 427.2C1479.88 407.9 1471.95 392.5 1458.22 379.5C1455.78 377.3 1452.42 376 1450.89 372.8Z" fill="#5C85B1"/>
<path d="M925.525 262.9C925.525 262.2 925.525 261.4 925.525 260.7C954.413 260.7 983.301 260.7 1012.19 260.8C1014.02 260.8 1015.85 260.9 1017.78 261C1017.27 261.9 1016.66 262.8 1015.54 263C1013.51 264.3 1011.17 264.5 1008.73 264.5C983.097 264.5 957.464 264.5 931.832 264.5C929.492 264.4 927.255 264.6 925.525 262.9Z" fill="#5881AE"/>
<path d="M1464.52 595.6C1470.83 590.2 1477.14 584.8 1483.44 579.4C1483.95 579 1484.56 578.6 1485.28 579.1C1485.99 579.6 1485.89 580.3 1485.28 580.8C1478.87 586.3 1472.46 591.8 1466.05 597.3C1465.64 596.7 1465.14 596.1 1464.52 595.6Z" fill="#648BB4"/>
<path d="M1016.77 840.6C1016.66 838.8 1016.66 836.9 1016.66 835.1C1016.66 661 1016.66 486.8 1016.66 312.7C1016.66 285.9 1035.99 266.7 1063.15 266.7C1077.9 266.7 1092.65 266.8 1107.4 266.6C1110.45 266.6 1111.26 267.2 1111.36 270.4C1111.77 288 1124.28 300.1 1142.08 300.1C1195.58 300.2 1249.09 300.2 1302.69 300.1C1320.29 300.1 1332.7 288.4 1333.51 271.1C1333.72 267.2 1334.94 266.6 1338.5 266.7C1352.94 266.9 1367.28 266.8 1381.73 266.8C1408.17 266.8 1426.48 283.2 1428.92 309C1428.92 484.6 1428.92 660.2 1428.92 835.7C1428.92 841.1 1428.52 841.9 1423.53 841.9C1400.85 842.1 1378.17 842.1 1355.48 841.9C1354.26 841.9 1353.14 841.7 1352.03 841.3C1349.89 840.3 1349.69 838.1 1349.38 836.2C1341.75 797.6 1331.17 759.7 1321.41 721.7C1320.29 717.2 1320.09 713.1 1322.12 708.6C1324.56 703.4 1324.77 697.9 1324.56 692C1324.05 677.1 1322.93 662.1 1322.02 647.2C1320.8 627 1319.88 606.7 1318.46 586.5C1317.85 578.6 1317.04 570.6 1317.24 562.6C1317.65 539.7 1301.98 526.5 1283.57 526.8C1282.86 526.8 1282.25 526.6 1281.54 526.5C1277.67 525.5 1273.81 526.1 1269.94 525.9C1264.45 525.7 1263.43 524.8 1263.12 519.6C1263.02 517.3 1263.12 515 1263.12 512.7C1263.02 508.8 1264.65 506.4 1268.72 505.8C1277.06 504.5 1283.06 499.9 1286.82 492.7C1297.91 471.4 1297.1 450 1285.81 429C1278.28 415 1265.57 409.6 1250 407.9C1236.37 406.4 1222.84 406.9 1209.52 409.2C1193.04 412.1 1181.24 420.7 1177.48 437.8C1174.94 449.7 1172.29 461.6 1172.39 473.8C1172.49 478.7 1173.41 483.4 1175.34 487.9C1180.43 499.6 1190.6 503.9 1202.81 499.7C1205.04 498.9 1207.08 497.6 1209.52 497.4C1215.83 498.3 1221.83 500.7 1228.13 501.7C1230.98 502.2 1232.3 504.3 1232.41 507.1C1232.61 511.4 1232.61 515.7 1232.41 520C1232.2 524.7 1231.08 525.6 1226.2 525.8C1218.67 526.1 1211.05 525.3 1203.52 526.3C1198.23 526.5 1193.65 529.5 1188.36 529.7C1186.84 528.4 1186.53 526.5 1185.82 524.7C1182.26 514.7 1177.68 511.3 1166.8 510.8C1161.41 510.6 1156.02 510.6 1150.63 510.8C1138.01 511.4 1129.26 520.1 1128.65 532.4C1128.55 534.2 1128.65 536.1 1127.84 537.8C1127.23 539 1126.21 539.9 1125.3 540.9C1121.94 544.9 1121.74 548.3 1125.6 551.8C1128.96 554.8 1129.98 558.3 1129.77 562.4C1129.27 570 1130.69 577.6 1128.96 585.1C1128.04 586.4 1126.52 586.7 1125.09 587.2C1117.67 589.7 1116.55 591.3 1116.45 598.8C1116.45 599.9 1116.45 601.1 1116.45 602.2C1116.35 604 1116.45 605.8 1116.04 607.6C1115.23 611.5 1113.7 615.1 1111.06 618.2C1109.63 619.6 1109.63 621.3 1110.04 623.1C1109.53 630.3 1111.87 636.3 1117.26 641.2C1118.18 642 1118.79 643 1119.09 644.1C1121.03 658.3 1121.33 672.7 1122.45 687C1122.86 692.4 1123.77 697.8 1124.08 703.2C1122.65 709.4 1119.91 715.3 1120.31 722.1C1121.03 734.2 1130.28 741.9 1142.49 740.3C1146.46 739.8 1150.32 738.3 1154.49 739.1C1155 739.3 1155.51 739.6 1155.81 740C1156.42 742.2 1155.71 744.3 1155.1 746.4C1147.17 776.3 1139.03 806.2 1131.4 836.2C1130.89 838.2 1130.28 840.1 1128.04 840.9C1125.6 841.7 1123.06 841.5 1120.52 841.5C1088.58 841.5 1056.64 841.5 1024.7 841.5C1022.26 841.9 1019.31 842.5 1016.77 840.6Z" fill="#ECE9E9"/>
<path d="M1351.42 840.4C1375.93 840.5 1400.54 840.5 1425.06 840.6C1427.6 840.6 1428.82 839.8 1428.62 837.2C1428.52 835.7 1428.62 834.2 1428.62 832.7C1428.62 658.4 1428.52 484.1 1428.52 309.8C1428.52 309.5 1428.72 309.2 1428.72 308.9C1428.82 310.7 1429.13 312.5 1429.13 314.3C1429.13 488.1 1429.13 662 1429.13 835.8C1429.13 913.9 1429.13 992 1429.13 1070.1C1429.13 1072.6 1429.53 1075.1 1428.62 1077.5C1425.97 1075.4 1426.69 1072.3 1426.69 1069.6C1426.58 1047 1426.69 1024.4 1426.69 1001.7C1426.69 1000.2 1426.58 998.7 1426.69 997.2C1426.99 993.1 1425.06 991.7 1420.99 991.7C1407.67 991.8 1394.24 991.8 1380.91 991.7C1378.07 991.7 1375.12 991.8 1372.27 991.4C1368.71 990.8 1365.15 990.7 1361.59 990.7C1281.64 990.7 1201.69 990.7 1121.74 990.7C1118.48 990.7 1115.33 990.7 1112.07 991.3C1109.23 991.8 1106.38 991.7 1103.43 991.7C1077.19 991.7 1050.94 991.7 1024.7 991.7C1021.95 991.7 1018.9 992.3 1016.66 989.8C1016.66 941 1016.56 892.2 1016.56 843.5C1016.56 842.5 1016.66 841.5 1016.66 840.5C1052.57 840.5 1088.48 840.5 1124.48 840.5C1126.21 840.5 1127.84 840.4 1129.57 840.3C1131.5 838.5 1133.94 838.7 1136.28 838.7C1205.76 838.7 1275.13 838.7 1344.6 838.7C1347.04 838.7 1349.38 838.8 1351.42 840.4Z" fill="#E98F27"/>
<path d="M925.525 262.9C955.532 262.9 985.539 262.9 1015.44 262.9C1009.54 269.3 1004.25 276.1 1000.39 283.9C998.355 285.4 995.914 285.2 993.574 285.2C981.673 285.2 969.874 285.3 957.973 285.2C954.311 285.2 952.887 286.3 952.887 290.1C952.989 331.5 952.989 373 952.887 414.4C952.887 418.1 954.311 419.4 957.973 419.4C967.941 419.3 977.91 419.3 987.98 419.4C990.116 419.4 992.455 419.1 994.184 420.8C995.303 427.9 994.591 435 994.591 442.2C994.591 445.6 991.438 445.1 989.2 445.2C979.334 445.3 969.569 445.2 959.702 445.3C952.989 445.3 952.989 445.3 952.989 451.9C953.091 537.8 952.989 623.7 952.989 709.6C952.989 775.5 952.989 841.5 952.887 907.4C952.887 915.2 952.175 915.9 944.14 915.9C941.088 915.9 938.037 916 934.985 915.9C930.001 915.7 928.882 914.6 928.679 909.5C928.577 907.5 928.679 905.5 928.679 903.5C928.679 753.8 928.679 604.1 928.679 454.5C928.679 451.9 929.187 449.2 928.068 446.6C926.136 444.6 923.593 445.3 921.355 445.3C891.857 445.2 862.461 445.3 832.963 445.3C824.52 445.3 824.012 444.9 824.012 436.6C824.012 433.3 824.012 429.9 824.012 426.6C824.113 420.6 825.029 419.6 831.03 419.5C839.981 419.4 848.932 419.5 857.985 419.5C879.346 419.5 900.605 419.5 921.965 419.5C928.374 419.5 928.679 419.2 928.679 413.1C928.679 372.5 928.679 331.9 928.78 291.3C928.78 288.2 928.17 285.8 925.424 284C925.525 276.8 925.525 269.9 925.525 262.9Z" fill="#FEFEFE"/>
<path d="M1016.77 989.9C1048.5 990 1080.34 990 1112.07 990.1C1114.72 993.5 1113.8 997.4 1113.3 1001.1C1112.38 1007.5 1112.89 1014 1112.68 1020.4C1112.58 1024.2 1114.31 1025.2 1117.97 1024.9C1123.16 1024.4 1128.35 1024.8 1133.54 1024C1135.88 1023.6 1138.32 1023.5 1140.15 1025.4C1141.57 1027.9 1141.27 1030.6 1141.27 1033.2C1141.27 1054.8 1141.27 1076.5 1141.27 1098.1C1141.27 1102.6 1141.27 1107.1 1141.98 1111.5C1142.39 1113.8 1142.39 1116.2 1140.45 1118.1C1132.83 1118.2 1125.3 1118.4 1117.67 1118.4C1099.36 1118.4 1081.15 1118.5 1062.84 1118.4C1035.99 1118.3 1016.56 1099.1 1016.56 1072.7C1016.66 1045.1 1016.66 1017.5 1016.77 989.9Z" fill="#ECE9E9"/>
<path d="M1372.37 990.1C1389.97 990 1407.56 990 1425.06 989.8C1428.72 989.8 1428.62 991.8 1428.62 994.3C1428.52 1021.6 1428.52 1048.8 1428.52 1076.1C1428.52 1076.6 1428.62 1077.1 1428.72 1077.6C1426.48 1100.8 1408.58 1117.6 1384.98 1118.4C1379.39 1118.6 1373.89 1118.3 1368.3 1118.2C1362.1 1111.6 1357.93 1103.5 1353.04 1096C1336.56 1070.3 1319.78 1044.8 1303.4 1019C1302.08 1017 1299.34 1015 1302.18 1012.1C1307.27 1010 1312.76 1010.4 1318.15 1009.8C1333.61 1008.1 1349.08 1006.9 1364.54 1005.3C1372.27 1004.5 1372.27 1004.3 1371.35 996.7C1371.05 994.4 1370.54 992.1 1372.37 990.1Z" fill="#ECE9E9"/>
<path d="M994.286 445.7C994.49 447.3 994.693 449 994.693 450.6C994.693 530.1 994.693 609.6 994.693 689C994.693 690.5 994.49 692 994.286 693.4C990.523 695.8 986.352 694.6 982.385 694.7C978.825 694.8 976.994 695.9 977.401 699.7C977.503 701 977.503 702.4 977.401 703.7C977.096 708.3 975.875 709.6 971.298 709.8C966.924 710 962.55 709.8 958.075 709.8C954.006 709.8 952.175 708 952.48 703.9C952.582 702.7 952.48 701.6 952.48 700.4C952.48 618.3 952.48 536.1 952.48 454C952.48 452.2 952.379 450.3 952.582 448.5C952.786 446.2 954.006 444.7 956.447 444.6C968.653 444.5 980.758 444.1 992.964 444.8C993.473 445 993.879 445.5 994.286 445.7Z" fill="#FEFEFE"/>
<path d="M1301.27 1013.1C1310.73 1028 1320.19 1042.9 1329.75 1057.8C1341.75 1076.5 1353.86 1095 1365.86 1113.7C1366.77 1115.1 1367.39 1116.7 1368.1 1118.2C1348.87 1118.3 1329.65 1118.4 1310.53 1118.5C1301.27 1118.5 1292.01 1118.3 1282.76 1118.2C1280.82 1117.1 1279.4 1115.5 1278.28 1113.6C1268.21 1097.1 1257.73 1080.8 1247.56 1064.3C1240.65 1053.3 1235.97 1041.4 1232.41 1029.1C1231.39 1025.5 1229.76 1022.4 1228.34 1019C1229.25 1018.2 1230.47 1018 1231.59 1017.9C1252.75 1016.3 1273.91 1014 1295.06 1011.9C1297.2 1011.6 1299.54 1011.5 1301.27 1013.1Z" fill="#FD9993"/>
<path d="M1140.45 1118.1C1138.93 1087.2 1140.05 1056.2 1139.74 1025.3C1143.61 1022.6 1148.08 1022.9 1152.35 1022.7C1167.92 1021.9 1183.38 1020.9 1198.84 1019.9C1203.62 1019.6 1208.6 1018.5 1213.18 1021.2C1214.61 1023.4 1214.4 1026 1214.4 1028.5C1214.4 1055.9 1214.4 1083.2 1214.4 1110.6C1214.4 1113.2 1214.71 1116 1212.77 1118.2C1188.67 1118.5 1164.56 1118.6 1140.45 1118.1Z" fill="#FD9993"/>
<path d="M999.271 285.9C997.846 292.3 995.202 298.3 995.1 305C994.49 306.8 994.795 308.6 994.795 310.4C994.795 344.7 994.795 378.9 994.795 413.2C994.795 419.7 994.795 419.7 987.98 419.7C978.113 419.7 968.348 419.7 958.482 419.7C952.989 419.7 952.582 419.3 952.582 414.1C952.582 373 952.582 331.9 952.582 290.8C952.582 285.8 953.498 284.8 958.38 284.8C970.586 284.7 982.792 284.8 994.897 284.8C996.422 284.8 998.05 284.6 999.271 285.9Z" fill="#FEFEFE"/>
<path d="M994.286 445.7C982.283 445.8 970.281 445.9 958.278 445.8C954.718 445.8 953.701 446.9 953.701 450.3C953.803 534.9 953.803 619.6 953.701 704.2C953.701 707.7 954.82 708.8 958.278 708.6C962.957 708.3 967.738 708.4 972.518 708.6C975.468 708.7 976.18 707.6 976.282 704.9C976.689 693.4 976.791 693.4 988.793 693.4C990.624 693.4 992.557 693.4 994.388 693.5C994.388 694.1 994.388 694.8 994.286 695.4C991.54 697.6 988.183 696.8 985.03 696.8C980.961 696.8 980.452 699.1 980.452 702.3C980.351 705.7 981.876 706.9 985.233 707C992.048 707.1 992.455 706.9 992.76 700.5C992.862 698.7 992.862 696.8 994.286 695.4C996.626 701.7 995.1 708.1 995.1 714.4C995.303 780.1 995.303 845.8 995.1 911.5C995.1 920.7 996.219 930 994.49 939.3C938.443 939.3 882.397 939.2 826.453 939.2C826.758 936.9 828.69 937 830.318 936.8C832.454 936.5 834.692 936.6 836.93 936.6C885.855 936.6 934.781 936.6 983.707 936.6C992.659 936.6 992.659 936.6 992.659 927.7C992.659 918.8 992.659 918.8 983.707 918.8C933.968 918.8 884.126 918.8 834.387 918.8C831.437 918.8 828.284 919.4 825.639 917.3C825.639 915.9 825.639 914.6 825.639 913.2C828.08 912.2 830.623 912.8 833.166 912.7C842.422 912.4 849.034 906.5 850.153 897.4C850.356 895.6 850.356 893.7 850.356 891.9C850.356 845.6 850.356 799.4 850.356 753.1C850.356 751.8 850.356 750.4 850.254 749.1C850.254 746.2 848.729 745 845.779 744.9C841.202 744.9 836.624 745 832.047 744.8C829.708 744.7 827.266 744.8 825.639 742.6C825.639 741.8 825.639 740.9 825.537 740.1C828.792 738.8 829.708 736.6 829.301 733.1C827.673 719.8 826.453 706.5 825.944 693.1C825.842 691.3 826.249 689.4 825.639 687.6C825.639 681.4 825.639 675.1 825.741 668.9C828.589 670.5 828.283 673.5 828.589 676C830.216 690 831.538 704.1 833.064 718.2C833.675 723.8 834.183 729.5 835.099 735.1C835.404 736.8 835.811 738.4 838.048 738.5C840.083 738.6 841.202 737.5 841.914 735.8C842.626 734.1 843.033 732.3 843.439 730.5C853.103 690.7 862.867 650.9 872.836 611.1C873.242 609.3 873.446 607.5 874.056 605.7C875.48 601.5 874.667 598.7 870.496 596.1C864.495 592.4 862.257 586.3 863.579 579.6C865.105 571.9 867.038 564.3 869.682 556.9C872.124 550.2 877.21 545.9 884.126 544C887.788 543 890.534 541.7 891.959 537.9C893.179 534.4 896.027 532.6 899.994 533.7C903.453 534.7 905.283 537.8 904.266 542.1C903.351 546 904.978 547.6 908.437 548.6C914.133 550.4 918.914 553.3 921.151 559.2C921.863 561.1 922.677 563.2 921.151 564.9C919.524 566.6 917.693 565 916.065 564.3C912.302 562.4 910.268 564.2 908.945 567.4C907.216 571.8 906.402 576.4 905.385 580.9C903.147 591.1 897.146 597.6 886.567 599.2C881.787 599.9 880.159 602.4 879.142 606.6C868.869 648.7 858.595 690.8 848.118 732.8C847.305 736.1 847 738.7 851.577 739.1C854.018 739.3 854.832 741.2 855.137 743.3C855.442 745.5 855.34 747.6 855.34 749.8C855.34 796.1 855.34 842.4 855.34 888.6C855.34 896.9 855.442 905 848.932 911.4C850.763 913.1 852.594 912.5 854.12 912.5C875.48 912.5 896.841 912.5 918.1 912.5C926.339 912.5 926.339 912.5 926.339 904.5C926.339 833.2 926.339 762 926.339 690.7C926.339 613.3 926.339 535.9 926.339 458.5C926.339 457.2 926.339 455.8 926.339 454.5C926.339 447 926.237 446.9 918.812 446.9C909.962 446.9 901.215 446.9 892.365 446.9C872.734 446.9 853.103 446.9 833.471 446.9C830.928 446.9 827.978 447.7 826.046 444.9C826.758 443.5 828.08 443.9 829.199 443.9C861.85 443.9 894.603 443.9 927.254 443.9C928.068 443.9 928.984 443.9 929.696 444.4C929.797 446.6 930.001 448.7 930.001 450.9C930.001 603.2 930.001 755.6 930.001 907.9C930.001 914.3 930.001 914.3 936.511 914.3C940.376 914.3 944.343 914.2 948.208 914.3C950.344 914.3 951.361 913.6 951.158 911.4C951.056 909.9 951.158 908.4 951.158 906.9C951.158 754.6 951.158 602.2 951.158 449.9C951.158 443.4 951.158 443.4 957.668 443.4C968.552 443.4 979.334 443.3 990.217 443.5C993.065 443.5 994.083 442.7 993.981 439.9C993.777 433.4 993.879 426.9 993.879 420.4C995.913 429 995.71 437.4 994.286 445.7Z" fill="#5882AE"/>
<path d="M1212.77 1118.1C1212.77 1085.7 1212.77 1053.3 1212.77 1021C1217.76 1016.8 1223.05 1018.5 1228.44 1019.9C1230.37 1020.1 1231.8 1020.3 1232.3 1022.8C1236.17 1041.3 1244.71 1057.8 1254.89 1073.6C1264.35 1088.3 1273.6 1103.2 1282.86 1118.1C1259.46 1118.6 1236.07 1118.6 1212.77 1118.1Z" fill="#ECE9E9"/>
<path d="M1450.89 826.5C1451.2 826.5 1451.61 826.5 1451.91 826.5C1460.56 826.4 1459.03 826 1459.03 833.2C1459.03 928.7 1459.03 1024.2 1459.03 1119.7C1459.03 1126.1 1459.03 1126.1 1452.52 1126.1C1445.2 1126.1 1437.98 1126.1 1430.65 1126.1C1429.03 1126.1 1427.19 1126.8 1425.97 1125.2C1442.76 1111 1450.79 1093.1 1450.69 1071.2C1450.49 991.5 1450.59 911.7 1450.59 832C1450.69 830.1 1450.79 828.3 1450.89 826.5Z" fill="#FEFEFE"/>
<path d="M1450.79 474.6C1450.79 443.7 1450.79 412.8 1450.89 381.8C1457.3 383.4 1460.56 388.7 1464.02 393.4C1469.92 401.4 1473.48 410.5 1475 420.4C1476.02 427.2 1474.8 428.6 1467.78 428.6C1466.25 428.6 1464.73 428.7 1463.81 428.6C1465.54 428.7 1467.78 428.7 1470.12 428.6C1474.29 428.3 1475.61 430.6 1475.21 434.2C1473.48 449.6 1466.86 462.8 1455.17 473.3C1454.05 474.5 1452.73 475.8 1450.79 474.6Z" fill="#FEFEFE"/>
<path d="M1450.9 802.5C1463.1 802.5 1475.21 802.6 1487.41 802.4C1490.46 802.4 1491.58 803.2 1491.48 806.3C1491.28 810.9 1491.28 815.6 1491.48 820.2C1491.58 823.3 1490.56 824.2 1487.41 824.1C1475.21 824 1463.1 824.1 1450.9 824.1C1450.9 817 1450.9 809.7 1450.9 802.5Z" fill="#FEFEFE"/>
<path d="M1450.9 372.8C1468.29 383.4 1478.16 399.2 1480.9 418.7C1484.36 443.4 1476.02 464.2 1456.49 480.5C1454.86 481.9 1453.34 483.6 1450.9 483.7C1450.9 482 1450.9 480.3 1450.9 478.6C1452.01 475.7 1454.56 473.8 1456.79 471.8C1482.22 448.2 1481.72 406.2 1454.46 382.8C1453.03 381.6 1451.51 380.5 1451 378.6C1450.9 376.7 1450.9 374.8 1450.9 372.8Z" fill="#FDFDFE"/>
<path d="M999.27 285.9C985.945 286 972.519 286.1 959.194 286C955.125 285.9 953.701 286.8 953.701 291.2C953.904 332.1 953.904 373 953.701 413.9C953.701 417.9 954.82 419 958.787 418.9C969.06 418.6 979.435 418.6 989.709 418.9C993.676 419 994.388 417.7 994.388 414.1C994.286 379.8 994.286 345.6 994.286 311.3C994.286 309.2 993.778 307 995.1 305C995.1 342.2 995.202 379.3 995.202 416.5C995.202 418 994.998 419.5 994.184 420.8C981.165 420.9 968.145 420.9 955.125 421.1C951.666 421.2 951.463 419.4 951.463 416.8C951.565 403.7 951.463 390.5 951.463 377.4C951.463 348 951.565 318.6 951.361 289.1C951.361 285 952.378 283.8 956.651 283.8C971.196 284.1 985.742 283.9 1000.29 283.9C1000.39 284.8 1000.08 285.5 999.27 285.9Z" fill="#5982AF"/>
<path d="M1450.9 378.7C1483.44 402.9 1485.38 448.1 1455.07 475C1453.64 476.2 1452.32 477.4 1450.9 478.6C1450.9 477.3 1450.9 476 1450.9 474.7C1458.83 470 1463.81 462.7 1467.98 454.9C1471.34 448.5 1473.07 441.6 1474.09 434.5C1474.6 431 1473.88 429.3 1469.71 429.6C1465.95 429.9 1461.88 430.3 1458.22 428.6C1462.08 426.8 1466.05 427.5 1469.92 427.5C1473.07 427.5 1474.59 426.9 1474.19 423.4C1472.15 406.5 1465.03 392.3 1451 381.9C1450.9 380.8 1450.9 379.7 1450.9 378.7Z" fill="#5C85B0"/>
<path d="M391.306 305.9C393.951 284.1 411.446 267.6 433.621 266.7C449.895 266.1 466.068 266.6 482.343 266.4C485.09 266.4 485.903 267.3 485.7 269.9C484.886 285.4 498.415 300.4 518.555 300.1C565.243 299.5 612.033 299.9 658.721 299.9C658.823 331.7 658.823 363.4 658.924 395.2C658.924 410.7 658.924 426.1 658.924 441.6C658.924 444.1 658.823 446.7 661.874 447.9C664.926 449 666.553 447 668.282 445.2C682.319 430.6 696.356 416 710.393 401.3C711.817 399.8 713.14 398.6 715.479 398.6C744.774 398.7 773.967 398.8 803.261 398.8C804.482 400.1 804.787 401.8 804.787 403.5C804.787 426.3 805.194 449.1 804.583 471.9C804.482 473.1 804.177 474.3 803.261 475.1C796.853 480.8 789.631 485.5 782.511 490.2C780.273 491.7 778.951 490.6 779.358 488C779.764 485 780.68 482.2 781.392 479.3C782.816 473.5 780.985 469.6 776.509 468.5C772.746 467.7 770 470 768.27 475.5C765.422 484.7 762.778 494 759.929 503.2C759.116 505.9 758.099 508.5 756.471 510.9C743.858 529.2 731.754 547.8 719.344 566.2C718.734 567.2 718.022 568.1 717.005 568.8C716.395 569 715.581 569.2 715.072 568.8C711.512 566.6 709.579 568.4 707.749 571.2C703.171 577.8 698.187 584.1 693.508 590.7C689.846 595.9 688.524 596 683.438 592.1C664.01 577.5 646.311 561.1 629.426 543.9C628.002 542.5 626.782 540.9 625.561 539.2C617.22 527 605.319 521.4 590.774 520.9C583.348 520.7 575.923 520.7 568.396 521C565.039 520.9 561.581 521.6 558.428 520.1C555.478 513.6 556.902 506.8 557.41 500.1C557.614 497.6 560.36 497.2 562.496 496.7C567.277 495.7 572.058 494.5 576.635 492.9C589.655 488.3 596.572 479.2 597.385 465.7C597.487 464.2 597.487 462.7 597.996 461.3C598.708 459.6 600.233 458.9 601.759 458.1C607.964 454.8 611.321 449.8 610.71 442.8C610.1 435.7 605.828 431.5 599.216 429.1C598.402 428.8 597.589 428.5 596.877 428.1C593.418 425.6 593.724 421.7 593.215 418.2C592.198 411 591.384 403.7 585.383 398.2C581.416 394.5 576.839 392.5 571.346 392.3C553.24 391.7 535.236 393.1 517.13 393.5C508.281 393.7 501.873 399.4 500.347 408.1C498.821 416.7 499.33 425.3 500.042 433.9C499.025 445.6 498.415 457.4 497.092 469.1C495.973 478.3 492.718 486.8 487.836 494.8C487.022 496.1 486.208 497.3 485.598 498.7C482.547 504.6 485.191 508.8 492.006 508C500.754 507 509.603 507.6 518.351 507.4C520.487 507.4 522.827 507.2 524.759 508.6C526.692 511.9 526.082 515.4 525.471 518.8C525.268 519.3 524.963 519.8 524.556 520.2C521.199 521.8 517.639 520.8 514.181 521.4C512.146 521.3 510.112 522.6 508.078 521.9C490.684 520.9 473.087 519.1 457.016 528.2C442.775 536.2 433.722 547.2 434.638 564.4C435.452 580 436.469 595.6 437.384 611.2C438.198 624.3 438.91 637.4 439.724 650.5C440.639 665.8 441.351 681 442.572 696.3C443.08 702.3 442.775 708.3 443.589 714.2C445.216 725.9 451.625 733.6 463.322 736C474.104 738.2 473.392 738.1 471.866 748.5C467.594 777.2 463.525 805.9 459.05 834.5C458.643 837.1 458.541 839.9 455.795 841.4C453.862 842.2 451.828 842.1 449.794 842.2C432.705 842.2 415.617 842.3 398.528 842.2C391.408 842.2 391.001 841.8 391.001 835C391.001 660.6 391.001 486.1 391.001 311.7C391.001 309.6 390.696 307.7 391.306 305.9Z" fill="#ECE9E9"/>
<path d="M825.639 399C827.47 398.9 829.301 398.6 831.132 398.6C855.035 398.6 878.837 398.3 902.741 398.7C915.964 398.9 925.729 390 925.424 376.5C924.813 348.4 925.22 320.3 925.22 292.1C925.22 290.1 925.322 288.1 925.424 286.1C927.458 284.6 928.475 285.6 928.984 287.6C929.289 288.9 929.085 290.3 929.085 291.6C929.085 332 929.085 372.4 929.085 412.8C929.085 419.7 929.085 419.7 921.965 419.7C891.857 419.7 861.749 419.7 831.64 419.7C824.317 419.7 823.808 419.4 824.011 412C824.215 407.7 822.689 403 825.639 399Z" fill="#FEFEFE"/>
<path d="M803.261 473.4C803.261 448.5 803.16 423.6 803.16 398.7C810.382 398.5 817.603 398.2 824.825 398.9C825.13 419.3 824.622 439.7 825.741 460C825.537 461.8 824.724 463.2 822.893 463.6C817.197 464.9 812.721 468.4 808.245 471.7C806.821 472.8 805.398 474.1 803.261 473.4Z" fill="black"/>
<path d="M824.927 461.5C824.927 440.6 824.927 419.7 824.825 398.9C825.029 398.8 825.334 398.9 825.537 398.9C825.537 404.4 825.639 409.9 825.537 415.4C825.435 418 826.249 418.8 828.894 418.8C860.833 418.7 892.772 418.7 924.813 418.8C927.661 418.8 928.17 417.7 928.17 415.3C928.068 373.4 928.17 331.5 928.17 289.6C928.17 287.7 928.475 285.7 925.525 286.1C925.525 285.3 925.525 284.6 925.525 283.8C929.085 283.3 930.51 284.4 930.51 288.3C930.306 330.9 930.306 373.5 930.51 416.2C930.51 420.5 928.78 421 925.118 421C893.586 420.9 862.054 421 830.623 420.9C826.758 420.9 825.232 421.7 825.537 425.8C825.944 430.3 825.944 434.8 825.537 439.3C825.232 443.2 826.656 443.9 830.318 443.9C861.85 443.7 893.383 443.8 924.813 443.9C926.543 443.9 928.577 443 930.001 444.8C897.451 444.8 864.902 444.8 832.352 444.8C830.42 444.8 828.284 444.1 826.554 445.6C827.165 450.7 827.47 455.7 826.351 460.8C826.046 461.3 825.537 461.5 824.927 461.5Z" fill="#5A83AF"/>
<path d="M790.14 253.1C764.202 253.1 738.264 253.1 712.428 253.1C711.207 253.1 710.088 253.1 708.867 253.1C707.647 253.1 706.325 252.9 706.223 251.5C706.121 250 707.443 249.7 708.664 249.7C709.681 249.7 710.698 249.7 711.716 249.7C764.202 249.7 816.789 249.7 869.275 249.7C871.31 249.7 874.768 248.6 874.87 251.4C874.972 254.5 871.412 253.1 869.581 253.2C843.033 253.1 816.586 253.1 790.14 253.1Z" fill="#FEFEFE"/>
<path d="M774.272 318C753.42 318 732.669 318 711.817 318C710.495 318 709.071 318 707.749 317.9C706.833 317.8 706.121 317.2 706.121 316.3C706.121 315.4 706.731 314.7 707.647 314.6C708.969 314.5 710.393 314.5 711.716 314.5C753.521 314.5 795.226 314.5 837.031 314.6C838.964 314.6 842.422 313.4 842.524 316.3C842.524 319.4 839.066 318 837.235 318C816.179 318.1 795.226 318 774.272 318Z" fill="#FEFEFE"/>
<path d="M751.08 285.8C737.552 285.8 724.023 285.8 710.393 285.8C708.664 285.8 706.019 286.6 706.121 283.8C706.223 281.1 708.867 282 710.596 282C737.653 282 764.812 282 791.869 282C793.598 282 796.344 281.2 796.344 283.8C796.446 286.9 793.394 285.9 791.665 285.9C778.137 285.8 764.608 285.8 751.08 285.8Z" fill="#FDF7F7"/>
<path d="M729.008 350.7C722.599 350.7 716.191 350.7 709.783 350.7C708.257 350.7 706.325 351 706.223 349C706.019 346.5 708.257 346.8 709.885 346.8C723.108 346.8 736.23 346.8 749.453 346.8C750.979 346.8 752.911 346.6 753.115 348.6C753.318 351.1 751.08 350.7 749.453 350.7C742.536 350.7 735.721 350.7 729.008 350.7Z" fill="#FDF6F6"/>
<path d="M391.307 305.9C391.307 308.4 391.408 310.9 391.408 313.4C391.408 487 391.408 660.5 391.408 834.1C391.408 841.4 390.493 840.6 397.816 840.6C417.448 840.6 437.079 840.5 456.711 840.4C458.949 838.3 461.797 838.8 464.441 838.8C485.802 838.8 507.061 838.7 528.421 838.8C532.388 838.8 535.745 838.1 538.39 835.1C541.034 838.5 544.594 839 548.663 838.8C553.037 838.6 557.411 838.7 561.785 838.8C572.16 838.6 582.535 838.6 593.012 838.8C623.832 838.6 654.551 838.5 685.371 838.8C716.7 838.5 748.029 838.7 779.256 838.6C785.054 838.6 790.75 838.6 796.548 838.6C798.887 838.6 801.329 838.5 803.261 840.3C803.363 882 803.363 923.7 803.363 965.4C803.363 973.4 803.16 981.3 803.058 989.3C801.532 990.6 799.701 990.7 797.769 990.7C770.508 990.7 743.146 990.9 715.886 990.6C691.881 990.9 667.977 990.7 643.972 990.7C640.107 990.7 636.242 990.7 632.376 991C611.728 990.3 590.978 990.9 570.329 990.7C567.989 990.7 565.65 990.7 563.31 990.6C539.509 990.9 515.605 990.7 491.803 990.7C490.583 990.7 489.464 990.7 488.243 990.7C480.919 990.7 480.716 990.9 480.716 998.4C480.716 1035.5 480.716 1072.6 480.716 1109.6C480.716 1112.5 481.326 1115.7 478.885 1118.1H478.58L478.478 1117.9C475.834 1115.7 476.546 1112.7 476.546 1110C476.444 1073.7 476.546 1037.5 476.546 1001.2C476.546 999.7 476.546 998.2 476.546 996.7C476.342 991.2 475.935 990.7 470.341 990.7C446.844 990.6 423.348 990.6 399.749 990.7C393.951 990.7 393.443 991.2 393.443 997C393.341 1021.6 393.443 1046.2 393.341 1070.8C393.341 1073.5 393.951 1076.5 391.612 1078.8C390.188 1076.8 390.798 1074.6 390.798 1072.5C390.798 1041.9 391.001 1011.3 391.001 980.6C390.9 758.2 390.9 535.9 390.798 313.5C390.391 311.1 389.781 308.4 391.307 305.9Z" fill="#459257"/>
<path d="M803.058 840.4C763.795 840.4 724.43 840.4 685.167 840.4C683.235 838.8 682.726 836.5 682.217 834.2C677.742 815.5 673.063 796.8 668.486 778.2C667.977 776 667.265 773.7 668.689 771.5C670.825 769.6 673.368 769.9 675.911 769.9C686.388 769.8 696.865 769.9 707.342 769.9C717.005 769.8 720.158 766.7 720.158 756.7C720.26 723.8 720.158 690.9 720.158 658C720.158 655.2 720.056 652.4 720.463 649.6C723.413 642.4 729.008 636.9 733.687 630.8C740.603 621.9 747.622 613.2 754.539 604.3C756.166 602.2 757.285 600.1 756.878 597.5C757.387 595.3 758.811 593.7 760.031 591.9C770.814 576.5 781.799 561.3 792.683 545.9C795.124 542.4 797.464 538.2 802.956 538.5C803.058 539.7 803.16 540.8 803.16 542C803.16 640.5 803.16 739 803.16 837.5C803.16 838.4 803.16 839.4 803.058 840.4Z" fill="#ECE9E9"/>
<path d="M715.784 989.6C744.876 989.5 773.967 989.5 803.058 989.4C803.058 1018.9 803.668 1048.3 802.956 1077.8C802.447 1098.6 783.223 1117.5 762.269 1118C732.975 1118.6 703.68 1118.1 674.386 1118.1C673.063 1115.5 674.589 1113.2 675.301 1110.9C687.202 1076 698.391 1040.9 710.495 1006.1C711.716 1002.5 712.733 998.8 713.547 995C713.852 993 714.055 991 715.784 989.6Z" fill="#ECE9E9"/>
<path d="M715.784 989.6C713.547 1005 707.138 1019.2 702.358 1033.9C693.203 1062 683.642 1090 674.284 1118C643.667 1118 613.05 1118 582.433 1118C581.111 1115.8 582.433 1113.8 583.247 1111.8C598.606 1072.9 613.559 1033.8 628.816 994.8C629.528 992.9 630.139 991 632.173 990C632.783 989.8 633.394 989.4 634.004 989.4C661.264 989.5 688.524 989.5 715.784 989.6Z" fill="#8F3600"/>
<path d="M478.682 1118.2C478.682 1077.3 478.885 1036.3 478.682 995.4C478.682 990.1 480.309 989.1 485.192 989.2C511.231 989.5 537.271 989.5 563.412 989.5C565.04 991.3 564.836 993.5 564.938 995.6C566.362 1022.4 565.853 1049.2 566.057 1075.9C566.158 1087.5 567.481 1099.1 566.972 1110.8C566.87 1113.3 567.176 1115.8 565.243 1117.9C536.355 1118.1 507.468 1118.2 478.682 1118.2Z" fill="#8F3600"/>
<path d="M391.307 1079C391.307 1051.1 391.408 1023.1 391.307 995.2C391.307 990.9 392.12 989.2 397.003 989.3C422.229 989.6 447.454 989.5 472.579 989.3C476.952 989.3 478.275 990.2 478.275 994.8C478.071 1035.9 478.173 1076.9 478.173 1118C462.509 1118 446.743 1118.7 431.078 1117.9C410.836 1116.9 393.646 1099.5 391.307 1079Z" fill="#ECE9E9"/>
<path d="M394.561 1126.1C383.881 1126.1 373.201 1126.1 362.52 1126.2C359.774 1126.2 358.35 1125.6 358.757 1122.6C358.859 1121.5 358.757 1120.3 358.757 1119.1C358.757 836 358.757 552.9 358.757 269.8C358.757 261.8 357.74 262.8 365.775 263C373.608 263.2 381.542 262 389.374 263.7C375.337 277.7 369.03 294.4 369.03 314.1C369.132 564.3 369.234 814.4 368.827 1064.6C368.827 1089.1 375.337 1109.8 394.561 1126.1Z" fill="#FDFDFD"/>
<path d="M803.058 538.5C798.277 540.4 795.429 544.2 792.683 548.2C780.985 564.7 769.186 581.2 757.387 597.8C755.149 598.4 753.522 596.9 751.894 595.8C741.01 588 730.228 580.1 719.345 572.3C718.022 571.4 716.293 570.6 716.496 568.5C726.973 552.7 737.043 536.5 748.232 521.1C755.861 510.6 760.337 499.1 763.592 486.8C764.812 482.3 766.134 477.9 767.66 473.5C769.389 468.3 773.255 465.9 777.425 467.2C782.104 468.6 784.24 472.7 783.02 477.8C782.104 481.8 781.087 485.8 779.764 491.1C788.207 484.8 795.836 479.2 803.363 473.6C810.381 469.3 816.383 463.3 825.029 461.7C825.334 461.7 825.537 461.7 825.741 461.6C830.827 459.4 835.2 461.6 839.473 464C841.1 466.6 838.659 467.5 837.235 468.6C831.132 473 825.029 477.4 818.824 481.7C817.298 482.7 815.671 483.6 814.857 485.5C819.943 483 824.418 479.4 829.097 476.2C833.675 473.1 837.642 469.3 842.931 467.2C847.203 468.4 850.255 471.1 852.391 474.8C852.187 477 850.255 477.6 848.831 478.7C841.507 484.1 833.98 489.1 827.165 495.1C829.911 494.2 832.149 492.6 834.387 490.9C839.676 487 845.067 483.2 850.458 479.5C851.984 478.5 853.408 477.3 855.442 477.2C864.393 478.8 866.428 491.7 859.511 496.6C848.831 504 838.557 511.8 828.589 520C827.775 520.6 826.86 521.1 825.842 521.1C825.537 521.3 825.232 521.5 825.029 521.7C817.095 526.7 809.873 532.3 803.058 538.5Z" fill="#FD9993"/>
<path d="M565.243 1118.1C564.633 1075.3 564.022 1032.4 563.412 989.6C585.18 989.6 607.049 989.5 628.816 989.5C629.935 989.5 631.156 989.9 632.274 990.1C615.695 1032.8 599.115 1075.4 582.535 1118.1C576.737 1118.1 570.939 1118.1 565.243 1118.1Z" fill="#ECE9E9"/>
<path d="M825.537 520.9C834.692 512.3 844.66 504.8 855.035 497.8C864.8 491.2 865.105 483.4 855.137 477.6C853.916 476.8 852.899 475.8 851.882 474.7C848.932 472.3 846.389 469.4 843.033 467.6C841.914 466.8 840.795 466 839.879 464.9C835.404 462.8 830.623 461.8 825.741 461.4C826.148 456.1 824.724 450.7 826.554 445.5C828.589 445.6 830.623 445.9 832.556 445.9C862.562 445.9 892.569 446 922.474 445.8C926.644 445.8 928.271 446.3 928.271 451.1C928.068 603.8 928.17 756.5 928.271 909.2C928.271 913.6 927.153 914.7 922.677 914.7C896.943 914.5 871.208 914.6 845.474 914.6C845.372 914.1 845.067 913.6 845.169 913.5C852.797 907.5 854.222 899.5 854.12 890.3C853.815 842.2 853.916 794.1 854.018 745.9C854.018 742.2 853.611 739.6 848.932 740.4C844.457 741.2 845.067 738.6 845.779 735.8C855.137 698.2 864.393 660.6 873.649 622.9C875.277 616.1 877.006 609.3 878.532 602.5C879.142 599.6 880.159 598.1 883.719 598C895.112 597.5 901.418 591.7 903.859 580.5C904.978 575.5 906.199 570.4 907.826 565.6C909.657 560.4 912.505 559.8 917.083 563.2C918.1 563.9 919.219 565.1 920.134 564.5C921.456 563.7 920.541 562.1 920.236 560.9C919.015 556.4 916.269 553.3 911.895 551.5C909.759 550.6 907.42 549.9 905.182 549.2C902.029 548.3 900.401 546.9 902.334 543.6C902.741 542.9 902.842 542 903.147 541.2C904.266 538.1 902.842 535.8 900.096 534.7C897.146 533.5 894.095 534.5 893.586 537.5C892.671 543.5 888.805 544.5 883.618 545.6C877.108 546.9 872.632 551.5 870.7 557.8C868.665 564.6 866.631 571.5 865.004 578.5C863.071 586.7 866.428 593.3 874.463 596.8C877.006 597.9 877.108 598.9 876.498 601.2C865.41 646.3 854.323 691.3 843.44 736.4C842.321 741.1 839.371 740.1 836.319 740.3C832.556 740.5 833.573 737.7 833.37 735.8C830.42 713.5 829.301 691.1 825.639 668.9C825.639 644.9 825.639 620.8 825.537 596.8C827.266 594.1 830.623 593.9 832.861 592C839.574 586.3 842.524 579.2 840.693 570.7C838.252 559.5 834.794 548.6 831.844 537.5C830.725 533.3 827.165 530.2 825.436 526.3C825.537 524.6 825.537 522.8 825.537 520.9Z" fill="#FEFEFE"/>
<path d="M825.741 742.7C833.064 742.8 840.286 743 847.61 743C850.662 743 852.086 743.5 852.086 747C851.984 796.8 852.086 846.5 851.984 896.3C851.984 909.6 839.066 917.7 825.741 913.2C825.639 856.4 825.639 799.6 825.741 742.7Z" fill="#FEFEFE"/>
<path d="M825.639 917.3C837.642 917.2 849.644 917.1 861.647 917.1C904.165 917.1 946.581 917.2 989.099 917C993.269 917 994.795 918 994.388 922.2C993.981 926 993.981 929.9 994.388 933.7C994.795 937.8 993.066 938.6 989.2 938.6C936.918 938.5 884.635 938.5 832.353 938.6C830.42 938.6 828.284 937.9 826.453 939.3C824.52 932 826.148 924.6 825.639 917.3Z" fill="#FDFDFD"/>
<path d="M825.639 594.5C825.639 573 825.639 551.5 825.639 530C830.013 530.3 830.725 534.2 831.539 536.9C835.506 548.9 838.76 561 841.507 573.3C843.134 580.8 836.93 591.1 829.809 594.3C828.487 594.9 827.063 595.7 825.639 594.5Z" fill="#FEFEFE"/>
<path d="M825.639 594.5C834.997 592.1 842.219 582.6 840.184 573.5C837.54 561.2 833.878 549.1 830.318 536.9C829.606 534.3 828.182 531.7 825.639 530C825.639 528.9 825.639 527.7 825.537 526.6C829.504 529.5 831.945 533.5 833.268 538C836.421 548.8 839.472 559.7 842.117 570.7C844.965 582.4 837.438 594.2 825.639 597.1C825.639 596.2 825.639 595.3 825.639 594.5Z" fill="#5F87B2"/>
<path d="M826.351 692.5C827.978 707.2 829.504 721.9 831.335 736.6C832.047 742.4 828.284 740.1 825.639 740.2C825.639 724.3 825.639 708.4 825.741 692.5C825.944 692.5 826.148 692.5 826.351 692.5Z" fill="#F9FAFB"/>
<path d="M826.351 692.5H826.046H825.741C825.741 690.9 825.741 689.4 825.741 687.8C827.063 689.2 826.453 690.9 826.351 692.5Z" fill="#CED7E2"/>
<path d="M1351.42 840.4C1349.69 840.5 1348.06 840.6 1346.33 840.6C1275.94 840.6 1205.55 840.6 1135.16 840.6C1133.33 840.6 1131.4 840.5 1129.57 840.4C1137.5 806.9 1147.07 773.9 1155.61 740.6C1155.91 740 1156.42 739.5 1157.03 739.2C1173.11 733.8 1186.23 723.3 1200.67 715.1C1205.15 712.6 1209.11 711.7 1214 713.6C1221.22 716.4 1228.74 718.6 1236.27 720.4C1244.61 722.3 1252.55 721.2 1260.18 717.2C1259.26 715.3 1257.63 715 1256.31 714.4C1239.73 706.2 1223.05 698 1206.27 690.1C1203.62 688.8 1201.48 689.5 1199.04 690C1197.62 684.6 1192.53 683.6 1188.36 681.4C1187.55 681 1186.74 680.6 1185.82 680.2C1182.97 678.6 1179.82 677.5 1176.87 675.9C1175.95 675 1175.55 673.9 1175.75 672.6C1184.8 661.2 1193.04 649.3 1202.09 638C1204.43 635 1204.64 632.9 1201.79 629.9C1196.2 623.9 1191.11 617.5 1183.38 613.9C1182.46 613.5 1181.75 612.7 1181.65 611.6C1181.34 608.8 1180.84 606 1180.43 603.3C1179.31 595.3 1175.75 589.2 1167.41 586.8C1166.6 586.6 1165.88 586 1165.68 585.2C1165.99 583.7 1166.7 582.4 1166.8 580.9C1167.21 577.9 1169.44 577 1171.99 576.1C1184.8 571.8 1188.77 566 1188.97 552.8C1189.07 546.8 1187.96 540.9 1187.55 534.9C1187.45 533.1 1186.74 531.3 1188.36 529.8C1192.94 527.5 1197.92 526.1 1203.01 525.4C1229.05 525.2 1255.09 523.2 1281.13 525.3C1284.08 526.5 1287.13 525.6 1290.08 526.2C1306.15 529.2 1316.93 540.8 1317.95 557.3C1319.88 588.2 1321.51 619 1323.24 649.9C1324.05 664.7 1324.87 679.4 1325.78 694.2C1326.09 700 1325.48 705.6 1322.63 710.6C1321 713.5 1321 716 1321.71 719.1C1330.77 754.7 1340.74 790 1348.16 826C1349.48 830.6 1350.4 835.5 1351.42 840.4Z" fill="#202B6D"/>
<path d="M1208.6 498.4C1191.92 508.2 1175.55 501 1172.09 482.1C1169.14 466.3 1173.21 451 1176.56 435.8C1179.31 423.1 1187.75 415 1200.06 410.5C1209.21 407.1 1218.88 406.4 1228.44 405.8C1239.83 405.1 1251.12 406.4 1262.21 408.7C1272.79 410.9 1280.52 417.4 1285.71 426.3C1298.12 447.4 1299.34 469.4 1289.06 491.7C1285.2 500 1278.99 505.8 1269.33 507C1265.67 506.6 1262.11 508.4 1258.34 506.9C1252.34 504.5 1248.58 500.5 1247.16 494.3C1245.12 485.4 1244.51 476.2 1243.09 467.2C1242.07 460.5 1240.85 453.7 1239.53 447.1C1237.49 436.8 1230.27 429.6 1223.76 421.9C1221.32 419.1 1218.47 416.7 1215.93 414.1C1213.08 411.3 1210.23 411.2 1206.77 413.1C1201.38 416.1 1198.43 420.7 1196.6 426.3C1195.08 430.9 1194.87 435.8 1194.06 440.5C1193.75 442.3 1194.47 443.6 1195.69 445C1199.14 448.9 1199.04 449.9 1194.87 452.8C1193.14 454 1192.13 455.3 1192.02 457.2C1191.62 463.8 1191.01 470.5 1192.43 477.1C1194.06 484.2 1198.03 489.8 1204.13 494C1205.96 495.2 1208.5 495.8 1208.6 498.4Z" fill="black"/>
<path d="M1208.6 498.4C1199.65 493.3 1192.53 486.7 1190.91 476.1C1189.69 468.7 1190.19 461.2 1191.11 453.7C1191.31 451.6 1192.13 451.4 1193.96 451.7C1195.79 452.1 1196.91 450.8 1197.21 449.2C1197.52 447.5 1196.4 446 1194.87 445.9C1192.02 445.7 1192.23 444.1 1192.43 442.2C1193.25 436.4 1193.86 430.7 1195.58 425C1197.72 418 1202.4 413.3 1208.91 410.2C1211.05 409.2 1212.47 409.3 1214.3 410.9C1221.73 417.5 1228.44 424.7 1234.44 432.6C1240.54 440.6 1241.66 450 1243.19 459.3C1244.82 469.1 1246.04 479 1247.46 488.9C1249.29 502.2 1254.38 506.4 1269.33 506.9C1264.96 507.1 1264.45 509.6 1264.55 513.4C1264.75 524.5 1264.65 524.5 1275.94 524.6C1277.77 524.6 1279.6 524.1 1281.33 525C1255.29 525.9 1229.25 525.3 1203.11 525.1C1210.84 524 1218.57 524.7 1226.3 524.7C1230.17 524.7 1231.39 523.6 1231.08 519.9C1230.78 515.8 1230.88 511.6 1231.08 507.4C1231.19 504.8 1230.37 503.2 1227.63 503C1221.12 502.5 1215.01 499.9 1208.6 498.4Z" fill="#FD9993"/>
<path d="M1182.36 611.8C1192.23 615.9 1198.33 624.3 1205.25 631.8C1206.26 632.9 1206.57 633.9 1205.55 635.3C1196.09 647.7 1186.74 660 1177.38 672.4C1177.17 672.6 1176.77 672.7 1176.46 672.8C1174.43 673.4 1172.9 672.2 1171.27 671.4C1155.91 663.9 1140.45 656.4 1125.09 648.7C1122.55 647.4 1119.81 646.4 1118.48 643.6C1110.96 638.4 1108.01 631.3 1109.23 622.4C1111.06 621.2 1112.38 622.6 1113.8 623.4C1120.52 626.9 1126.93 630.8 1133.54 634.4C1135.16 635.3 1136.59 636.5 1138.83 636.2C1136.18 634 1133.13 632.3 1130.08 630.7C1124.38 627.8 1118.99 624.5 1113.4 621.4C1112.07 620.7 1110.55 620.1 1110.24 618.4C1111.87 615.2 1114.01 612.3 1114.92 608.7C1124.28 615.5 1134.86 620.3 1145.44 626.4C1145.13 624.2 1143.71 623.9 1142.69 623.3C1135.27 619 1127.64 615 1120.21 610.7C1118.18 609.5 1115.84 608.5 1116.75 605.4C1121.53 599.1 1128.25 597.4 1137.61 600.1C1145.13 602.4 1152.46 605.6 1160.39 606.5C1165.07 607 1169.75 607.3 1174.43 608.2C1177.28 608.9 1180.53 608.8 1182.36 611.8Z" fill="#FD9993"/>
<path d="M1188.46 529.5C1189.07 537.3 1190.6 545 1190.6 552.8C1190.5 566 1185.01 573.6 1172.09 577.3C1169.95 577.9 1167.61 578 1167.41 580.9C1164.76 580.2 1162.53 580.3 1161.81 583.5C1161.51 584.7 1160.59 585.3 1159.37 585.6C1151.13 585.9 1142.9 587 1134.66 587C1132.52 587 1130.18 587.2 1128.45 585.5C1128.45 576.9 1128.35 568.2 1128.35 559.6C1128.35 557.8 1128.45 556.2 1126.72 554.6C1118.69 547.5 1118.89 543.7 1127.54 537.3C1131.5 533.5 1136.69 531.6 1141.67 530C1151.95 526.8 1161.51 522.5 1169.75 515.5C1171.99 513.5 1174.12 513.5 1176.56 515.3C1180.33 518.1 1184.19 520.7 1187.35 524.2C1187.65 526.2 1188.06 527.8 1188.46 529.5Z" fill="#FD9993"/>
<path d="M1188.67 680.5C1192.02 681 1194.77 683 1197.72 684.4C1199.96 685.4 1200.37 687.1 1198.74 689.1C1196.5 692.5 1192.53 693.6 1189.38 695.6C1183.58 699.3 1177.48 702.4 1171.99 706.5C1173.82 706.9 1175.14 705.7 1176.46 705C1183.28 701 1190.09 697 1197.01 693C1198.13 692.3 1199.45 691.5 1200.77 692.5C1201.89 693.5 1201.89 694.9 1201.59 696.2C1200.67 699.8 1198.84 703 1196.3 705.8C1185.62 717.3 1172.8 726.4 1161.1 736.7C1159.27 738.3 1157.14 739.2 1154.9 740.1C1148.29 740.4 1141.88 743.2 1134.96 741.5C1126.21 739.4 1120.21 733.2 1119.4 724.3C1118.79 717.2 1119.91 710.4 1123.67 704.2C1124.69 701.8 1126.52 700.1 1128.76 698.9C1143.3 691.1 1157.95 683.5 1172.8 676.2C1174.33 675.5 1175.75 674.4 1177.58 675.1C1181.04 675.4 1183.79 677.1 1186.43 679C1185.62 681.1 1183.68 681.8 1181.95 682.8C1175.75 686.5 1169.55 690.1 1163.34 693.9C1162.02 694.7 1160.19 695.1 1159.47 697.7C1169.65 692.2 1179.21 686.5 1188.67 680.5Z" fill="#FD9993"/>
<path d="M1177.48 675.3C1161.31 683.5 1145.13 691.7 1129.06 700.1C1127.03 701.2 1125.4 702.9 1123.57 704.4C1120.92 696.9 1121.64 689 1121.03 681.3C1120.01 668.8 1119.3 656.2 1118.48 643.7C1137.4 654.2 1157.14 663.2 1176.46 672.9C1176.77 673.6 1177.07 674.5 1177.48 675.3Z" fill="black"/>
<path d="M1154.8 740.2C1163.75 732.9 1172.49 725.4 1181.55 718.3C1186.94 714 1191.82 709.2 1196.3 704C1198.94 701 1200.77 697.4 1200.47 692.4C1193.65 696.4 1187.24 700.1 1180.84 703.9C1178.39 705.3 1175.95 706.9 1173.41 708.3C1172.19 708.9 1170.66 710.3 1169.54 708.2C1168.63 706.5 1170.16 705.9 1171.27 705.2C1172.6 704.4 1173.82 703.6 1175.14 702.9C1182.97 698.4 1190.8 693.8 1198.64 689.3C1200.98 686.2 1203.42 687.3 1206.27 688.8C1223.66 697.4 1241.15 705.8 1258.55 714.3C1260.07 715 1261.8 715.4 1263.13 717.2C1253.36 722.8 1243.29 724.2 1232.61 720.9C1225.49 718.7 1218.37 716.7 1211.35 714.2C1208.3 713.1 1206.06 713.5 1203.42 715.1C1191.72 722.2 1179.92 728.9 1168.32 736.1C1164.36 738.6 1159.88 739.4 1155.51 740.7C1155.3 740.5 1155 740.4 1154.8 740.2Z" fill="black"/>
<path d="M1128.35 585.6C1139.23 585.8 1150.02 584.6 1160.9 584.2C1162.73 583.2 1164.56 583 1166.19 584.7C1179.92 588.3 1182.56 597.9 1182.36 611.7C1176.56 609.7 1170.56 608.8 1164.56 608.5C1154.8 608.1 1146.05 604.3 1137 601.4C1129.06 598.9 1122.45 600 1116.96 606.4C1114.41 605.9 1116.55 603.6 1115.43 602.5C1115.13 599.2 1114.52 596 1115.74 592.7C1117.97 587 1123.26 586.4 1128.35 585.6Z" fill="black"/>
<path d="M1187.24 524.5C1182.77 522.5 1179.31 519 1175.44 516.1C1173.61 514.7 1172.6 514.6 1170.87 516.2C1162.73 523.4 1153.37 528.2 1142.69 531C1137.4 532.4 1132.52 535.2 1127.54 537.4C1126.42 520.3 1135.37 510.4 1152.66 509.5C1157.24 509.3 1161.81 509.4 1166.29 509.6C1178.39 510.2 1183.28 513.6 1187.24 524.5Z" fill="black"/>
<path d="M1115.43 602.6C1115.94 603.9 1116.45 605.2 1116.96 606.5C1117.26 609 1119.7 609.2 1121.33 610.1C1129.26 614.7 1137.4 619.1 1145.44 623.6C1146.66 624.3 1148.59 624.9 1147.78 626.8C1146.86 628.9 1145.23 627.8 1144.01 627.1C1134.96 622.1 1125.91 617 1116.75 612C1115.33 611.2 1114.82 610.3 1114.92 608.8C1116.14 606.8 1114.82 604.6 1115.43 602.6Z" fill="#060303"/>
<path d="M1110.24 618.5C1119.91 623.9 1129.67 629.2 1139.33 634.6C1140.66 635.3 1142.39 636.1 1141.47 637.9C1140.45 639.7 1138.93 638.7 1137.5 637.9C1128.04 632.7 1118.69 627.6 1109.23 622.5C1108.01 620.7 1108.11 619.3 1110.24 618.5Z" fill="#070404"/>
<path d="M1228.34 1019.9C1223.15 1020.3 1217.86 1019.7 1212.67 1021C1188.26 1021.9 1163.95 1023.6 1139.64 1025.3C1131.6 1025.7 1123.47 1025.9 1115.43 1026.6C1111.97 1026.9 1110.96 1026.1 1111.16 1022.8C1111.57 1011.9 1111.77 1001 1111.97 990.1C1113.7 989.2 1115.64 989.6 1117.47 989.6C1200.37 989.6 1283.26 989.6 1366.16 989.6C1368.2 989.6 1370.23 989.9 1372.17 990.1C1372.47 993.9 1372.47 997.7 1373.08 1001.5C1373.69 1005.4 1372.17 1006.1 1368.5 1006.4C1347.14 1008.2 1325.88 1010.4 1304.52 1012.5C1303.4 1012.6 1302.18 1013 1301.07 1013.2C1284.08 1014.7 1267.19 1016.2 1250.21 1017.8C1243.09 1018.4 1235.76 1019.2 1228.34 1019.9Z" fill="#202B6D"/>
<path d="M1350.19 915.6C1350.09 942 1328.22 963.3 1301.27 963.3C1274.31 963.3 1252.44 941.4 1252.65 914.8C1252.85 888.6 1274.92 867.3 1301.98 867.4C1328.73 867.4 1350.19 888.9 1350.19 915.6Z" fill="#FEFEFD"/>
<path d="M1158.05 867.3C1184.8 867.4 1206.67 889 1206.67 915.4C1206.57 941.7 1184.6 963.3 1157.85 963.2C1130.89 963.1 1109.12 941.7 1109.12 915.3C1109.02 888.5 1130.79 867.2 1158.05 867.3Z" fill="#FEFEFD"/>
<path d="M994.286 813.4C994.286 845.5 994.185 877.6 994.388 909.7C994.388 913.7 993.269 914.8 989.302 914.7C979.334 914.4 969.365 914.4 959.295 914.7C954.82 914.8 953.599 913.7 953.599 909.2C953.803 866.6 953.701 824 953.701 781.4C953.701 759.8 953.803 738.1 953.599 716.5C953.498 711.9 954.922 710.9 959.295 711.1C969.264 711.4 979.232 711.4 989.302 711.1C993.269 711 994.388 712.1 994.388 716.1C994.185 748.5 994.286 781 994.286 813.4Z" fill="#FEFEFE"/>
<path d="M917.185 559.3C909.556 558.4 907.725 559.5 905.385 566.2C903.656 571.1 902.639 576.1 901.723 581.2C899.384 594 882.194 600.9 872.327 593.1C867.851 589.5 866.122 584.8 867.445 579.3C869.072 572.5 870.903 565.8 872.937 559.1C874.972 552.5 879.651 548.5 886.669 547.4C889.517 546.9 890.331 547.8 889.416 550.6C887.178 556.9 885.143 563.2 883.007 569.5C881.787 573.1 881.176 576.7 885.856 578.1C890.229 579.4 891.755 576.3 892.874 572.8C894.908 566.3 897.248 559.9 899.282 553.4C899.994 551.1 901.011 550 903.554 551.1C908.335 553.1 914.133 553.3 917.185 559.3Z" fill="#FEFEFE"/>
<path d="M884.635 571.6C888.195 560.9 891.959 549.7 895.824 538.5C896.434 536.8 897.757 536.2 899.486 536.9C901.418 537.7 901.418 539.3 900.91 541.1C898.469 548.5 896.027 556 893.586 563.4C892.467 566.9 891.247 570.3 890.026 573.8C889.416 575.4 888.297 576.3 886.466 575.8C884.431 575.2 884.126 573.8 884.635 571.6Z" fill="#FCFDFD"/>
<path d="M994.286 695.4C994.286 696.1 994.286 696.7 994.286 697.4C994.49 709.8 994.49 709.8 981.877 708.8C979.435 708.6 978.927 707.7 978.723 705.5C978.113 695.7 978.113 695.7 988.285 695.7C990.217 695.6 992.252 695.5 994.286 695.4Z" fill="#FBFBFB"/>
<path d="M538.593 835.5C538.389 839.9 535.847 840.7 531.676 840.6C506.654 840.4 481.631 840.4 456.609 840.4C459.559 820.4 462.61 800.4 465.56 780.4C467.493 767.8 469.222 755.1 471.256 742.5C471.765 739.5 471.46 738.5 468.001 738.2C456.405 737.1 447.454 732 443.081 720.8C441.555 717 441.657 712.9 441.453 709C440.131 688.8 439.317 668.5 438.096 648.3C436.571 623.4 434.841 598.6 433.316 573.7C432.502 561.2 432.095 548.9 441.453 538.4C451.93 526.7 465.051 520.8 480.512 519.9C488.955 519.4 497.397 519.8 505.942 519.8C507.467 519.8 509.095 519.6 509.604 521.6C511.231 523.4 510.926 525.7 510.926 527.8C510.926 545.4 510.824 563 511.028 580.6C511.028 585.5 509.604 588.6 504.518 590.4C497.906 592.7 495.363 599.4 497.092 608C498.415 614.8 502.483 617.9 510.01 618C523.742 618.2 526.489 615.4 526.285 601.7C526.183 595.5 523.539 591.5 517.639 589.8C513.571 588.6 512.045 586.2 512.045 582.1C512.045 563.3 512.045 544.5 512.045 525.8C512.045 524 511.943 522.1 513.469 520.7C517.131 519.1 520.996 519.9 524.759 520.2C526.997 522.6 526.895 525.8 527.099 528.7C528.726 550.6 530.761 572.4 532.592 594.2C534.016 611.6 535.643 628.9 537.169 646.3C538.186 658.2 539.203 670.1 540.119 682.1C540.22 683.3 540.119 684.4 539.508 685.5C537.474 687.5 534.829 687 532.286 687.1C524.861 687.2 517.436 687 510.01 688C506.654 688.4 505.535 689.6 506.145 692.8C508.383 704.2 510.214 715.7 512.452 727.1C513.164 730.7 514.995 732.2 518.656 732.1C524.759 732 530.862 732 536.965 732.1C539.305 732.1 541.746 731.8 543.679 733.7C545.713 739.4 545.103 745.3 544.493 751C543.374 760.4 543.475 769.9 542.967 779.4C542.051 796 541.034 812.6 540.627 829.2C540.322 831.3 540.729 833.8 538.593 835.5Z" fill="#6DB5DE"/>
<path d="M538.797 685.3C534.016 630.2 529.337 575.1 524.556 520.1L524.76 519.8C525.98 518.5 527.608 518.2 529.337 518.1C537.372 518 545.408 518 553.444 518.1C555.173 518.1 556.8 518.4 558.021 519.7C561.785 519.8 565.446 519.9 569.21 520C570.837 520.8 571.448 522.4 572.058 524C583.043 554.9 595.351 585.3 607.862 615.7C608.473 617.1 608.981 618.5 609.083 620C607.964 635.8 608.778 651.5 608.574 667.3C608.574 669.9 608.88 672.6 607.761 675.2C607.354 676.1 606.642 677 605.726 677.3C597.182 680.4 588.943 685.1 579.89 685.7C568.091 686.4 556.292 687.7 544.493 687C542.357 686.8 540.322 687.1 538.797 685.3Z" fill="black"/>
<path d="M607.964 618.6C596.673 592.6 586.298 566.1 576.432 539.6C573.99 533.1 571.651 526.5 569.209 520C578.873 519.8 588.434 519.3 598.097 520.5C609.083 521.9 618.034 527.1 624.544 535.7C633.698 547.8 645.091 557.7 656.178 567.9C665.231 576.3 675.402 583.6 684.862 591.7C688.219 594.6 689.846 594.1 692.186 590.6C696.763 583.8 701.849 577.4 706.63 570.8C710.8 565.1 710.698 565.1 716.598 568.5C730.025 578.4 743.451 588.5 757.387 597.7C759.014 599.2 759.116 600.4 757.59 602.3C745.587 617.3 733.788 632.4 721.887 647.5C720.158 645.8 720.463 643.5 720.362 641.4C720.26 636.1 720.565 630.8 720.26 625.5C719.853 618.1 716.293 614.7 708.766 614.2C706.019 614 703.375 614.1 700.628 614.1C679.166 614.1 657.704 614.1 636.241 614.1C626.578 614.1 616.61 612.7 607.964 618.6Z" fill="#6DB5DE"/>
<path d="M499.228 433.8C498.415 433.3 498.109 432.6 498.109 431.7C498.211 423.6 497.499 415.4 499.025 407.3C500.754 398.4 507.671 392 516.825 391.8C534.931 391.3 553.037 391 571.041 390.7C581.721 390.6 590.062 397.3 592.706 407.5C593.825 411.7 594.741 415.9 594.944 420.2C595.046 422.7 594.842 425.6 597.487 427.4C594.639 430 590.774 428.9 587.519 430C582.229 429.8 577.042 431.6 571.753 431C564.632 428.4 557.512 428.4 550.595 431.9C545.51 432.3 540.525 433.6 535.44 433.2C525.064 433.8 514.689 434.1 504.416 434.9C502.585 435 500.754 435.1 499.228 433.8Z" fill="#6DB5DE"/>
<path d="M535.948 431.8C540.932 431.5 545.916 431.2 550.901 430.9C551.511 432.9 549.883 433.9 548.968 435.3C544.187 442.7 545.815 451.9 552.731 456.5C560.462 461.6 569.617 459.9 574.906 452.4C578.263 447.6 578.364 447.6 581.823 452.4C584.976 456.7 589.045 459.3 594.537 459.5C596.063 459.6 597.589 459.5 598.708 460.8C598.809 482.5 588.943 493.4 565.243 497.8C556.495 499.4 558.224 497.7 558.021 506.4C557.919 510.9 558.021 515.4 558.021 519.9C546.934 519.9 535.846 520 524.759 520C524.657 516.3 524.658 512.5 524.556 508.8C524.556 508.3 524.658 507.8 524.658 507.3C522.928 489.5 531.574 473.3 532.693 455.9C533.1 449.8 533.71 443.7 534.219 437.5C534.422 435.4 534.219 433.3 535.948 431.8Z" fill="#FD9993"/>
<path d="M535.948 431.8C535.338 445.4 534.321 459 531.778 472.3C531.371 474.3 531.269 476.4 530.354 478.1C525.675 486.2 526.793 495 526.692 503.7C526.692 505.5 527.607 507.9 524.657 508.5C513.875 508.7 502.992 508.8 492.21 509.1C488.955 509.2 485.7 509.5 483.564 506.3C481.326 502.9 482.953 500 484.886 497.1C493.125 484.8 496.38 471 496.99 456.5C497.295 448.8 498.007 441.2 499.228 433.7C511.434 433.1 523.64 432.4 535.948 431.8Z" fill="black"/>
<path d="M598.81 460.7C589.35 461.5 582.433 458 578.466 448.4C576.737 452.2 575.109 455.1 572.261 457.2C565.446 462.4 555.681 461.7 549.578 455.8C543.781 450.1 543.17 440.5 548.256 433.9C549.07 432.9 549.985 431.9 550.901 430.9C557.512 426.4 564.327 426.4 571.346 429.8C574.499 430.8 576.228 433.5 578.364 436.1C581.212 433.2 583.145 429.7 587.214 428.8C590.57 427.6 593.927 427.1 597.487 427.3C606.031 429.2 611.422 434.8 612.033 442.3C612.745 450.9 608.574 456.6 598.81 460.7Z" fill="#010101"/>
<path d="M513.265 520.6C513.265 541.4 513.367 562.2 513.265 583C513.265 586.1 513.876 587.6 517.334 588.2C524.454 589.5 527.608 593.7 527.608 600.9C527.608 603.1 527.608 605.2 527.608 607.4C527.404 615.2 522.929 619.6 514.893 619.7C514.384 619.7 513.876 619.7 513.367 619.7C498.415 619.7 493.431 614.1 495.262 599.4C495.974 593.8 499.228 589.6 504.925 588.6C508.892 587.9 509.4 585.9 509.4 582.5C509.299 562.2 509.4 541.9 509.502 521.6C510.519 520.2 511.638 519.2 513.265 520.6Z" fill="#FDFDFE"/>
<path d="M538.593 835.5C540.017 804.7 541.543 773.9 542.967 743.1C543.069 740 542.967 736.8 542.865 733.7C544.289 731.8 546.425 731.9 548.46 731.9C566.26 731.8 583.959 731.8 601.759 731.9C603.489 731.9 605.116 732 606.642 732.9C608.778 734.6 608.473 737.1 608.473 739.4C608.575 745.4 608.371 751.4 608.575 757.4C608.88 766.7 612.338 770 621.594 770C634.818 770.1 647.939 770 661.162 770.1C663.705 770.1 666.757 769.5 668.486 772.3C674.081 795 679.573 817.8 685.168 840.5C654.347 840.5 623.527 840.5 592.707 840.5C588.943 837 588.943 832.1 587.519 827.7C585.281 821.1 585.281 820.9 578.466 820.9C574.906 820.9 571.346 820.8 567.786 821C564.226 821.1 562.598 822.8 562.7 826.3C562.802 829.1 562.7 831.9 562.7 834.8C562.7 836.8 562.802 838.8 561.276 840.5C555.58 840.5 549.782 840.3 544.086 840.7C539.915 840.9 538.186 839.5 538.593 835.5Z" fill="#8F3600"/>
<path d="M717.005 915.2C716.903 942 695.034 963.3 667.875 963.2C641.226 963.1 619.153 941.1 619.356 915C619.662 888.5 641.429 867.3 668.384 867.3C695.339 867.3 717.107 888.7 717.005 915.2Z" fill="#FDFEFD"/>
<path d="M573.38 915.5C573.278 941.8 551.307 963.3 524.454 963.2C497.6 963.1 475.833 941.5 475.833 915.1C475.833 888.7 497.702 867.2 524.556 867.2C551.816 867.2 573.482 888.6 573.38 915.5Z" fill="#FDFEFD"/>
<path d="M561.276 840.3C561.276 834.6 561.377 829 561.072 823.3C560.97 820.7 561.886 819.7 564.429 819.7C570.837 819.6 577.245 819.4 583.653 819C586.196 818.9 586.806 820.2 587.315 822.1C589.044 828.2 590.875 834.2 592.604 840.3C582.229 840.3 571.752 840.3 561.276 840.3Z" fill="#6DB5DE"/>
<path d="M668.486 772.1C661.976 770.9 655.364 771.7 648.753 771.6C639.09 771.4 629.426 771.6 619.865 771.6C611.321 771.6 607.252 767.6 607.15 759.1C607.049 750.6 607.15 742.1 607.15 733.7C608.981 731.6 611.524 732.1 613.762 732.1C625.968 732 638.072 732 650.278 732.1C655.263 732.1 660.145 731.7 664.926 730.8C673.368 729.3 678.047 723.9 680.082 715.9C680.387 712.7 677.844 714 676.623 714C668.689 713.9 660.755 714 652.821 713.9C650.584 713.9 648.041 714.5 646.311 712.2C647.736 709.5 650.38 710.1 652.618 710.1C659.23 710 665.841 710.1 672.453 710C673.775 710 675.199 710.1 676.521 709.9C678.149 709.7 680.183 709.7 679.98 707.3C679.878 705.3 678.047 705.2 676.521 705.2C669.096 705 661.569 705.2 654.144 705C651.397 704.9 648.244 705.9 646.311 702.9C647.939 700.5 650.482 701.1 652.72 701.1C660.45 701 668.181 701.1 675.911 701C677.335 701 679.37 702.1 680.082 699.6C678.454 693.6 674.284 690.5 668.384 689.1C662.179 687.6 655.771 687 649.566 685.1C647.227 682.6 643.972 683.1 641.022 682.3C631.156 677.6 620.984 674.5 609.795 676.4C608.778 676.6 607.761 676.4 607.049 675.5C607.049 659.4 606.947 643.2 607.049 627.1C607.049 624.3 607.557 621.5 607.862 618.7C611.219 614.1 615.796 612.6 621.391 612.7C650.075 612.8 678.759 612.8 707.545 612.8C717.717 612.8 721.481 616.6 721.582 626.7C721.582 633.7 721.684 640.6 721.786 647.6C721.684 653.7 721.582 659.9 721.481 666C721.481 696.4 721.481 726.8 721.481 757.2C721.481 768.9 718.531 771.7 706.426 771.8C693.813 771.9 681.099 771.1 668.486 772.1Z" fill="#202B6D"/>
<path d="M851.78 474.7C854.323 474 855.646 474.8 855.035 477.6C846.389 483.7 837.744 489.7 828.996 495.8C827.775 496.7 826.351 498.8 824.724 496.9C822.893 494.7 825.436 493.8 826.86 492.8C835.099 486.7 843.44 480.7 851.78 474.7Z" fill="#050303"/>
<path d="M839.777 464.9C842.015 464.4 842.931 465.4 842.931 467.6C834.183 473.8 825.435 480.1 816.586 486.3C815.263 487.2 813.738 489.1 812.212 487.2C810.381 484.9 813.127 484.1 814.45 483.1C822.892 477 831.335 471 839.777 464.9Z" fill="#060404"/>
<path d="M778.341 508.7C778.646 508.9 779.256 509.1 779.764 509.5C784.85 513.1 789.834 516.8 794.819 520.4C795.836 521.2 797.26 522.1 796.141 523.6C794.819 525.6 793.395 524.1 792.276 523.3C787.393 519.8 782.511 516.2 777.628 512.6C776.713 511.9 775.492 511.2 776.001 509.8C776.306 509.2 777.018 508.6 778.341 508.7Z" fill="#0A0606"/>
<path d="M1274.92 655.3C1273.3 640.9 1271.77 627.2 1270.25 613.5C1269.94 610.7 1269.63 607.9 1269.33 605.1C1269.13 603.7 1269.33 602.2 1270.96 602C1272.79 601.8 1272.89 603.5 1273.09 604.8C1274.31 615.5 1275.53 626.3 1276.76 637C1277.47 643.3 1278.08 649.6 1278.89 655.8C1279.3 659.4 1278.38 660.9 1274.52 659.3C1269.53 657.3 1264.45 655.4 1259.46 653.5C1258.14 653 1256.92 652.2 1257.53 650.6C1258.24 648.9 1259.67 649.5 1260.99 650C1265.26 651.7 1269.74 653.3 1274.92 655.3Z" fill="#FBFBFC"/>
<path d="M1188.67 680.5C1188.77 682.1 1187.55 682.8 1186.33 683.5C1177.99 688.4 1169.54 693.4 1161.2 698.3C1159.98 699 1158.46 700.5 1157.24 698.6C1155.81 696.5 1157.95 695.7 1159.37 694.9C1168.32 689.6 1177.38 684.4 1186.33 679.1C1187.24 679.4 1188.06 679.7 1188.67 680.5Z" fill="#060404"/>
<path d="M1166.19 584.7C1164.46 584.5 1162.73 584.3 1160.9 584.2C1160.9 581.9 1160.39 579.6 1163.85 579C1165.98 578.6 1167.1 578.8 1167.41 581C1167.71 582.4 1168.63 584.1 1166.19 584.7Z" fill="#DFD9DC"/>
<path d="M1268.11 466.3C1268.11 462.3 1268.21 458.3 1268.11 454.3C1268.01 451.8 1268.92 450.9 1271.36 451.8C1273.7 452.7 1276.25 453.3 1278.38 454.5C1283.06 457.1 1286.21 460.8 1286.21 466.4C1286.21 472.1 1282.76 475.7 1278.28 478.3C1268.92 483.6 1268.11 483.1 1268.11 472.8C1268.11 470.7 1268.11 468.5 1268.11 466.3Z" fill="#FC9993"/>
<path d="M1231.08 450C1230.88 451.9 1229.76 453 1227.83 452.9C1226.1 452.8 1224.98 452 1224.88 450.2C1224.88 448.3 1225.9 446.9 1227.83 446.9C1229.76 446.8 1230.88 448.1 1231.08 450Z" fill="#0E0908"/>
<path d="M1185.21 626.3C1184.8 627.9 1183.99 628.9 1182.06 627.8C1172.39 622.4 1162.73 617.1 1153.07 611.7C1151.95 611.1 1151.24 610 1152.25 608.9C1153.58 607.5 1155 608.5 1156.32 609.2C1165.07 614.1 1173.92 618.9 1182.67 623.8C1183.79 624.4 1184.9 624.9 1185.21 626.3Z" fill="#0A0606"/>
<path d="M1183.28 539.4C1183.28 540.8 1182.56 541.7 1181.24 541.8C1179.92 541.9 1178.9 541.2 1178.7 540C1178.5 538.6 1179.31 537.5 1180.94 537.5C1182.36 537.5 1183.07 538.3 1183.28 539.4Z" fill="#170E0E"/>
<path d="M1158.56 540.5C1158.36 541.8 1157.64 542.7 1156.22 542.7C1154.9 542.7 1153.98 541.8 1153.98 540.5C1153.88 539 1154.9 538.4 1156.22 538.4C1157.54 538.3 1158.36 539.1 1158.56 540.5Z" fill="#1C1110"/>
<path d="M1346.23 915.8C1345.92 940.7 1325.88 959.6 1299.95 959.3C1275.74 959 1256.21 938.8 1256.51 914.4C1256.82 890.2 1277.16 870.9 1302.18 871.1C1326.9 871.4 1346.53 891.3 1346.23 915.8Z" fill="#E98F27"/>
<path d="M1112.99 915.3C1112.99 890.7 1132.62 871.3 1157.54 871.2C1182.56 871.1 1202.7 890.8 1202.6 915.5C1202.5 939.9 1182.56 959.4 1157.64 959.3C1132.72 959.3 1113.09 939.9 1112.99 915.3Z" fill="#E98F27"/>
<path d="M646.922 702.6C652.72 704.2 658.619 703 664.417 703.3C668.588 703.5 672.86 703.5 677.03 703.3C680.488 703.1 682.116 703.6 682.116 707.7C682.116 711.9 679.776 711.6 677.03 711.6C668.588 711.5 660.145 711.5 651.703 711.6C650.075 711.6 648.346 711 646.82 712.2C647.837 714.4 649.872 713.9 651.703 713.9C659.433 714 667.265 713.9 674.996 714C677.132 714 679.471 713.7 681.099 715.6C680.285 724.6 673.165 731.7 663.603 732.6C647.837 734 631.969 733.2 616.102 733.4C613.05 733.5 609.998 733.5 607.049 733.6C585.586 733.6 564.124 733.6 542.763 733.7C533.914 733.7 525.166 733.5 516.317 733.7C512.96 733.8 511.638 732.7 511.027 729.4C508.891 716.3 506.45 703.2 503.907 690.2C503.297 686.9 504.009 686.3 507.162 686.2C517.639 686.1 528.116 685.6 538.593 685.3C552.426 685 566.463 685.8 580.094 684.1C589.248 683 597.996 678.4 606.845 675.4C619.255 672.5 630.647 675 641.327 681.4C639.395 683.3 636.954 682.9 634.614 682.9C628.511 683 622.51 682.8 616.407 683.4C627.392 684.5 638.479 683.5 649.465 684.2C656.178 685.5 662.993 686.5 669.706 688.1C675.606 689.5 679.878 692.9 680.895 699.3C679.268 701.3 676.928 700.9 674.792 700.9C667.062 701 659.23 700.9 651.499 701C649.973 701 647.837 700.3 646.922 702.6Z" fill="#FD9993"/>
<path d="M587.214 428.9C583.755 431.5 580.399 434.3 578.873 439.4C576.432 435.7 574.397 432.4 571.346 429.8C576.635 429.5 581.924 429.2 587.214 428.9Z" fill="#F4948F"/>
<path d="M520.386 476.5C509.603 474.9 502.28 468.6 502.483 461.3C502.585 453.9 510.01 447.9 520.386 446.8C520.386 456.7 520.386 466.6 520.386 476.5Z" fill="#FC9993"/>
<path d="M574.804 444C574.702 451.3 569.006 456.8 561.581 456.8C554.257 456.8 548.561 451.1 548.663 443.7C548.765 436.7 554.562 431 561.581 431C568.803 431 574.906 436.9 574.804 444Z" fill="#FC9993"/>
<path d="M599.725 455.9C593.317 457.7 588.536 456.4 584.874 451.9C581.619 447.9 581.212 441.9 583.857 437.4C586.705 432.7 591.486 430.6 597.589 431.5C596.979 434.8 598.81 438.1 597.487 441.4C594.537 444 595.656 446.1 598.403 447.9C599.216 450.5 599.827 453.1 599.725 455.9Z" fill="#FC9993"/>
<path d="M599.725 455.9C597.385 453.6 597.996 450.6 597.792 447.8C598.097 445.6 597.996 443.5 596.877 441.5C596.571 439.4 596.368 437.2 596.063 435.1C595.859 433.6 595.452 432.1 597.589 431.5C603.895 432.9 607.557 436.8 608.066 442.4C608.676 449 606.133 453.1 599.725 455.9Z" fill="#EBE8E8"/>
<path d="M523.844 604.2C523.844 614.1 522.013 615.8 511.536 615.8C501.466 615.8 499.229 613.6 499.229 603.4C499.229 594.1 501.975 591.6 512.35 591.6C521.708 591.6 523.844 593.9 523.844 604.2Z" fill="#6DB5DE"/>
<path d="M668.384 871.2C693.305 871.2 713.038 890.6 713.14 915.2C713.241 939.7 693.406 959.3 668.486 959.4C643.768 959.5 623.425 939.7 623.323 915.6C623.221 890.9 643.26 871.2 668.384 871.2Z" fill="#459257"/>
<path d="M569.515 915.4C569.515 939.8 549.375 959.4 524.556 959.3C499.635 959.2 479.8 939.6 479.8 915.2C479.8 890.4 499.635 871.1 524.963 871.1C549.782 871.2 569.515 890.8 569.515 915.4Z" fill="#459257"/>
<path d="M649.668 684.2C648.651 685.7 647.024 685.5 645.6 685.5C635.835 685.5 625.968 685.5 616.203 685.5C614.576 685.5 612.338 685.9 612.338 683.6C612.338 681.3 614.576 681.6 616.203 681.6C624.646 681.5 633.088 681.5 641.531 681.5C644.277 682.4 648.346 679.4 649.668 684.2Z" fill="#040203"/>
<path d="M681.2 715.6C670.723 715.6 660.247 715.6 649.871 715.5C647.837 715.5 644.786 716 646.922 712.2C657.907 712.2 668.892 712.3 679.878 712.3C681.2 712.3 682.929 711.9 683.438 713.5C683.946 715.1 682.319 715.3 681.2 715.6Z" fill="#0E0908"/>
<path d="M646.922 702.6C646.413 699.5 646.413 699.4 649.77 699.4C660.247 699.3 670.622 699.3 681.099 699.3C682.116 699.6 683.235 699.8 683.031 701.1C682.726 703.1 681.099 702.5 679.776 702.5C668.893 702.6 657.907 702.6 646.922 702.6Z" fill="#0E0908"/>
<path d="M1315.31 912.2C1319.78 908.8 1323.44 906.1 1327.72 902.8C1327.72 911.3 1327.72 919 1327.72 927.6C1323.44 924.4 1319.78 921.6 1316.12 918.9C1315.71 919.4 1315.31 919.6 1315.31 919.8C1314.8 930.4 1314.49 930.6 1303.81 930.6C1298.42 930.6 1293.03 930.7 1287.54 930.6C1281.74 930.5 1279.91 928.8 1279.81 923.2C1279.71 917.9 1279.71 912.6 1279.81 907.2C1279.91 901.7 1281.74 899.9 1287.54 899.8C1293.84 899.7 1300.05 899.8 1306.35 899.8C1313.68 899.8 1315.1 901.3 1315.31 908.6C1315.31 909.5 1315.31 910.3 1315.31 912.2Z" fill="#FEFEFE"/>
<path d="M1172.49 942.2C1169.44 941.9 1166.09 940.7 1163.04 939C1147.47 930.4 1136.59 917.9 1132.11 900.7C1130.49 894.6 1133.64 889.3 1139.84 889.1C1145.03 888.9 1145.23 895.3 1148.39 898.3C1149.51 899.4 1150.52 900.5 1148.9 902.5C1144.22 908.5 1144.42 910.8 1149.2 916.5C1152.15 920 1155.3 923.2 1159.07 925.9C1162.12 928.1 1165.48 928.6 1168.32 925.9C1170.26 924 1171.68 924.4 1173.51 925.8C1175.14 927 1177.07 927.8 1178.5 929.2C1180.23 930.8 1184.29 930.7 1183.07 934.6C1181.55 939.4 1177.58 942.5 1172.49 942.2Z" fill="#FEFEFE"/>
<path d="M567.277 445C567.074 447 565.853 448.1 563.921 448.1C562.293 448.1 561.073 447.2 560.971 445.3C560.869 443.3 561.886 442.1 563.921 442C565.955 441.8 566.972 443.2 567.277 445Z" fill="#110A0A"/>
<path d="M596.877 441.5C600.437 443.1 600.539 445.3 597.792 447.8C595.86 447.9 593.927 447.8 593.52 445.4C593.012 442.9 594.537 441.8 596.877 441.5Z" fill="#121111"/>
<path d="M694.831 902.6C694.831 911.3 694.831 919.1 694.831 927.8C690.457 924.4 686.693 921.5 682.93 918.6C682.523 919.1 682.218 919.3 682.218 919.6C681.811 930.3 681.607 930.5 670.927 930.5C665.129 930.5 659.433 930.4 653.635 930.5C648.956 930.6 646.82 928.1 646.718 923.8C646.617 918 646.617 912.2 646.718 906.3C646.82 901.8 649.363 899.6 653.737 899.6C660.145 899.5 666.655 899.5 673.063 899.6C680.387 899.6 682.014 901.3 682.116 908.4C682.116 909.4 682.116 910.4 682.116 912.3C686.591 908.8 690.457 905.9 694.831 902.6Z" fill="#FEFEFE"/>
<path d="M540.017 942.2C533.609 941.3 527.506 938.5 522.216 934.2C511.027 925.2 501.975 914.7 498.923 900.2C497.702 894.1 500.347 890.5 506.45 888.7C508.993 887.9 509.705 889.6 510.214 890.9C511.841 894.8 518.046 897.4 515.706 901.9C511.739 909.4 511.129 910.7 516.825 917.1C519.063 919.6 521.504 921.9 523.946 924.2C527.709 927.7 531.676 929 536.05 925.1C537.067 924.2 537.983 924 539.203 924.8C542.56 927.1 545.916 929.2 549.375 931.4C550.087 931.9 550.596 932.4 550.494 933.4C549.985 937.4 544.594 942.3 540.017 942.2Z" fill="#FEFEFE"/>
</svg>
