<svg width="1884" height="1380" viewBox="0 0 1884 1380" fill="none" xmlns="http://www.w3.org/2000/svg">
<path d="M941.488 1379.9C629.195 1379.9 317.003 1379.9 4.70997 1380C0.921497 1380 0 1379.2 0 1375.4C0.102391 918.5 0.102391 461.5 0 4.60001C0 0.900006 0.819105 0 4.70997 0C629.604 0.1 1254.4 0.1 1879.29 0C1883.08 0 1884 0.800006 1884 4.60001C1883.9 461.5 1883.9 918.5 1884 1375.4C1884 1379.1 1883.18 1380 1879.29 1380C1566.69 1379.9 1254.09 1379.9 941.488 1379.9Z" fill="#FCFCFC"/>
<path d="M697.2 871.9C697.1 874.4 697 876.9 696.9 879.4C696 881.5 696.9 883.8 696.2 885.9C696.1 888.7 696 891.6 695.9 894.4C695.1 896.2 695.8 898.1 695.2 899.9C694.4 917.1 687.3 932.3 680.5 947.6C662.3 988 644.1 1028.4 626 1068.9C616.3 1090.6 606.6 1112.3 596.9 1134C595.1 1135.8 592.9 1135.4 590.8 1135.4C565.6 1135.4 540.5 1135.4 515.3 1135.4C513.2 1135.4 510.9 1135.7 509.2 1134C514.4 1122.3 519.7 1110.6 524.9 1098.9C530.4 1086.5 535.8 1074 541.3 1061.5C542.3 1059.1 543.2 1056.7 544.2 1054.4C544.6 1053.6 544.6 1052.7 544.8 1051.8C545.3 1049.8 546.4 1048 547 1046C558.5 1018.9 570.5 992 582.1 964.9C583 963 583.6 961 584.5 959.1C590.8 944.8 596.9 930.4 603.3 916.2C606 910.2 605.7 903.8 606.3 897.6C607.9 880.9 609.2 864.2 610.7 847.5C611.7 836.8 612.4 826 613.6 815.3C613.7 814.1 613.6 813 613.7 811.8C614.9 801 615.6 790.2 616.7 779.4C616.7 778.2 616.8 777 616.9 775.8C618.2 762.4 619.3 749.1 620.5 735.7C621.6 723.2 622.8 710.6 623.8 698.1C624 696 624.4 693.8 625.9 692.1C630.2 691 634.5 691.5 638.8 691.8C668.8 694 698.9 695.9 728.9 697.8C737.7 698.4 746.5 699 755.3 699.6C757.6 699.2 759 700.6 760.4 702.1C763.9 705.9 767.8 709.3 771.2 713.1C773.5 715.7 775.7 716.2 778.4 713.7C779.7 712.4 781.3 711.4 783.3 711.5C786 712.6 788.5 714 789.4 717.2C787.5 719.8 784.5 721.1 782.3 723.3C778.4 727.1 777.4 730.5 779.8 733.2C782 735.7 785.3 735.3 789.6 732.2C792.6 730 794.8 726.5 798.9 725.9C799.7 726.3 800.1 726.9 800.4 727.7C804.4 749.5 807.2 771.4 810.4 793.3C815.7 828.4 820.7 863.5 826 898.5C828.2 913.3 825.1 927.2 820.9 941.2C804.2 996.9 787.9 1052.6 771.4 1108.3C769.2 1115.6 767.2 1123 764.8 1130.3C764.1 1132.3 763.8 1134.6 761.7 1135.8C759.8 1136.6 757.8 1136.6 755.8 1136.6C729.4 1136.8 703 1136.3 676.5 1136.8C675.8 1136.8 675.2 1136.7 674.5 1136.5C674.6 1128.5 678.1 1121.4 680 1113.9C682.8 1102.6 686.2 1091.4 689.4 1080.2C693.1 1067.1 697 1054.1 700.7 1041.1C705.3 1025.2 709.8 1009.3 714.4 993.4C718 980.9 721.9 968.4 725.5 955.8C729.2 942.9 733 930.1 736.3 917.1C737.8 911.1 735.4 905 735 898.9C734.5 892 733.3 885.2 732.5 878.3C731.7 871.5 730.9 864.7 730.1 858C729.3 851.3 728.5 844.6 727.5 837.9C726.5 830.8 725.3 823.8 724.4 816.7C723.6 810.1 723.1 803.5 722.4 796.9C721.6 790.1 720.8 783.4 719.9 776.6C719.1 770.4 717.7 764.2 717.5 757.9C717.4 754.4 716.1 751.3 716.1 747.8C716.1 744.9 712.4 744.6 709.8 744.8C707.7 744.9 704.7 744.7 705.9 748.6C705 750.7 705.9 753 705.2 755.1C705.1 757.6 705 760.1 704.9 762.6C704 764.7 704.9 767 704.2 769.1C704.1 771.6 704 774.1 703.9 776.6C703 778.7 703.9 781 703.2 783.1C703.1 785.9 703 788.8 702.9 791.6C702 793.7 702.9 796 702.2 798.1C702.1 800.6 702 803.1 701.9 805.6C701 807.7 701.9 810 701.2 812.1C701.1 814.9 701 817.8 700.9 820.6C700 822.7 700.9 825 700.2 827.1C700.1 829.9 700 832.8 699.9 835.6C699 837.7 699.9 840 699.2 842.1C699.1 844.9 699 847.8 698.9 850.6C698 852.7 698.9 855 698.2 857.1C698.1 859.9 698 862.8 697.9 865.6C697 867.6 697.9 869.8 697.2 871.9Z" fill="#8F3600"/>
<path d="M936.001 484C939.701 474.6 947.601 469.2 955.701 464.2C970.001 455.3 985.801 454.4 1002 455.1C1002.6 456 1002.5 457 1002.5 458C1002.5 478.4 1002.5 498.8 1002.5 519.2C1002.5 520.2 1002.7 521.2 1002 522.1C992.701 522.4 988.901 526.4 988.901 535.6C988.901 538.3 988.801 540.9 989.001 543.6C989.401 549 992.401 552 998.001 553.2C1002.4 554 1006.9 553.9 1011.3 553.2C1015.2 552.4 1017.1 548.9 1020.2 547C1021.8 548.6 1021.7 550.6 1021.7 552.6C1021.8 564.3 1021.8 575.9 1021.7 587.6C1021.7 590.8 1021.4 593.9 1019.8 596.8C1014.6 600.2 1008.9 598.4 1003.4 598.1C994.501 597.7 985.601 596.8 976.701 597C980.601 597.9 984.701 597.8 988.701 598.1C997.601 598.7 1006.6 599.7 1015.5 599.6C1017.5 599.6 1019.5 599.6 1021.2 598.3C1031.5 597.3 1041.7 598.6 1051.8 599.9C1055.4 600.4 1054.7 603.3 1054.5 605.8C1051.8 620.9 1048.9 635.9 1046.3 651C1046 653 1045.7 655 1044.2 656.5C1038.4 658.6 1032.3 657.3 1026.4 657.5C1019.9 657.7 1019.7 657.6 1018.9 663.9C1014.1 701.1 1009.5 738.2 1004.7 775.4C999.201 818.7 993.701 861.9 988.201 905.2C983.301 943.3 978.501 981.5 973.701 1019.6C973.501 1021.1 973.301 1022.6 973.001 1024C972.401 1028.2 970.001 1029.3 966.001 1029C951.601 1027.9 937.201 1026.1 922.701 1025.7C916.201 1024.3 909.601 1024.8 903.101 1023.4C898.601 1023.6 894.201 1022.5 889.801 1022.3C889.001 1022.3 888.101 1022.3 887.301 1022.3C886.501 1022.3 885.601 1022.3 884.801 1022.2C880.401 1021.3 875.901 1021.6 871.401 1021C866.001 1020.3 865.101 1019.1 866.301 1013.7C870.801 993.5 875.701 973.3 880.301 953.1C881.001 949.8 880.601 946.5 881.701 943.3C881.601 941.7 883.401 944.4 883.501 942.5C883.801 935.5 886.101 928.8 887.701 922C889.501 914.4 891.101 906.8 891.901 899.1C893.301 898.8 893.301 897.8 893.601 896.7C906.401 841.2 919.201 785.7 932.301 730.2C933.201 727.1 933.701 723.9 934.401 720.8C939.001 701.1 943.701 681.4 947.901 661.5C949.201 655.2 948.601 654.5 942.301 654.4C940.101 654.4 938.001 654.4 935.801 654.4C935.001 654.4 934.201 654.4 933.401 654.4C926.201 654.5 919.101 654.5 912.101 652.5C902.101 649.6 893.701 644.1 887.101 636C886.201 634.8 885.401 633.4 884.501 632.2C881.601 628.1 880.001 623.3 878.301 618.6C874.301 602.6 879.701 588.1 885.101 573.6C888.801 563.7 894.901 555.1 900.301 546.2C911.201 530.7 919.901 513.9 928.401 497.1C929.801 494.4 931.001 491.7 932.401 489.1C933.201 487.2 933.801 485 936.001 484Z" fill="#6DB5DE"/>
<path d="M922.1 1024.7C928.4 1023.1 934.6 1025.1 940.8 1025.4C949.8 1025.8 958.7 1026.8 967.6 1027.8C970.3 1028.1 970.9 1027.1 971.2 1024.7C974.3 999.5 977.6 974.2 980.9 949C985.5 913.2 990.1 877.4 994.6 841.6C998.7 809.1 1002.8 776.6 1006.9 744.1C1010.5 715.6 1014.2 687 1017.8 658.5C1018.1 656.2 1018.9 655.5 1021.3 655.6C1028.8 655.9 1036.3 655.9 1043.8 656C1045.3 654.8 1047.1 654.7 1049 654.8C1065.1 655.5 1081.1 656.4 1097.2 656.5C1102.4 656.5 1107.8 656.3 1112.6 659.1C1115.8 673.3 1118.9 687.5 1122.1 701.7C1127 723.5 1132 745.4 1137 767.2C1137.3 768.5 1137.8 769.7 1138.2 771C1139.3 771.8 1140.1 772.9 1140.4 774.3C1144.6 793.2 1149.3 812 1153.3 830.9C1153.4 832 1153.6 833 1153.1 834.1C1153.6 838.6 1154.7 842.9 1156 847.2C1157.6 848.7 1157.5 850.9 1158.4 852.7C1159.3 855.2 1159.8 857.9 1159.6 860.5C1158.3 872.9 1159 885.3 1158.3 897.7C1157.4 900.8 1157.1 904 1157.6 907.2C1157.7 907.7 1157.7 908.3 1157.7 908.8C1157.3 911.3 1157.4 913.8 1157.5 916.2C1158.3 935.1 1156.5 954 1156.5 972.9C1156.4 973.8 1156.4 974.7 1156.4 975.5C1156.4 977.4 1156.4 979.4 1156 981.3C1154.9 984.3 1155.4 987.4 1155.6 990.4C1155.5 990.9 1155.3 991.4 1154.9 991.7C1153.7 997 1155.1 1002.4 1154.2 1007.8C1154.1 1014.4 1154 1021 1153.9 1027.6C1152.8 1032.3 1153.9 1037 1153.3 1041.7C1152.9 1042.2 1152.5 1042.6 1151.9 1042.8C1130.3 1045.5 1108.7 1048.4 1087.1 1051.1C1084.5 1051.4 1081.7 1051.8 1079.5 1049.7C1078.9 1048.7 1078.6 1047.6 1078.6 1046.4C1078.7 1034.4 1078.2 1022.3 1078.8 1010.3C1080.4 1003.1 1079.3 995.7 1079.6 988.5C1079.7 985.3 1079.6 982.2 1079.6 979C1079.6 978.1 1079.5 977.2 1079.6 976.3C1079.6 975.4 1079.6 974.5 1079.6 973.6C1079.6 973 1079.5 972.4 1079.5 971.8C1079 939.5 1081.2 907.2 1080.5 874.9C1080.4 870 1080 865.3 1078.9 860.6C1069.3 817 1059.3 773.5 1049.7 729.9C1049.5 729.1 1049.4 728.3 1049.2 727.5C1048.6 725.3 1047.9 723.3 1045 723.5C1042.1 723.7 1041.6 725.8 1041.6 728.1C1041.5 732.8 1041.2 737.5 1041.8 742.1C1042.6 748.1 1042.6 754.1 1042.6 760C1042.2 786.3 1043.5 812.6 1043.9 838.9C1044.2 855.9 1043.6 872.9 1044.8 889.8C1045.9 906.8 1045.2 923.7 1045.6 940.7C1045.8 951.3 1044.1 961.6 1041.4 971.8C1041 973.1 1040.5 974.4 1040.1 975.7C1039 979.5 1038 983.4 1036.1 986.9C1035.2 988.6 1034.7 990.5 1034.1 992.3C1026.3 1009 1016.3 1024.5 1007.4 1040.7C1004 1047 1000.3 1053.1 996.8 1059.3C995.5 1061.6 994.5 1064.1 991.9 1065.4C989.4 1065.9 987.4 1064.6 985.3 1063.7C964.6 1055.2 943.8 1046.8 923.1 1038.4C920.8 1037.5 918.3 1036.8 917.4 1034C917.4 1030.3 918.8 1027 922.1 1024.7Z" fill="black"/>
<path d="M917.701 1034.4C921.301 1037.2 925.801 1038.2 929.901 1039.9C950.501 1048.3 971.101 1056.7 991.701 1065C992.701 1066.1 991.901 1067.1 991.501 1068.1C990.801 1069.2 990.001 1070.4 989.401 1071.6C979.901 1089.1 970.101 1106.5 960.501 1124C958.601 1127.4 958.901 1129.2 962.101 1131.3C972.801 1138.8 982.001 1147.8 988.901 1159.1C989.801 1160.8 990.901 1162.3 992.001 1163.9C997.801 1173.3 1002 1183.3 1004.2 1194.1C1004.3 1195.1 1004.5 1196.1 1004 1197C1004.3 1199.9 1004.3 1203 1005 1205.8C1005.6 1208.3 1005.2 1208.9 1002.6 1208.9C966.601 1208.8 930.601 1208.8 894.601 1208.9C892.801 1208.9 891.301 1208.6 890.701 1206.7C887.201 1205.3 885.801 1202 883.801 1199.3C872.101 1185.4 861.101 1171 849.601 1156.9C847.201 1154 848.201 1151.3 849.701 1148.6C854.501 1140 859.601 1131.6 864.501 1123.1C870.901 1112 877.401 1100.9 883.901 1089.8C885.001 1088.3 886.001 1086.8 886.901 1085.2C888.801 1081.2 891.201 1077.6 893.201 1073.6C897.301 1067 901.001 1060.1 905.101 1053.5C908.201 1048.1 911.201 1042.6 914.501 1037.3C915.301 1036.1 915.401 1033.9 917.701 1034.4Z" fill="#8F3600"/>
<path d="M1079.8 1050C1093.3 1049.5 1106.5 1047 1119.8 1045.5C1130.5 1044.3 1141.9 1042.4 1152.7 1042V1054L1152.1 1101C1151.9 1111.5 1151.8 1122 1151.5 1132.4C1151.4 1134.9 1152.4 1136.5 1154.2 1137.8C1172.9 1151.2 1191.6 1164.5 1210.3 1177.8C1220.1 1184.8 1223.1 1195.2 1224.7 1206.3C1225 1208.3 1224.1 1209 1222.2 1208.8C1221 1208.7 1219.9 1208.8 1218.7 1208.8C1168.8 1208.8 1118.8 1208.8 1068.9 1208.9C1067.9 1207.3 1068.3 1205.6 1068.6 1203.9C1068.6 1203.5 1068.6 1203.2 1068.7 1202.8C1068 1201.4 1067.4 1199.9 1067.6 1198.3C1069.3 1179.1 1070.6 1160 1072.4 1140.8C1073.4 1130.2 1072.7 1119.6 1073.7 1109C1074.8 1100.8 1074.6 1092.5 1075.4 1084.2C1075.6 1082.2 1075.4 1080.2 1075.7 1078.2C1076.7 1075.3 1076.4 1072.3 1076.4 1069.4C1076.4 1064.4 1076.3 1059.5 1076.5 1054.5C1076.7 1052.6 1076.7 1050.2 1079.8 1050Z" fill="#8F3600"/>
<path d="M598.001 1134.8C606.601 1138.4 614.101 1144 622.101 1148.6C635.501 1156.4 648.901 1164.3 662.001 1172.5C672.301 1178.9 680.201 1187.4 683.101 1199.6C683.301 1200.4 683.701 1201.1 684.101 1201.9C684.901 1203.6 683.901 1205.5 684.901 1207.1C684.501 1209.2 682.801 1208.8 681.401 1208.8C617.501 1208.8 553.601 1208.8 489.301 1208.8C494.101 1190.6 498.701 1172.6 503.501 1154.6C505.301 1148 506.101 1141.1 509.001 1134.8C509.901 1134.2 510.901 1134.4 511.901 1134.4C539.601 1134.4 567.301 1134.4 595.001 1134.4C596.101 1134.5 597.101 1134.3 598.001 1134.8Z" fill="black"/>
<path d="M1053 606.2C1054.3 601.8 1052.3 600.8 1048.1 600.7C1039.1 600.5 1030.2 599.7 1021.2 599.1C1020.2 599 1019.1 599 1019.2 597.5C1019.9 580.6 1020.1 563.8 1019.9 546.9C1020.3 546.2 1018.7 545.6 1019.9 544.9C1020.9 540.5 1020.7 536 1020.2 531.6C1018.6 516.4 1019 501.2 1020 485.9C1020.5 478.3 1020.1 470.6 1020.3 463C1020.4 460.5 1020.1 458 1021.8 455.8C1024.1 454 1026.8 454.4 1029.5 454.4C1035.5 454.4 1041.4 454.3 1047.4 454.5C1050.2 454.6 1053.1 455.2 1053.1 458.7C1053.3 471.6 1054 484.5 1052.7 497.4C1051.3 499.6 1049 499.3 1046.9 499.6C1036.6 500.8 1031.6 506 1031.4 516.3C1031.2 531.8 1031.2 547.3 1031.4 562.8C1031.5 572.1 1035.8 577.5 1043.7 578.9C1034.5 575.6 1032 568.6 1032.3 559.6C1032.7 545.6 1032.3 531.6 1032.4 517.6C1032.5 505.9 1037.6 500.8 1049.1 500.7C1052.9 500.7 1056.8 500.5 1060.6 500.8C1068.4 501.3 1073.9 506.4 1074.1 514.2C1074.5 531.2 1074.5 548.2 1074.1 565.2C1073.9 572.3 1069.6 576.6 1063.1 578.9C1070.3 577.7 1074.9 573 1075.1 565.2C1075.7 548.2 1075.7 531.2 1075.1 514.2C1074.8 506 1069.9 501.4 1061.6 499.8C1054.6 498.5 1054.4 498.3 1054.3 491.1C1054.3 481.4 1054.3 471.8 1054.3 462.1C1054.3 460 1054.1 457.7 1055.5 455.8C1062.7 453.8 1069.9 454.1 1077 456.2C1078.4 456.8 1079.9 457.2 1081.3 457.8C1082.2 458.1 1083 458.6 1083.7 459.1C1084.4 459.6 1085.2 460.1 1086 460.4C1086.6 460.7 1087.2 461 1087.9 461.3C1088.3 461.5 1088.7 461.8 1089.1 462.1C1101.8 471.6 1106.9 484.3 1105.4 499.9C1104.6 507.3 1105.2 514.8 1105.1 522.2C1105.3 539.3 1105.3 556.4 1105.1 573.5C1105 574.4 1104.9 575.4 1104.6 576.3C1104.4 576.9 1104 577.4 1103.6 577.9C1103.5 579.2 1103.4 580.6 1103.3 581.9C1102.6 588 1103.1 594.1 1103 600.3C1103 602.9 1101.9 603.8 1099.7 602.9C1086.8 597.1 1074.4 600.6 1062 604.9C1059.6 606 1056.4 608 1053 606.2Z" fill="#8F3600"/>
<path d="M674.3 1136.4C675.8 1134.2 678.1 1134.9 680.2 1134.9C707.5 1134.8 734.8 1134.8 762 1134.7C764.2 1133.3 765.8 1134.7 767.5 1135.7C789.9 1148.9 812.4 1161.8 834.8 1175.1C845.7 1181.6 851.5 1191.5 853.1 1204C853.1 1205.1 852.8 1206 852.1 1206.9C851.7 1210.3 849 1208.8 847.4 1208.8C810.9 1208.9 774.4 1208.9 737.9 1208.9C723.7 1208.9 709.6 1208.9 695.4 1208.9C688 1208.9 688 1208.9 686.9 1201.8C685.3 1191.2 680.6 1182.5 671.7 1176.3C670.1 1175.2 669.3 1174 670.2 1172.4C671.3 1170.5 671.1 1168.6 670.9 1166.6C671.7 1164.8 671 1162.8 671.6 1161C672.7 1152.8 673.5 1144.6 674.3 1136.4Z" fill="black"/>
<path d="M288.2 998C304 998 319.9 997.9 335.7 998C339.4 998 340.8 997.6 339.4 993.4C335.1 980.6 331.2 967.7 327.2 954.8C321.8 937.1 316.7 919.2 310.9 901.6C306.3 887.6 297.3 877.5 282.8 872.9C280.6 872.2 278.7 870.9 276.3 870.9C274.7 870 272.8 870.9 271.1 870.2C270.1 870.2 269 870.2 268 870.2C266.3 870.9 264.4 870 262.8 870.9C257.1 870.8 252.3 873.7 247.2 875.4C236.7 878.8 226.3 882.5 215.9 886.1C214.4 886.6 213 887.6 211 886.3C213.1 882.3 217.3 880.7 220.5 878.1C234.7 867.2 248.8 856.2 263.2 845.6C281.3 832.3 304 834.5 319.8 850.5C320.6 851.3 321.4 852.2 322.2 853C324.2 852.9 323.2 851.7 323 850.8C319.1 830 315.1 809.2 311.1 788.4C308.5 775 294.1 761 281.3 760C279.6 759.9 276.1 759 276.1 759C276.1 759 272.6 759 270.9 758.3C269.3 758.2 267.7 758.1 266.1 758L260.9 757.3C259.6 757.2 258.3 757.1 257 757.1L251.9 756.4C250.3 756.3 248.6 756.2 247 756.1L241.9 755.4C241.2 755.1 240 755.3 240 754.2C240.1 752.7 241.5 752.7 242.6 752.3C258.4 747 274.1 741.5 289.9 736.3C299.9 733.1 309.8 733.4 319.4 738.1C328.9 742.7 335.5 750 339 760.1C343.6 773.5 348.2 786.9 352.8 800.3C353.1 801.2 352.9 802.4 354.9 802.6C354.9 800.8 354.9 799.1 354.9 797.4C355 758.3 354.8 719.1 355.3 680C355.5 665.9 361.4 653.3 369.7 642C380 628 390.7 614.3 401.3 600.5C402.1 599.4 403.1 597.5 404.8 598.4C406.6 599.4 405 601.2 404.6 602.3C398.1 623.6 391.5 644.8 384.9 666C384.1 668.6 383.8 673.8 383.8 673.8L383.1 679C383.1 679 383.2 707.9 383.4 718.8C383.5 731.1 384 748.8 384.1 761.1C384.6 761.8 384.3 762.6 384.6 763.4C384.8 762.9 385.1 762.4 385.6 762.1C392.2 744.7 396.9 726.4 411.9 713.4C419.7 706.7 428.9 702.7 438 698.3C441.8 696.4 445.7 694.7 449.5 692.8C450.5 692.3 451.5 691.9 452.2 692.7C453.1 693.8 451.9 694.4 451.3 695.1C442.5 705.2 433.7 715.4 424.9 725.5C419.5 731.7 417.4 739.3 415.9 747.1C409.4 779.4 402.8 811.6 396.4 843.9C395.1 850.5 393.1 857 392.8 863.9C392.5 865.1 391.7 866.6 394.1 866.3C403.7 859.1 412.5 850.5 424.1 846.4C442.1 840 458.5 843.5 473.4 855.3C479.1 859.8 484.9 864.3 490.6 868.8C491.6 869.6 493.4 870.2 492.5 871.7C491.9 872.7 490.4 872.5 489 872.3C481.1 871.1 473.2 869.6 465.3 869.2C451.5 868.6 439.5 873.8 432.4 885.7C421.6 903.8 412.1 922.7 402 941.3C401.2 942 401.5 943 401.3 943.8C401.9 943.8 402.2 943.3 402.7 943.1C407.9 937.6 412 931.2 419 927.6C435.4 919 456.2 924.3 465.3 940.2C476.2 959.1 486.7 978.2 497.3 997.2C497.7 998 498 998.9 498.3 999.8C495.1 1001.1 493.4 998.6 491.6 997.3C479.3 988.7 467.4 979.6 454.9 971.3C445.7 965.2 438.5 965.8 430 973.7C421.8 981.3 414.1 989.4 406.2 997.3C407.4 999 409 998.2 410.3 998.2C429.8 998.3 449.3 998.4 468.8 998.1C473.6 998 474.6 999.6 474.6 1004.1C474.5 1052.1 474.5 1100.1 474.5 1148.1C474.5 1150.1 474.6 1152.1 474.7 1154.1C473.6 1156.4 474.8 1158.9 473.9 1161.2C471.1 1176.5 463.4 1188.8 450.6 1197.8C444 1202.4 436.7 1205.2 428.7 1206.4C426.4 1207.3 423.9 1206.1 421.6 1207.2C394.4 1207.2 367.2 1207.2 339.9 1207.2C337.6 1206.1 335.1 1207.3 332.8 1206.4C309.8 1203.4 289.5 1184.6 287.5 1159.2C287 1157.7 287.2 1156.2 287.2 1154.7C287.2 1104.2 287.2 1053.6 287.2 1003.1C287.6 1001.2 287.1 999.5 288.2 998Z" fill="#5882AF"/>
<path d="M766.301 331.2C768.901 330.7 771.501 330.3 774.101 329.8C779.701 329.1 785.301 329.7 790.901 329.5C801.801 329.8 811.301 333.8 819.601 340.6C826.801 346.6 830.301 354.4 829.401 363.9C828.201 365.2 826.701 364.9 825.201 364.9C820.301 364.8 815.901 366.3 812.601 369.9C809.801 373 807.901 372.2 806.001 369.2C803.401 365.1 799.601 362.9 794.901 362.3C786.201 361.3 778.801 366.8 777.401 375.1C776.101 383.3 781.401 391.1 789.601 393.1C791.701 393.6 794.001 393.1 795.801 394.7C795.801 397.4 793.401 397 791.901 397.5C786.901 399.1 781.501 399.7 775.401 401.6C782.401 406.2 789.101 409.2 796.401 406.6C803.501 404 809.801 403.1 816.201 408.2C818.401 410 822.001 409.5 824.201 411.9C823.801 417 820.201 420.1 816.601 423C810.501 428 803.301 430.2 795.501 431C794.501 431.1 793.501 431.1 792.501 431.1C781.901 431.9 781.601 432.3 781.201 442.9C781.101 446.3 781.801 450 778.301 452.4C771.301 454.4 764.401 452.2 757.601 451.7C751.701 451.3 745.601 451.9 740.001 449.1C738.101 447.1 738.301 444.5 738.601 442.1C739.701 432.8 740.001 423.4 741.201 414C741.901 409.1 741.801 404.3 736.101 402C734.801 401 733.601 400 732.401 398.9C725.101 388.7 727.701 380.5 740.101 374.5C760.201 369.4 763.501 365.2 764.501 344.3C764.601 341.5 764.501 338.6 764.601 335.8C764.701 334.4 764.501 332.5 766.301 331.2Z" fill="#FD9993"/>
<path d="M1014 436.1C1004.7 432.2 996.1 427.3 990.2 418.8C986 412.8 982.9 406.4 981.9 399.1C981.4 394.4 981.4 389.8 981.9 385.1C983.1 374.7 988.2 366.1 994.6 358.2C999.9 351.7 1005.9 345.8 1014.1 342.8C1014.6 342.3 1014.9 341.6 1015.6 341.3C1016.7 340.7 1017.9 340.2 1019 339.7C1028.7 336.5 1038.6 334.9 1048.8 334.6C1057.9 334.3 1067 333 1076 335.5C1082.7 337.3 1088.9 339.7 1094.5 343.8C1100.8 348.4 1103.5 354.7 1103.3 362.4C1103.2 368.6 1100 371.8 1093.5 372.7C1090.8 370.8 1091 367.9 1090.6 365.1C1089.4 356.6 1087.1 348.9 1079.3 343.9C1075.7 341.6 1072.7 341.5 1069.3 344.2C1058.6 352.8 1049 362 1046.7 376.5C1046.3 379.3 1046.2 382.1 1046.3 385C1046.7 397.4 1041.1 406 1030 411.1C1024.9 413.5 1025.1 413.4 1028.8 417.7C1033.3 423.1 1038.6 427.7 1042.7 433.3C1045.6 437.3 1045.1 438.5 1040.2 439.6C1034.2 440.9 1028.3 440.5 1022.4 439.2C1021 438.9 1019.7 438.4 1018.3 438C1017.2 437.6 1016.1 437.3 1015.1 437C1014.7 436.6 1014.3 436.4 1014 436.1Z" fill="black"/>
<path d="M1155 976C1155 975.3 1155.1 974.5 1155.1 973.8C1157.7 971.8 1160.8 972.4 1163.8 972.4C1219.9 972.4 1276 972.4 1332.2 972.4C1342.4 972.4 1342.4 972.4 1342.4 962.4C1342.4 947.6 1342.4 932.8 1342.4 917.9C1342.4 912.1 1341.9 911.7 1336.1 911.7C1279.1 911.7 1222.2 911.7 1165.2 911.6C1161.6 911.6 1159 913.3 1156.3 914.9C1155.8 912.5 1155.9 910.3 1157 908.1C1159.7 905.7 1163 906.5 1166.1 906.5C1215.6 906.4 1265.1 906.5 1314.5 906.5C1365.8 906.5 1417.1 906.5 1468.4 906.5C1470.1 906.5 1471.7 906.5 1473.4 906.5C1478.6 906.3 1479.3 905.8 1479.3 900.8C1479.4 886.3 1479.3 871.8 1479.4 857.3C1479.4 853.1 1477.7 851.6 1473.7 851.8C1471.9 851.9 1470 851.8 1468.2 851.8C1368.6 851.8 1269 851.8 1169.3 851.8C1165.1 851.8 1161 852 1156.8 852.1C1155.4 850.7 1156.1 849 1155.9 847.4C1208.6 847.4 1261.2 847.5 1313.9 847.5C1368.4 847.5 1422.9 847.5 1477.4 847.5C1483.9 847.5 1483.9 847.5 1483.9 854.2C1483.9 871.2 1483.9 888.2 1483.9 905.2C1483.9 907 1484.5 908.9 1483 910.4C1481.2 911.1 1479.4 910.7 1477.6 910.7C1435.9 910.7 1394.2 910.7 1352.5 910.7C1350.7 910.7 1348.8 910.2 1347.1 911.2C1346.7 931.9 1346.5 952.5 1347.2 973.2C1348.9 974.2 1350.8 973.7 1352.6 973.7C1394.7 973.7 1436.7 973.7 1478.8 973.8C1480.5 973.8 1482.5 972.9 1483.9 974.6C1483.9 980 1483.9 985.5 1483.9 990.9C1480.2 992.7 1476.2 991.3 1472.4 991.7C1468 992.1 1463.6 991.1 1459.2 992.2C1459.1 994.2 1458.8 996.2 1458.8 998.1C1458.8 1065.7 1458.8 1133.4 1458.7 1201C1458.7 1202.9 1459.7 1205.4 1457.5 1206.5C1455.6 1207.4 1454.1 1205.4 1452.5 1204.4C1440.7 1196.5 1428.8 1188.8 1417.1 1180.9C1414.4 1179 1412.5 1179.1 1409.8 1180.9C1397 1189.8 1384.1 1198.4 1371.2 1207.1C1369.5 1205.6 1370.4 1203.7 1370.4 1202C1370.3 1134 1370.4 1066.1 1370.3 998.1C1370.3 996.1 1370.8 994.1 1369.8 992.2C1367.9 991.2 1365.9 991.7 1363.9 991.7C1296.2 991.7 1228.4 991.7 1160.7 991.7C1158.7 991.7 1156.7 992.1 1154.8 991.3C1153.5 988.3 1153.7 985.3 1154.6 982.3C1156.7 987.3 1160.8 987.7 1165.6 987.7C1267.2 987.6 1368.8 987.6 1470.5 987.6C1471.8 987.6 1473.2 987.5 1474.5 987.6C1477.9 987.7 1479.3 986.2 1479.2 982.8C1479.1 979.5 1477.8 977.9 1474.4 977.9C1472.4 977.9 1470.4 977.9 1468.4 977.9C1367.1 977.9 1265.8 977.9 1164.5 977.9C1161.4 977.6 1157.9 978.3 1155 976Z" fill="#5A83AF"/>
<path d="M1053 606.2C1057.9 604.8 1062.9 603.7 1067.7 601.9C1079.4 597.6 1090.9 596.8 1102.7 602.9C1103.7 595.7 1102.4 588.7 1103.8 582C1103.9 586.6 1104.4 591.3 1103.9 595.9C1103.2 601.7 1104.9 605.4 1110.8 606.8C1108.1 609.3 1104.9 608.5 1101.9 608C1096.1 607.2 1090.4 607.4 1083.7 607.6C1085.9 608.7 1087.4 608.5 1088.9 608.5C1095 608.6 1101.1 608.4 1107.2 609.4C1110.7 610 1114.1 609.6 1117.5 608.2C1119.4 610.7 1122.4 610.4 1125 611.2C1128.5 612.2 1132 613.2 1135.5 613.9C1142.2 615.3 1146.3 619.3 1148.1 625.8C1143.6 628.7 1138.7 627.4 1134.1 626.9C1128.6 626.3 1123.2 626.4 1117.6 626.8C1125.7 627.3 1133.8 627.6 1141.9 628.4C1144 628.6 1146.3 628.2 1148.1 629.7C1148.8 631.7 1148.6 633.8 1148.2 635.9C1148.1 636.8 1148.1 637.7 1148 638.7C1146.6 640.6 1144.7 639.8 1143 639.7C1134.3 639.2 1125.5 640.1 1116.8 639C1125 641.2 1133.4 640.5 1141.8 640.6C1144.2 640.7 1146.8 640 1148.8 642.2C1147.2 643.3 1146.9 645.2 1146.2 646.8C1142.4 654.7 1136.1 658.8 1127.3 659C1122.5 659.1 1117.6 659.1 1112.8 659.1C1096.7 658.4 1080.5 657.7 1064.4 657C1057.6 656.7 1050.8 656.3 1044 656C1046.9 639.4 1049.9 622.8 1053 606.2Z" fill="#FD9993"/>
<path d="M1017.9 341.2C1017.2 342.3 1016 341.9 1015 342.1C1014.2 341.1 1014.5 339.9 1014.5 338.7C1014.5 309 1014.5 279.2 1014.5 249.5C1014.5 248.7 1014.5 247.8 1014.8 247C1015 246.7 1015 246.4 1015 246.1C1016.5 244.9 1018.2 245.5 1019.8 245.5C1182.2 245.5 1344.6 245.5 1507 245.5C1508.6 245.5 1510.3 245 1511.9 246.1C1513.1 247.9 1512.8 249.9 1512.8 251.9C1512.8 358.3 1512.8 464.7 1512.8 571.1C1512.8 573.1 1513.1 575.1 1511.9 576.9C1510.4 577.9 1508.7 577.4 1507 577.4C1374.3 577.4 1241.6 577.4 1108.9 577.4C1107.3 577.4 1105.6 577.8 1104 577C1104 576.2 1104 575.5 1104 574.7C1106.8 572.6 1110.1 573.3 1113.2 573.3C1179.7 573.3 1246.1 573.3 1312.6 573.3C1373.7 573.3 1434.9 573.3 1496 573.3C1497.3 573.3 1498.7 573.3 1500 573.3C1508.2 573.3 1508.2 573.2 1508.2 564.8C1508.2 462.7 1508.2 360.6 1508.2 258.4C1508.2 249.6 1508.2 249.6 1499.4 249.6C1342.1 249.6 1184.9 249.6 1027.6 249.6C1026.8 249.6 1025.9 249.6 1025.1 249.6C1019.1 249.7 1018.6 250.1 1018.6 256.2C1018.6 282.2 1018.6 308.2 1018.6 334.2C1018.6 336.6 1018.8 339 1017.9 341.2Z" fill="#5F87B2"/>
<path d="M1153 834C1152.8 833.3 1152.5 832.5 1152.3 831.8C1155.3 829.6 1158.7 830.4 1162 830.4C1252.6 830.4 1343.3 830.4 1433.9 830.4C1446.9 830.4 1459.9 830.4 1472.9 830.4C1478.8 830.4 1479.3 829.9 1479.3 824.2C1479.4 810.2 1479.4 796.2 1479.3 782.2C1479.3 776.3 1478.8 775.8 1472.6 775.7C1470.8 775.7 1468.9 775.7 1467.1 775.7C1361 775.7 1254.8 775.7 1148.7 775.7C1145.4 775.7 1142 776.5 1139.1 774.1C1138.8 773.1 1138.5 772.1 1138.2 771.1C1140.5 771.1 1142.9 771.2 1145.2 771.2C1255.8 771.2 1366.5 771.2 1477.1 771.2C1483.8 771.2 1483.8 771.2 1483.8 778.1C1483.8 794.8 1483.6 811.4 1483.9 828.1C1484 832.9 1482.8 834.2 1477.9 834.2C1379 834 1280 834 1181 834C1171.7 834 1162.3 834 1153 834Z" fill="#6189B3"/>
<path d="M547.601 1047.1C546.701 1048.8 545.901 1050.4 545.001 1052.1C544.101 1050.4 544.601 1048.5 544.601 1046.7C544.601 819.6 544.601 592.4 544.601 365.3C544.601 363.6 543.801 361.6 545.301 360.1C610.501 360.1 675.801 360.1 741.001 360.1C743.101 361.8 741.801 362.6 740.101 363.1C737.801 363.8 735.501 363.5 733.101 363.5C674.201 363.5 615.201 363.5 556.301 363.5C553.901 363.5 551.201 362.8 549.301 365.1C548.201 368 548.701 371 548.701 374C548.701 589.6 548.701 805.2 548.701 1020.7C548.701 1029.5 549.201 1038.4 547.601 1047.1Z" fill="#5D85B1"/>
<path d="M313.8 359.1C314.3 338.5 322.3 320.9 337 307C354.1 290.7 375 284.1 398.7 287C425.8 290.4 445.9 304.5 457.7 328.5C471.5 356.6 468.5 384.3 449.1 409.2C433.7 429 412.7 438.5 387.6 438.1C370.4 437.8 355.3 432.1 341.7 421.2C326.4 409 318.4 393 314.3 374.5C313.7 371.8 314 368.9 313.8 366.1C313.4 363.7 313.4 361.4 313.8 359.1Z" fill="#5A83AF"/>
<path d="M1022.2 456.1C1021.7 484 1021.3 511.8 1020.7 539.7C1020.7 541.5 1021.2 543.4 1020 545C1020 542 1020.1 539 1020.1 536C1020.1 528.7 1016.3 523.4 1009.3 522.2C1006.2 521.7 1006 520.4 1006 518C1006.1 498.6 1006.1 479.1 1006 459.7C1006 456 1006.6 454.2 1010.7 456C1011.8 456.5 1013 455.9 1013.9 455.2C1014.2 454.9 1014.6 454.7 1015 454.7C1015.9 454.8 1016.7 455 1017.6 455C1019 455.1 1020.4 455 1021.6 455.7C1021.9 455.7 1022 455.9 1022.2 456.1Z" fill="#6DB5DE"/>
<path d="M547.301 363.1C549.001 361.5 551.101 362.4 553.001 362.4C614.201 362.3 675.401 362.4 736.601 362.2C738.001 362.2 741.301 364.3 741.001 360.1C742.301 354.9 742.801 349.5 745.201 344.5C749.501 335.7 756.901 332 766.201 331.3C765.901 340.4 766.101 349.4 764.101 358.4C761.901 368 755.601 373.8 745.801 375.2C743.801 375.5 741.901 375.9 740.001 376.2C738.201 374.4 738.401 372.2 738.801 370.1C739.601 365.9 737.601 364.7 733.901 364.8C732.101 364.9 730.201 364.8 728.401 364.8C671.101 364.8 613.801 364.8 556.401 364.8C553.401 364.6 550.101 365.4 547.301 363.1Z" fill="#ECE9E9"/>
<path d="M545.301 360.1C544.501 362 544.801 364 544.801 366C544.801 593 544.801 820.1 544.801 1047.1C544.801 1048.8 544.901 1050.4 545.001 1052.1C544.701 1052.8 544.401 1053.5 544.101 1054.2C544.101 1052 544.001 1049.9 544.001 1047.7C544.001 820.6 544.001 593.6 544.101 366.5C544.101 364.4 542.901 361.9 545.301 360.1Z" fill="#FCFCFC"/>
<path d="M1010.9 525.9C1016.8 529.7 1019.1 540.1 1015.2 546C1013.6 548.5 1011.2 549.9 1008.1 550C1005.9 550 1003.8 550 1001.6 550C994.6 549.9 992.1 547.4 992.1 540.5C992.1 537.5 991.7 534.4 992.3 531.6C992.9 528.9 994.7 526.5 997.9 525.9C1002.3 525.3 1006.6 525.3 1010.9 525.9Z" fill="#6DB5DE"/>
<path d="M1511.9 246.2C1510.1 246.1 1508.2 246 1506.4 246C1344.6 246 1182.8 246 1021 246C1019 246 1017 246.2 1015 246.2C1016.3 244.3 1018.4 245.1 1020.1 245.1C1182.3 245.1 1344.6 245.1 1506.8 245.1C1508.5 245.1 1510.5 244.4 1511.9 246.2Z" fill="#FCFCFC"/>
<path d="M936 484C935 485.7 934 487.3 933.1 489C930.8 486.5 931.5 483.3 931.5 480.4C931.4 444.4 931.5 408.5 931.4 372.5C931.4 369.9 931.9 367.1 930.2 364.8C928.3 362.9 925.8 363.5 923.5 363.5C895.7 363.5 868 363.5 840.2 363.5C838.4 363.5 836.5 363.7 834.7 363.3C833.1 363 831.2 362.8 832.1 360.2C864.9 360.2 897.7 360.2 930.5 360.1C934.4 360.1 935.1 361.5 935.1 365C935 403 935 440.9 935.1 478.9C935.1 480.6 934.1 482.6 936 484Z" fill="#6188B3"/>
<path d="M1104 577.1C1238.3 577.1 1372.6 577.1 1506.9 577.1C1508.6 577.1 1510.2 577 1511.9 577C1510.1 578.9 1507.8 578 1505.8 578C1371.9 578 1238 578 1104.1 578C1103.8 577.7 1103.8 577.4 1104 577.1Z" fill="#FCFCFC"/>
<path d="M832.001 360.2C832.401 363.9 835.301 362.2 837.001 362.2C866.901 362.3 896.801 362.3 926.701 362.3C928.501 362.3 930.401 361.7 932.001 363C929.601 365.2 926.701 364.6 923.901 364.6C896.201 364.7 868.601 364.6 840.901 364.7C837.901 364.7 834.901 364.3 832.001 365.1C830.601 365.7 829.601 365.3 828.801 364C824.901 343.9 815.501 334.7 795.301 331C794.201 330.8 793.101 330.4 792.001 330C791.701 329.8 791.601 329.6 791.701 329.3C791.801 329.1 791.901 329 792.001 329C795.301 329 798.601 329 802.001 329C803.501 330.2 805.501 328.8 807.001 330C814.601 331.4 821.601 334.3 827.101 339.7C832.801 345.4 834.401 352.4 832.001 360.2Z" fill="#ECE9E9"/>
<path d="M1154.9 991C1159.9 991.1 1164.9 991.1 1169.9 991.2C1234.7 991.2 1299.4 991.2 1364.2 991.2C1366.1 991.2 1368.2 990.4 1369.9 991.9C1298.2 991.9 1226.5 991.9 1154.9 991.8C1154.7 991.6 1154.7 991.3 1154.9 991Z" fill="#FCFCFC"/>
<path d="M1369.9 992C1371.4 993.7 1370.6 995.8 1370.6 997.7C1370.6 1065.3 1370.6 1132.9 1370.7 1200.4C1370.7 1202.5 1370.4 1204.7 1371.3 1206.8C1368.9 1205.3 1370 1202.9 1370 1200.9C1369.9 1131.3 1369.9 1061.6 1369.9 992Z" fill="#FCFCFC"/>
<path d="M1069 1199.2C1068.9 1200.5 1068.9 1201.7 1068.8 1203C1057.4 1195.3 1045.9 1187.6 1034.5 1179.8C1032.3 1178.3 1030.7 1179.1 1028.7 1180.5C1020.6 1186.1 1012.3 1191.6 1004 1197.1C1003.8 1196.4 1003.6 1195.7 1003.3 1194.9C1003.4 1194.4 1003.5 1193.8 1003.9 1193.6C1012.3 1187.5 1020.8 1181.3 1029.7 1175.9C1031.4 1174.9 1033.3 1174.8 1034.9 1175.9C1046.2 1183.2 1057.6 1190.2 1068.2 1198.5C1068.6 1198.6 1068.8 1198.9 1069 1199.2Z" fill="#5E86B1"/>
<path d="M1148.1 630.2C1138 629.8 1127.9 629.4 1117.8 628.9C1116 628.8 1113.1 629.6 1113.2 626.7C1113.3 624.1 1116 625.1 1117.7 625.1C1127.8 625.3 1137.9 625.7 1148 626C1149.9 627 1150.7 628.2 1149 630C1148.8 630.4 1148.5 630.5 1148.1 630.2Z" fill="#050303"/>
<path d="M1117.3 608.3C1117.2 609.9 1116.7 611.1 1114.7 611C1104.3 610.5 1093.8 610.2 1083.4 609.8C1082 609.7 1080.4 609.5 1080.5 607.8C1080.6 605.7 1082.4 606 1083.9 606C1092.8 606.3 1101.8 606.6 1110.7 606.9C1112.9 607.4 1115.5 606.2 1117.3 608.3Z" fill="#070504"/>
<path d="M1148.6 642.2C1137.7 641.9 1126.8 641.5 1115.8 641.2C1114.4 641.2 1112.4 641.5 1112.6 639.2C1112.8 637.1 1114.6 637.3 1116.1 637.4C1126.7 637.8 1137.3 638.3 1147.9 638.8C1149.6 639.6 1149.8 640.7 1148.6 642.2Z" fill="#060404"/>
<path d="M1483.9 974.3C1481.8 973.4 1479.6 973.7 1477.5 973.7C1435.8 973.7 1394.1 973.7 1352.4 973.7C1350.7 973.7 1348.7 974.4 1347.2 973C1391 973 1434.7 973 1478.5 973C1480.3 973 1482.5 972 1483.9 974.3Z" fill="#FCFCFC"/>
<path d="M1347 911C1347.9 909.5 1349.4 910.1 1350.6 910.1C1394.7 910.1 1438.8 910.1 1482.9 910.1C1481.2 911.6 1479.1 910.9 1477.2 910.9C1433.8 911 1390.4 911 1347 911Z" fill="#FCFCFC"/>
<path d="M852.1 1206.9C852.1 1205.9 852 1204.9 852 1203.9C853.8 1202.3 856 1202.4 858.1 1202.4C864.4 1202.3 870.7 1202.3 877.1 1202.4C880.3 1202.5 882.9 1201.6 885 1199.1C887 1201.6 888.9 1204.1 890.9 1206.6C878 1206.7 865.1 1206.8 852.1 1206.9Z" fill="#5B82AD"/>
<path d="M1014.8 247.1C1014.8 276.5 1014.9 305.8 1014.9 335.2C1014.9 337.5 1015 339.8 1015 342.2C1014.6 342.4 1014.3 342.6 1013.9 342.9C1013.9 312.8 1013.9 282.6 1013.9 252.5C1014 250.6 1013.4 248.7 1014.8 247.1Z" fill="#FCFCFC"/>
<path d="M598 1134.8C568.3 1134.8 538.7 1134.8 509 1134.9C509.1 1134.6 509.1 1134.2 509.2 1133.9C538.4 1133.9 567.7 1133.9 596.9 1134C597.3 1134.2 597.6 1134.5 598 1134.8Z" fill="#98613F"/>
<path d="M276.801 288.4C276.201 288.9 275.801 289.6 275.301 289.7C274.501 289.9 274.301 289.1 274.101 288.5C272.301 284.5 270.401 280.4 268.701 276.4C267.401 273.4 266.301 270.3 264.501 267.6C264.001 266.9 264.001 265.9 264.701 265.4C265.101 265.1 266.301 265.2 266.401 265.5C269.801 273.1 273.301 280.7 276.801 288.4Z" fill="#638AB4"/>
<path d="M849.901 198.1C849.601 194.3 852.001 192.7 853.801 190.7C857.601 186.6 862.601 183.8 866.101 179.4C866.701 178.7 867.401 177.8 868.601 178.6C869.901 179.5 869.201 180.3 868.401 181C862.301 186.7 856.101 192.4 849.901 198.1Z" fill="#658BB4"/>
<path d="M668.401 258.1C669.201 258.9 670.001 259.5 670.601 260.2C675.201 265.4 679.701 270.7 684.301 275.9C684.901 276.6 686.001 277.3 684.901 278.4C683.601 279.8 682.801 278.5 682.101 277.7C677.301 272.3 672.601 266.9 667.901 261.4C667.301 260.7 666.901 260 667.301 259.1C667.501 258.8 668.001 258.5 668.401 258.1Z" fill="#648BB4"/>
<path d="M1403.6 708.5C1403.7 709.2 1403.4 709.8 1402.6 709.9C1401.8 710 1401.4 709.6 1401.1 709C1397.6 701.9 1394 694.9 1390.4 687.9C1390 687.2 1390 686.5 1390.7 686.3C1392 685.8 1392.9 686.4 1393.5 687.6C1395.6 692.1 1397.8 696.5 1399.9 701C1401.1 703.4 1402.3 705.9 1403.6 708.5Z" fill="#638AB4"/>
<path d="M1260 641.8C1252.3 646.8 1245.5 651.1 1238.7 655.4C1238 655.9 1237.2 656.2 1236.5 655.3C1236.1 654.7 1236 653.9 1236.6 653.5C1243.5 649.3 1249.8 644.1 1257.4 641C1257.8 641 1258.3 641.3 1260 641.8Z" fill="#638AB4"/>
<path d="M481.6 168C482.4 172.6 479.6 173.7 478.2 175.5C474.8 179.9 471.2 184.3 467.7 188.6C467 189.5 466.1 190.8 464.9 189.5C463.9 188.5 465.3 187.8 465.8 187.1C470.2 180.5 475.6 174.8 481.6 168Z" fill="#658BB5"/>
<path d="M275.3 531.9C272.8 539 270.4 546.1 267.9 553.2C267.6 554 267 554.9 266.1 554.5C264.8 554 265.4 552.9 265.7 552C268.2 545 269.8 537.7 273.1 530.9C273.4 530.2 273.2 529 274.5 529.4C275.8 529.9 275.5 530.9 275.3 531.9Z" fill="#648AB4"/>
<path d="M1002 522C1002 499.7 1002 477.3 1002 455C1003.4 456.1 1003 457.7 1003 459.2C1003 478.8 1003 498.3 1003 517.9C1003 519.3 1003.4 520.9 1002 522Z" fill="#FCFCFC"/>
<path d="M1152.2 1100.9C1152.2 1092.1 1151.6 1083.3 1152.9 1074.5C1152.6 1083.3 1153.9 1092.1 1152.2 1100.9Z" fill="#FCFCFC"/>
<path d="M1459.2 992C1463.9 990.4 1468.8 991.6 1473.7 991.3C1477.1 991 1480.6 991.8 1483.9 990.7C1482.9 992.6 1481 992 1479.5 992C1472.7 992 1465.9 992 1459.2 992Z" fill="#FCFCFC"/>
<path d="M1014.9 455L1014.4 455.1L1013.9 455C1013.9 448.7 1013.9 442.4 1013.9 436C1014.2 436 1014.5 436 1014.9 436.1C1017.3 442.4 1017.3 448.7 1014.9 455Z" fill="#FCFCFC"/>
<path d="M792.001 329.1C792.001 329.4 792.001 329.8 792.001 330.1C786.001 330 780.101 330 774.101 329.9C780.001 328 786.101 329.5 792.001 329.1Z" fill="#FCFCFC"/>
<path d="M1154.2 1007.9C1154.2 1002.5 1153.7 997.1 1154.9 991.8C1154.7 997.2 1155.8 1002.7 1154.2 1007.9Z" fill="#FCFCFC"/>
<path d="M981.8 385.1C981.8 389.8 981.8 394.4 981.8 399.1C980.5 394.4 980.5 389.7 981.8 385.1Z" fill="#FCFCFC"/>
<path d="M1011.2 553.1C1006.8 554.4 1002.3 554.5 997.9 553.1C1002.3 553.1 1006.7 553.1 1011.2 553.1Z" fill="#FCFCFC"/>
<path d="M1010.9 525.9C1006.6 525.9 1002.3 525.9 998 525.9C1002.3 524.5 1006.6 524.5 1010.9 525.9Z" fill="#FCFCFC"/>
<path d="M313.8 359.1C313.8 361.4 313.8 363.7 313.8 366C312.6 363.7 312.6 361.4 313.8 359.1Z" fill="#FCFCFC"/>
<path d="M699.201 841.9C699.101 839.7 698.901 837.5 699.901 835.4C699.801 837.6 700.701 839.9 699.201 841.9Z" fill="#FEFEFE"/>
<path d="M700.201 826.9C700.101 824.7 699.901 822.5 700.901 820.4C700.801 822.6 701.701 824.9 700.201 826.9Z" fill="#FEFEFE"/>
<path d="M702.201 798C702.101 795.8 701.801 793.6 702.901 791.5C702.801 793.6 703.701 795.9 702.201 798Z" fill="#FEFEFE"/>
<path d="M703.201 783C703.101 780.8 702.901 778.6 703.901 776.5C703.701 778.6 704.701 780.9 703.201 783Z" fill="#FEFEFE"/>
<path d="M1148.1 630.2C1148.4 630.1 1148.7 630 1149 629.9C1148.8 631.9 1149.8 634.1 1148.2 635.9C1148.1 634 1148.1 632.1 1148.1 630.2Z" fill="#FEFEFE"/>
<path d="M704.201 769C704.201 766.8 703.801 764.6 704.901 762.5C704.801 764.6 705.701 766.9 704.201 769Z" fill="#FEFEFE"/>
<path d="M705.201 755C705.201 752.8 704.801 750.6 705.901 748.5C705.801 750.6 706.701 752.9 705.201 755Z" fill="#FEFEFE"/>
<path d="M696.201 885.9C696.101 883.7 695.901 881.5 696.901 879.4C696.801 881.6 697.701 883.9 696.201 885.9Z" fill="#FEFEFE"/>
<path d="M701.201 812C701.101 809.8 700.901 807.6 701.901 805.5C701.801 807.6 702.701 809.9 701.201 812Z" fill="#FEFEFE"/>
<path d="M697.201 871.9C697.201 869.7 696.801 867.5 697.901 865.4C697.801 867.6 698.701 869.9 697.201 871.9Z" fill="#FEFEFE"/>
<path d="M698.201 856.9C698.101 854.7 697.901 852.5 698.901 850.4C698.801 852.6 699.701 854.9 698.201 856.9Z" fill="#FEFEFE"/>
<path d="M271.101 870.2C272.901 870.1 274.701 869.9 276.301 870.9C274.601 870.8 272.701 871.6 271.101 870.2Z" fill="#FCFCFC"/>
<path d="M695.201 899.9C695.101 898 694.801 896.1 695.901 894.4C695.801 896.3 696.601 898.3 695.201 899.9Z" fill="#FEFEFE"/>
<path d="M807 330C805.3 329.8 803.4 330.7 802 329C803.7 329.3 805.6 328.4 807 330Z" fill="#FCFCFC"/>
<path d="M1068.8 1204C1068.9 1205.7 1069 1207.3 1069.1 1209C1067.4 1207.3 1067.6 1205.7 1068.8 1204Z" fill="#FCFCFC"/>
<path d="M262.801 870.9C264.401 869.8 266.201 870.1 268.001 870.2C266.401 871.6 264.501 870.8 262.801 870.9Z" fill="#FCFCFC"/>
<path d="M885 1199.2C885.4 1202.9 884.1 1204.4 880 1204.2C870.7 1203.8 861.4 1204 852 1204C850.9 1198.6 849.5 1193.3 846.6 1188.6C843.3 1183.3 839.2 1179 833.6 1175.8C811.1 1162.9 788.8 1149.7 766.5 1136.6C765.1 1135.8 763.7 1134.7 762 1134.7C767.7 1115.1 773.3 1095.5 779.1 1075.9C793.3 1028 807.5 980.1 821.7 932.2C826.1 917.3 825 902.4 822.7 887.3C817.6 854.5 812.8 821.5 808 788.7C805 768.2 802 747.6 799.1 727C803.7 727.8 806.4 731.4 809.4 734.3C817.3 741.9 825.4 749.3 833.7 756.5C843 764.6 851.9 764.8 861.6 757.2C863.1 756.1 864.7 752.7 867 756.4C869.2 771.5 870 786.8 871.4 802C873 819 874.5 836.1 875.9 853.1C877.4 870.5 879 887.8 880.5 905.2C881.4 915 882 924.7 883.1 934.5C883.4 937.5 883.7 940.5 882.1 943.2C882.7 955.3 877.9 966.5 875.6 978.1C873.2 990.3 870.1 1002.4 867.1 1014.4C866.1 1018.2 867.3 1019.4 870.9 1019.6C875.5 1019.9 880.2 1019.7 884.8 1020.9C886.6 1022.6 886.4 1024.8 886.4 1027C886.4 1045.5 886.4 1064 886.4 1082.5C886.4 1085 886 1087.5 885 1089.8C873.7 1109.5 862.4 1129.2 850.9 1148.8C849 1152 849 1154 851.4 1157C862.8 1171 873.8 1185.1 885 1199.2Z" fill="#FEFEFE"/>
<path d="M547.301 363.1C609.901 363.1 672.501 363.1 735.201 363.1C741.601 363.1 741.601 363.1 740.401 369.6C740.001 371.7 740.201 373.9 740.101 376.1C739.101 376.7 738.101 377.3 737.101 378C728.801 383.4 727.701 388.9 733.201 398.7C731.101 401.5 728.001 400.5 725.301 400.5C682.001 400.6 638.601 400.5 595.301 400.6C583.201 400.6 584.501 399.2 584.501 411.7C584.501 591.7 584.501 771.6 584.501 951.6C584.501 956.1 584.301 960.6 583.201 965C575.501 982.8 567.901 1000.7 560.201 1018.5C556.101 1028.1 551.901 1037.7 547.701 1047.3C546.601 1045.6 547.101 1043.7 547.101 1041.9C547.001 817.2 547.001 592.6 547.001 368C547.001 366.4 547.201 364.7 547.301 363.1Z" fill="#FEFEFE"/>
<path d="M650.1 519.9C650.2 516.2 648.6 512.8 648 509.2C642 473.8 669.8 443.6 705.8 446.1C707.4 447.3 707.7 449.2 708.2 450.9C718.2 489.6 728.7 528.2 738.3 567C741.7 580.9 746.2 593.4 757.1 603.5C767.5 613.1 776.3 624.3 786.1 634.5C786.9 635.3 787.6 636.3 788.7 636.7C789.4 636.7 789.5 636.2 789.5 635.7C789 623.9 790.8 612.1 790.6 600.3C790.2 576.5 791.5 552.7 791.9 528.9C792.2 505.8 793.1 482.7 793.7 459.5C793.7 457.5 793.5 455.5 795 453.8C798.1 452.6 800.6 454.2 802.9 455.6C813.5 462.1 818.4 471.8 818.5 484C818.6 506.7 818.5 529.3 818.5 552C818.5 553.3 818.5 554.7 818.5 556C818.6 561.8 819 562.1 824.5 560.9C844.3 556.5 864.1 551.9 884 547.8C885.1 547.7 886.2 547.3 887.3 547C890 546.5 892.8 545.8 895.5 545.2C897.4 544.8 899.4 544.3 901 546.1C900.6 549.1 898.5 551.1 897 553.5C887.4 567.8 881.4 583.5 878.3 600.4C877.2 606.6 878.3 612.7 879.1 618.8C878.1 620.7 876.2 620.9 874.5 621.4C849.6 628.1 824.8 635 799.9 641.8C794.2 643.4 794.2 643.3 797.9 647.8C805.9 657.4 815 665.9 822.9 675.6C824.3 677.3 826.5 679 824 681.5C812.1 691.1 799.8 700.3 787.5 709.5C786.2 710.5 784.8 711.5 783.1 711.7C782.5 712 781.9 712.3 781.4 712.7C774 717.5 774 717.5 767.7 711C764.1 707.4 760.6 703.7 757.1 700C754.8 699.6 753.5 697.7 752 696.2C734.1 679 717.1 661 700 643C681.9 623.9 670.4 600.9 663.8 575.5C659.8 560 655.9 544.5 651.6 529.1C650.9 526.1 650.8 523 650.1 519.9Z" fill="#C57142"/>
<path d="M650.1 519.9C654.4 531.6 656.7 543.8 660 555.8C664.5 572.3 668.1 589 675.5 604.6C684.9 624.5 698.7 640.9 714.2 656.2C728.7 670.6 742.9 685.4 757.2 700.1C755.2 702 752.7 701 750.6 700.9C718.7 698.8 686.8 696.5 654.9 694.3C645.3 693.6 635.7 693 626.2 692.3C628.4 676.3 630.4 660.4 632.7 644.4C638.2 605.2 643.7 566 649.3 526.9C649.4 524.5 649.8 522.2 650.1 519.9Z" fill="black"/>
<path d="M783.2 711.8C794.8 702.9 806.3 694 817.9 685.1C819.6 683.8 821.3 682.5 823 681.2C828.9 684.5 835 687.5 841.3 690C849.8 693.4 856.9 698.6 862.5 705.8C864.1 708.9 865.5 712.1 866.9 715.3C867.6 716.8 868.5 718.7 866.9 719.9C865 721.4 863.5 719.6 862.2 718.4C858.1 714.5 854.2 710.4 850.1 706.5C849.5 705.9 848.9 705.3 847.2 705.4C850.6 709.9 854.4 713.5 858.3 716.7C862.3 720 866.2 723.5 869.4 727.5C876.2 736.2 877.8 746.6 865.7 754.9C862.8 757.1 860.5 760.1 857.2 761.7C849.2 765.6 840.6 764.4 833.7 758.2C823 748.5 812.4 738.8 801.8 729.1C801 728.3 800 727.7 799.1 727C798.8 726.7 798.4 726.3 798.1 726C794 724 791.1 720.8 788.8 716.9C786.9 715.2 785.1 713.5 783.2 711.8Z" fill="#FD9993"/>
<path d="M735.9 400.8C722.9 400.9 709.9 400.9 696.9 400.9C662.1 400.9 627.2 400.9 592.4 400.9C585.1 400.9 585.1 400.9 585.1 407.9C585.1 545.4 585.1 682.8 585.1 820.3C585.1 864.6 585.1 908.9 585.1 953.3C585.1 955.5 585.2 957.6 585.2 959.8C584.7 961.5 584.3 963.3 583.1 964.7C583.1 963 583 961.4 583 959.7C583 774.9 583 590.2 583 405.4C583 398.7 583 398.7 589.6 398.7C635.3 398.7 680.9 398.7 726.6 398.7C728.8 398.7 730.9 398.6 733.1 398.5C734.2 399.1 735.3 399.7 735.9 400.8Z" fill="#5882AE"/>
<path d="M788.8 716.9C791.9 719.9 795.6 722.4 798.1 726C794.8 728.8 791.6 731.7 788.2 734.4C784.9 737.1 781.3 737.2 778.5 733.9C775.7 730.7 776.2 727.1 779.4 724.2C782.3 721.4 785.1 718.5 788.8 716.9Z" fill="#010100"/>
<path d="M618.001 778.9C617.401 789.9 616.601 801 615.001 811.9C613.201 812.6 612.201 811.2 611.301 810.1C603.801 801.8 605.201 786.8 614.101 779.9C615.201 779 616.301 777.8 618.001 778.9Z" fill="#FDFDFD"/>
<path d="M618 778.9C605.3 785.6 603.8 802.4 615 811.9C615 812.9 614.9 813.9 614.9 814.8C600.6 803.6 602.2 783.9 618.1 776C618.1 777 618 777.9 618 778.9Z" fill="#6289B3"/>
<path d="M901 546.2C896.1 545.5 891.8 548.4 887 548.2C884.9 546 885.6 543.2 885.6 540.6C885.6 497.7 885.6 454.7 885.6 411.8C885.6 410.1 885.6 408.5 885.6 406.8C885.5 400.9 885.2 400.5 879.4 400.5C864.8 400.5 850.1 400.5 835.5 400.5C833.3 400.5 831.2 400.7 829.1 400.1C828.3 399.7 827.6 399.2 827.5 398.2C827.7 396 829.8 395.5 831.3 394.6C841.8 388.2 842.9 376.7 833.8 368.3C832.7 367.3 831.3 366.6 831.1 364.9C832 362 834.4 363.2 836.2 363.2C868.2 363.1 900.2 363.1 932.1 363.1C933.6 364.7 932.8 366.6 932.9 368.3C932.9 406.4 932.9 444.5 932.9 482.6C932.9 484.8 933 486.9 933.1 489.1C924.5 508.4 914.2 526.8 902.9 544.6C902.4 545.2 901.7 545.6 901 546.2Z" fill="#FEFEFE"/>
<path d="M933 729.9C929 747.5 925.1 765.2 921 782.8C912 821.6 903 860.3 894 899.1C893.9 899.7 894.5 900.9 893.2 900.8C892.8 900.8 892.5 899.8 892.1 899.2C889.8 897.2 890.2 894.3 890 891.7C888.5 872.3 885.8 853 885.4 833.5C885.5 793.3 885.4 753.1 885.5 712.9C885.5 710.1 885.4 707.3 885.7 704.4C888.3 699.7 888.9 695.1 885.8 690.4C885.3 673.4 885.7 656.4 885.6 639.4C885.6 637.7 885.6 636 887 634.8C894.4 642 902.1 648.6 912.5 651.1C919.2 652.7 925.9 652.6 932.7 652.9C934 654 934.3 655.4 934.3 657C934.3 678.2 934.7 699.3 934 720.5C934 723.7 933.7 726.9 933 729.9Z" fill="#FEFEFE"/>
<path d="M861.8 706.2C852.9 695 839.7 690.8 827.5 685C825.7 684.1 823 684.2 823 681.2C826.3 679.3 823.6 677.9 822.4 676.7C812.9 666.2 803.3 655.8 793.8 645.4C793.2 644.8 792.7 644.2 791.4 642.8C821 634.7 850 626.8 879 618.8C881 623.2 882.9 627.6 884.9 632C886.1 633.8 885.9 635.8 885.9 637.8C885.9 653.5 885.9 669.2 885.9 684.9C885.9 687.2 886.4 689.6 883.9 691.1C877 693.9 872.3 699.8 866.4 704C865.1 704.9 864 706.8 861.8 706.2Z" fill="#FEFEFE"/>
<path d="M861.8 706.2C866.9 702 871.9 697.7 877 693.5C878.5 692.2 880 690.8 882.1 690.8C883.9 690.5 885.7 689.9 887 691.9C890.8 696.6 890.8 698.4 887 703.2C886.1 704.2 885.8 705.7 884.7 706.6C878.6 710.6 877.3 715.8 878 723.2C880.2 744.1 882.1 765.1 883.5 786.1C884 793.4 885.1 800.6 885.4 807.9C886.2 816.6 886.2 825.4 886.8 834.1C888.6 855.8 890.4 877.5 892.2 899.2C892.5 914.6 886.3 928.7 883.7 943.6C883.4 945.3 882.7 943.1 882.1 943.2C879.5 913.4 877 883.6 874.4 853.7C871.9 825.4 869.4 797 866.9 768.7C866.5 764.1 866 759.4 865.6 754.8C866.8 753.4 867.9 752 869.1 750.6C875.3 743.6 874.9 734.6 867.8 727.4C861.1 720.7 854.1 714.3 847.4 707.7C846.2 706.6 843.7 705.4 845.8 703.4C847.5 701.8 848.8 703.9 849.9 704.9C855.3 710 860.6 715.1 866.8 720.9C866.6 714.7 863 710.9 861.8 706.2Z" fill="black"/>
<path d="M906.1 1053.7C902.4 1060.7 898.7 1067.6 894.1 1074.1C892.1 1072.7 891.8 1070.5 891.7 1068.4C890.8 1053.8 889.1 1039.4 888.1 1024.8C888 1023.4 888.1 1022.2 889.2 1021.2C893.8 1021.5 898.4 1021.9 903 1022.2C904.3 1023.4 904.8 1025 904.9 1026.7C905.6 1034.8 906.5 1042.8 906.8 1050.9C906.8 1051.8 906.5 1052.8 906.1 1053.7Z" fill="#010101"/>
<path d="M935.101 653C938.901 653.1 942.801 653.1 946.601 653.2C949.301 653.3 950.601 654.5 950.001 657.3C945.401 678.5 940.901 699.8 935.201 720.8C933.701 719.5 934.101 717.7 934.101 716.1C934.101 696.6 934.101 677.2 934.101 657.7C934.001 656.1 933.801 654.4 935.101 653Z" fill="#FEFEFE"/>
<path d="M906.1 1053.7C905.1 1043.2 904 1032.7 903 1022.2C909.3 1023.6 916 1022.1 922.1 1024.8C920.6 1028 919.2 1031.3 917.7 1034.5C913.8 1040.8 910 1047.2 906.1 1053.7Z" fill="#FDFDFD"/>
<path d="M889.201 1021.1C890.801 1038.8 892.501 1056.4 894.101 1074.1C891.901 1078.2 889.701 1082.2 887.401 1086.3C885.701 1085.2 886.001 1083.4 886.001 1081.8C886.001 1062.9 886.001 1044.1 886.001 1025.2C886.001 1023.7 885.901 1022.2 887.001 1021C887.801 1021 888.501 1021.1 889.201 1021.1Z" fill="#FDFDFD"/>
<path d="M1019.3 597.5C1020 598 1020.6 598.6 1021.3 599.1C1021 601.5 1019.3 601.3 1017.6 601.2C1003.6 600.4 989.7 599.6 975.7 598.8C974.3 598.7 972.2 598.9 972.2 596.9C972.2 594.3 974.4 594.9 975.9 595C990.4 595.8 1004.8 596.6 1019.3 597.5Z" fill="#020405"/>
<path d="M966.101 567.1C964.701 575.6 963.601 584.2 961.801 592.6C960.801 597.4 956.501 594.6 953.901 594.4C950.601 594.1 952.601 591.7 953.301 590.3C957.201 581.9 961.201 573.4 965.201 565C967.001 565.1 966.401 566.1 966.101 567.1Z" fill="#FB9A95"/>
<path d="M935.101 653C935.101 675.6 935.101 698.2 935.201 720.8C934.801 723.9 934.601 727.1 933.101 729.9C933.001 706.9 933.001 684 932.901 661C932.901 658.3 932.901 655.7 932.801 653C933.501 653.1 934.301 653.1 935.101 653Z" fill="#5882AE"/>
<path d="M887.1 1021C887.1 1041.6 887 1062.2 887.1 1082.8C887.1 1083.9 887.4 1085.1 887.5 1086.2C886.7 1087.4 885.9 1088.6 885.1 1089.8C885 1066.9 885 1043.9 884.9 1021C885.6 1021 886.3 1021 887.1 1021Z" fill="#5881AE"/>
<path d="M887.001 691.8C885.401 691.4 883.701 691.1 882.101 690.7C884.901 690.2 884.901 688.1 884.901 685.9C884.901 667.9 885.001 650 885.001 632C886.301 632.6 886.901 633.7 887.001 635C887.001 654 887.001 672.9 887.001 691.8Z" fill="#5881AE"/>
<path d="M966.1 567.1C965.8 566.4 965.5 565.8 965.2 565.1C965.5 564.2 965.6 563.2 966.7 562.7C967.3 564.3 967.1 565.8 966.1 567.1Z" fill="#DCA0A4"/>
<path d="M1139.1 773.9C1141.1 773.8 1143.1 773.6 1145.1 773.6C1254.9 773.6 1364.7 773.6 1474.5 773.6C1481.2 773.6 1481.2 773.6 1481.2 780.3C1481.2 795.8 1481.1 811.3 1481.3 826.8C1481.4 830.7 1480.3 831.8 1476.3 831.8C1368.7 831.7 1261 831.7 1153.4 831.7C1153.1 831.7 1152.7 831.7 1152.4 831.8C1147.9 812.5 1143.5 793.2 1139.1 773.9Z" fill="#FEFEFE"/>
<path d="M1156.8 851.8C1157 849.3 1158.9 849.7 1160.5 849.7C1164 849.7 1167.5 849.7 1171 849.7C1272.3 849.7 1373.6 849.7 1474.9 849.6C1479.9 849.6 1481.3 850.8 1481.2 855.9C1480.8 871.1 1481.1 886.2 1481.1 901.4C1481.1 907.9 1481.1 907.9 1474.8 907.9C1371 907.9 1267.2 907.9 1163.4 907.9C1161.2 907.9 1159.1 908 1156.9 908C1156.1 905 1156.4 902.1 1156.7 899.1C1157 886.6 1157.3 874.2 1157.6 861.7C1157.8 858.4 1157.7 855.1 1156.8 851.8Z" fill="#FEFEFE"/>
<path d="M1069 1199.2C1058.3 1192.2 1047.5 1185.4 1036.9 1178.2C1033.7 1176 1031.4 1175.7 1028.1 1178.1C1020 1183.9 1011.6 1189.3 1003.4 1194.9C1000.7 1184 996.4 1173.7 991 1163.9C989.7 1161.5 989.5 1158.8 989.5 1156.2C989.5 1129.4 989.5 1102.7 989.5 1075.9C989.5 1073.1 989.7 1070.2 990.9 1067.6C991.1 1066.8 991.4 1065.9 991.6 1065.1C1005.6 1040.9 1020 1016.8 1032.8 991.9C1034.5 990.5 1036.5 990.5 1038.5 990.5C1048.7 990.5 1058.8 990.5 1069 990.5C1075.2 990.5 1076.2 991.5 1076.2 997.9C1076.1 1028.2 1076.7 1058.5 1075.7 1088.8C1075.5 1095.6 1075.9 1102.4 1075 1109.2C1075.4 1138.2 1071.5 1166.9 1069.6 1195.8C1069.6 1196.9 1069.2 1198 1069 1199.2Z" fill="#FEFEFE"/>
<path d="M1156.2 914.8C1156.4 910.7 1158.6 909.9 1162.6 909.9C1221.2 910.1 1279.8 910.1 1338.5 909.9C1342.9 909.9 1344.5 910.8 1344.4 915.5C1344.1 933.1 1344.1 950.8 1344.4 968.5C1344.5 972.7 1343.3 973.8 1339.1 973.8C1279.8 973.7 1220.5 973.7 1161.2 973.7C1159.2 973.7 1157.2 973.7 1155.2 973.8C1155.5 954.1 1155.8 934.5 1156.2 914.8Z" fill="#FEFEFE"/>
<path d="M1039.7 972.9C1046.4 948.5 1043.9 923.7 1043.5 898.9C1043 865.3 1042.2 831.7 1041.5 798.1C1041 774.3 1040.6 750.5 1039.9 726.7C1039.8 723.1 1040.7 722 1044.4 721.6C1048 721.2 1049.5 721.5 1050.4 725.6C1060.7 772.5 1071.3 819.3 1081.8 866.2C1083.3 873.1 1082.2 880.1 1082.1 887.1C1081.7 915.7 1081.2 944.3 1080.7 973C1079.7 974.1 1078.4 974.3 1077.1 974.3C1065.1 974.2 1053.2 974.8 1041.2 974C1040.6 973.8 1040.1 973.4 1039.7 972.9Z" fill="#6DB5DE"/>
<path d="M1155 976C1245.3 976 1335.6 976 1425.9 975.9C1442.7 975.9 1459.6 976 1476.4 975.8C1479.9 975.8 1481.4 976.4 1481.3 980.4C1481.1 989 1481.3 989 1472.5 989C1369.2 989 1265.9 989 1162.7 989C1155.5 989 1155.5 989 1154.8 982C1154.8 980 1154.9 978 1155 976Z" fill="#FEFEFE"/>
<path d="M1080.8 976C1080.8 976.7 1080.8 977.4 1080.9 978.1C1080.1 980.7 1080.5 983.4 1080.6 986C1080.7 989.1 1079.2 990.3 1076.5 990.3C1063.9 990.5 1051.3 990.5 1038.7 990.3C1036.9 990.3 1034.4 990.2 1034.9 987.1C1036.3 983.3 1037.6 979.6 1039 975.8C1040.5 974.5 1042.3 974.5 1044.2 974.5C1054.7 974.5 1065.3 974.5 1075.8 974.5C1077.5 974.6 1079.4 974.5 1080.8 976Z" fill="#FCFDFD"/>
<path d="M1034.9 987.1C1035 989 1036.3 989 1037.7 989C1050.8 989 1063.9 988.9 1077 989H1079.5C1079.6 1012.8 1078.7 1045.5 1077.5 1069.8C1077.3 1072.5 1077.9 1075.3 1077.2 1078C1077 1088.4 1076.4 1098.8 1075.1 1109.2L1075.1 1108.92C1075 1099.51 1074.9 1090.21 1074.9 1080.8C1074.9 1052.9 1074.8 1025 1075 997C1075 992.5 1073.7 991.5 1069.4 991.6C1057.3 991.9 1045.1 991.8 1033 991.9C1033.6 990.2 1033.6 988.4 1034.9 987.1Z" fill="#5881AD"/>
<path d="M1080.8 976C1066.8 975.9 1052.9 975.9 1038.9 975.8C1038.9 974.8 1038.8 973.7 1039.6 972.9C1039.8 972.8 1040 972.8 1040.2 972.9C1045.9 974 1051.7 973.2 1057.4 973.4C1065.1 973.7 1072.9 972.9 1080.6 973.8C1080.8 974.6 1080.8 975.3 1080.8 976Z" fill="#5881AD"/>
<path d="M1080.7 973.9C1068.4 973.9 1056.1 974 1043.8 973.9C1042.6 973.9 1041.1 974.5 1040.3 972.9C1053.8 972.9 1067.3 972.9 1080.8 972.9C1080.9 973.3 1080.9 973.6 1080.7 973.9Z" fill="#9ABCD7"/>
<path d="M1156.8 899.1C1156.9 902.1 1156.9 905 1157 908C1155.3 905.1 1156.1 902.1 1156.8 899.1Z" fill="#5A83AF"/>
<path d="M988.501 1160.4C980.901 1148.7 971.3 1138.9 959.8 1131.1C958 1129.8 956.301 1129 958.001 1126.1C968.201 1108.1 978.201 1089.9 988.201 1071.8C988.301 1071.5 988.7 1071.4 988.9 1071.1C990.4 1072.6 990.001 1074.5 990.001 1076.3C990.001 1102.5 990.001 1128.7 990.001 1154.9C990.001 1156.8 990.601 1159 988.501 1160.4Z" fill="#FDFDFD"/>
<path d="M988.5 1160.4C988.7 1159.6 989 1158.8 989 1158C989 1129.1 988.9 1100.1 988.9 1071.2C989 1069.7 989.9 1068.5 991 1067.6C991.1 1090.1 991.2 1112.5 991.2 1135C991.2 1144.6 991.1 1154.3 991 1163.9C990.2 1162.7 989.4 1161.5 988.5 1160.4Z" fill="#5881AE"/>
<path d="M1017.9 341.2C1016.4 339.9 1017.1 338.1 1017.1 336.5C1017.1 308.7 1017.2 280.9 1017 253C1017 248.9 1018.3 248.1 1022.1 248.1C1183 248.2 1344 248.2 1504.9 248.1C1509 248.1 1510.2 249.1 1510.2 253.3C1510.1 358.8 1510.1 464.2 1510.2 569.7C1510.2 574.6 1508.2 574.9 1504.4 574.9C1370.9 574.8 1237.5 574.8 1104 574.8C1104.1 557.1 1104.3 539.5 1104.4 521.8C1106.2 520.2 1108.5 520.5 1110.6 520.5C1119.6 520.5 1128.6 520.5 1137.6 520.5C1143.4 520.5 1143.5 520.4 1143.5 514.7C1143.5 494.1 1143.5 473.4 1143.5 452.8C1143.5 439.2 1143.4 425.5 1143.6 411.9C1143.7 407.8 1142.3 406.4 1138.1 406.4C1126 406.6 1113.8 406.5 1101.6 406.4C1099.3 406.4 1096.9 406.8 1094.8 405.4C1092.7 402 1092.9 398.5 1094.5 395C1096.4 393.3 1098.9 393.7 1101.1 393.7C1113.5 393.6 1126 393.7 1138.4 393.7C1140.2 393.7 1142.5 394.1 1143 391.8C1143.7 389.1 1144 386.1 1142.7 383.5C1141.9 382 1140 382.6 1138.6 382.6C1126 382.6 1113.4 382.6 1100.8 382.6C1098 382.6 1095 382.8 1093.5 379.6C1093.2 379.1 1092.9 378.6 1092.7 378C1092.1 376 1091.2 374 1093 372.1C1102.4 369.5 1105 360.1 1098.9 350.5C1094.5 343.7 1087.5 340.7 1080.2 338.1C1067 333.5 1053.6 336.1 1040.2 336.7C1032.7 337 1025.2 338.9 1017.9 341.2Z" fill="#FEFEFE"/>
<path d="M1095 406.9C1089.7 427 1073.6 431.6 1056 434.1C1054.7 441 1055.9 448.1 1055.3 455C1054.2 457 1054.4 459.2 1054.4 461.3C1054.4 471.6 1054.5 481.8 1054.3 492.1C1054.3 494.1 1055.3 497 1051.9 497.7C1051.9 485.3 1051.8 472.8 1052 460.4C1052.1 456.9 1051.4 455.4 1047.5 455.6C1039.1 456 1030.6 455.9 1022.1 455.9C1021.9 455.8 1021.8 455.6 1021.7 455.4C1019.7 449.5 1019.4 443.7 1022 437.9C1029.3 438.7 1036.5 439.5 1044.6 437.2C1037.1 428.8 1029.9 420.8 1022.5 412.6C1025.7 411.2 1028.7 410.1 1031.4 408.6C1039.9 404.1 1045.2 397 1044.7 387.4C1043.6 366.4 1054.4 352.6 1070.5 341.4C1073 339.7 1074.9 339.8 1077.3 341C1086.6 345.6 1090.4 353.7 1091.7 363.5C1092.1 366.3 1092.5 369.1 1092.9 371.9C1093.1 373.5 1093.3 375.2 1093.6 376.8C1092.7 378.1 1090 377.2 1090.1 379.5C1090.3 381.7 1092.6 380.9 1093.9 381.6C1094.8 382.1 1095.2 383 1095.4 384C1096 387 1096.2 389.9 1095.9 392.9C1095.8 393.7 1095.4 394.3 1095 395C1094.9 398.2 1094.9 401.4 1094.8 404.6C1095.6 405.5 1095.6 406.2 1095 406.9Z" fill="#FD9993"/>
<path d="M1052 497.9C1053.6 496.6 1052.9 494.8 1052.9 493.3C1053 482.4 1052.9 471.4 1053 460.5C1053 458.7 1052.1 456.3 1054.9 455.5C1055.4 455.5 1055.7 455.7 1055.9 456.1C1056 468.7 1056.2 481.4 1056.1 494C1056.1 497.2 1056.8 498.2 1060.2 498.2C1070.6 498.5 1076.8 505 1076.8 515.4C1076.9 531.7 1076.9 548 1076.8 564.4C1076.8 573 1071.4 579.6 1063.7 580.9C1062.1 581.2 1059.6 582.1 1059.2 579.5C1058.8 577.2 1061.2 577.4 1062.8 577.1C1069.1 575.8 1073 571.4 1073 564.9C1073.1 548.1 1073.1 531.3 1073 514.4C1072.9 507.1 1067.9 502.3 1060.7 502.1C1055.9 502 1051 502 1046.2 502.1C1039.5 502.3 1034.3 506.9 1034.2 513.6C1034 530.9 1034 548.2 1034.2 565.6C1034.3 571.7 1038.4 576 1044.6 577.2C1046.2 577.5 1048.5 577.3 1047.9 579.7C1047.4 581.9 1045.2 581.2 1043.6 581C1036.3 580 1030.4 573.6 1030.3 565.7C1030.1 548.4 1030 531.1 1030.3 513.7C1030.4 505 1037.3 498.6 1046.1 498.1C1048 498 1050 497.9 1052 497.9Z" fill="#FDFDFC"/>
<path d="M1095 406.9C1095 406.2 1095.1 405.4 1095.1 404.7C1110.2 404.7 1125.4 404.8 1140.5 404.7C1143.8 404.7 1145.1 405.5 1145.1 409.1C1145 445.2 1145 481.3 1145.1 517.3C1145.1 521 1143.6 521.7 1140.4 521.7C1128.4 521.6 1116.5 521.8 1104.5 521.8C1104 514.5 1104.1 507.2 1104.7 499.9C1104.7 505.1 1104.9 510.2 1104.8 515.4C1104.7 518.1 1105.5 519.2 1108.4 519.2C1118.7 519 1129.1 519 1139.4 519.2C1142.4 519.2 1143 518.1 1143 515.4C1142.9 480.6 1142.9 445.8 1143 411C1143 407.4 1141.5 407 1138.5 407C1123.9 407 1109.5 406.9 1095 406.9Z" fill="#5A84B0"/>
<path d="M1055.9 456C1055.6 455.8 1055.2 455.6 1054.9 455.4C1054.9 449.8 1054.9 444.2 1055.1 438.7C1055.1 437.2 1054.3 435.4 1056.1 434.2C1056.1 439.8 1056.3 445.5 1056.1 451.1C1056 454.2 1057.1 455.1 1060.1 455C1067.6 454.8 1075 454.9 1082.5 455C1084.1 455 1085.8 454.4 1087.3 455.7C1087.8 457.8 1088 459.8 1087.1 461.8C1086.8 461.5 1086.4 461.3 1086.1 461C1085.2 460.3 1085.1 458.8 1083.9 458.3C1082 458.1 1080.2 457.2 1078.3 457.7C1070.9 455.1 1063.3 455.8 1055.9 456Z" fill="#5882AE"/>
<path d="M1078.1 457.8C1080.3 456.2 1082.7 457.3 1085 457C1085.3 457.4 1085.3 457.8 1085.1 458.2C1084.2 459.2 1082.9 458.3 1081.9 458.9C1080.7 458.6 1079.4 458.2 1078.1 457.8Z" fill="#D5D7DC"/>
<path d="M1087 461.8C1087.1 459.8 1087.1 457.7 1087.2 455.7C1088.6 457.8 1087.8 460 1087.8 462.2C1087.4 462.2 1087.1 462.1 1087 461.8Z" fill="#6387AF"/>
<path d="M1085.1 458C1085.2 457.7 1085.2 457.4 1085 457.1C1086.4 458.2 1085.8 459.7 1085.9 461.1C1085.3 460.9 1084.8 460.6 1084.2 460.4C1084 459.4 1084.3 458.6 1085.1 458Z" fill="#6387AF"/>
<path d="M1085.1 458C1085.4 459 1085.2 459.8 1084.3 460.4C1083.5 459.9 1082.8 459.5 1082 459C1082.7 457.8 1084 458.1 1085.1 458Z" fill="#FBF9F8"/>
<path d="M381 1066.2C409.7 1066.2 438.3 1066.3 467 1066.1C471.1 1066.1 472.3 1067.1 472.3 1071.3C472.1 1098.8 472.3 1126.3 472.2 1153.8C472.1 1181.7 449.8 1203.9 422 1204.1C394.7 1204.2 367.3 1204.2 340 1204.1C313 1204 290.5 1182 290.1 1155C289.7 1126.8 290.1 1098.7 289.9 1070.5C289.9 1066.9 291.1 1066.1 294.5 1066.1C323.3 1066.2 352.2 1066.2 381 1066.2Z" fill="#EFE4BC"/>
<path d="M299.201 736.9C282.101 739.8 266.401 747.5 249.801 752.2C249.801 752.6 249.801 753.1 249.901 753.6C258.301 754.5 266.601 755.5 275.001 756.1C294.801 757.6 310.601 770.3 314.101 788.2C316.601 800.7 318.801 813.3 321.201 825.9C323.901 839.6 325.201 853.8 329.601 866.9C341.701 903.5 355.101 939.7 368.101 976C368.601 977.2 368.501 978.9 370.301 979.6C372.001 977.8 373.701 976.2 375.101 974.4C381.901 965.3 390.901 958.2 396.201 947.4C406.301 926.7 417.801 906.5 429.301 886.5C437.701 871.9 451.001 865.4 467.901 866.8C474.101 867.3 480.201 868.2 486.401 869C481.101 863.7 475.501 859 469.601 854.8C453.201 843 435.701 841.4 418.601 851.9C404.901 860.3 391.301 869.1 382.001 883C377.001 890.4 371.001 897.1 365.401 904.2C364.601 905.2 364.101 906.6 362.201 906.1C361.801 904.3 363.201 903.4 364.101 902.3C371.301 893.1 378.401 883.9 385.701 874.8C388.001 871.9 389.301 868.9 390.001 865.4C397.701 826.9 405.701 788.5 413.201 750C415.501 737.9 419.401 726.9 428.401 718.2C430.201 716.4 431.801 714.5 433.401 712.6L433.401 712.6C437.301 708.1 441.301 703.5 445.201 698.9C438.701 700.8 432.901 703.5 427.201 706.4C413.201 713.6 403.001 724.6 397.201 739.2C389.701 758 382.301 776.9 377.801 796.8C377.301 799.1 377.201 801.8 374.701 803.7C373.501 800.7 375.201 798.4 375.701 796C378.301 784.6 382.501 773.6 382.101 761.4C381.201 735 381.201 708.5 380.901 682C380.801 678.5 380.801 675.1 381.601 671.6C385.101 656 390.801 641 395.201 625.7C396.901 620 398.701 614.3 400.501 608.3C397.901 608.8 397.301 610.6 396.301 611.8C389.301 620.9 382.601 630.2 375.301 639.1C362.601 654.6 357.001 672.3 357.101 692.2C357.301 725.2 357.301 758.2 357.101 791.2C357.001 804.2 357.201 817.1 361.001 829.7C362.201 833.6 363.001 837.7 363.801 841.8C364.001 843.1 364.701 844.6 363.201 845.9C361.501 844 361.401 842 361.101 840.1C356.101 812.2 345.701 785.8 336.501 759.1C331.201 743.8 315.101 734.2 299.201 736.9Z" fill="#2DBE8A"/>
<path d="M381 1000.2C409.7 1000.2 438.3 1000.3 467 1000.1C471.2 1000.1 472.3 1001.2 472.3 1005.4C472.1 1023.4 472.1 1041.4 472.3 1059.4C472.3 1063.1 471.4 1064.2 467.6 1064.1C410 1064 352.3 1064 294.7 1064.1C291 1064.1 289.9 1063.2 290 1059.4C290.2 1041.2 290.2 1023.1 290 1004.9C289.9 1000.6 291.6 1000.1 295.2 1000.1C323.7 1000.3 352.4 1000.2 381 1000.2Z" fill="#93C8D3"/>
<path d="M221.801 880.5C229.801 874.4 237.401 868.6 245.101 862.8C251.701 857.8 258.401 852.8 265.001 847.8C287.301 831.1 316.701 839.5 326.201 865.7C341.601 908.2 356.601 950.9 371.801 993.5C373.201 997.4 372.501 998.3 368.401 998.1C361.901 997.8 355.401 997.8 348.901 998.1C344.801 998.3 342.901 997.1 341.701 993C332.301 962.1 322.601 931.4 313.001 900.6C305.001 874.9 279.401 861.9 253.901 870.5C245.101 873.5 236.301 876.6 227.501 879.6C225.901 880.1 224.401 881.3 221.801 880.5Z" fill="#31C752"/>
<path d="M492.301 993.9C480.901 985.8 469.501 977.8 458.101 969.7C447.501 962.2 438.101 962.9 429.001 972C421.301 979.7 413.601 987.3 406.101 995C404.101 997.1 402.101 998.1 399.101 998C392.601 997.8 386.101 997.8 379.601 998C376.901 998.1 375.801 997.1 374.501 994.7C370.001 986.3 371.801 980.3 378.601 973.6C389.701 962.6 399.701 950.5 410.001 938.7C426.801 919.3 452.501 921.5 465.201 943.8C474.601 960.2 483.801 976.8 493.001 993.3C492.801 993.4 492.501 993.7 492.301 993.9Z" fill="#3C9D45"/>
<path d="M779.2 452.1C784.4 453.7 790 452.4 795.2 454.2C793.8 516.3 792.3 578.3 790.9 640.4C788.8 641 788.3 639.1 787.4 638.2C773.6 623.3 759.9 608.3 746.1 593.4C743.7 590.9 742.5 588 741.7 584.7C730.1 539.8 718.3 495 706.6 450.1C706.3 448.8 706.2 447.5 706 446.2C717.4 447.1 728.7 448 740.1 448.9C753 450.2 766 451.7 779.2 452.1Z" fill="black"/>
<path d="M830.038 364.972C837.238 368.972 841.238 374.872 839.938 383.372C838.838 390.772 834.138 395.372 826.938 397.372C824.438 399.172 821.538 398.372 818.838 398.372C817.538 398.172 816.338 397.672 815.138 397.072C812.638 395.472 810.038 393.872 808.438 391.272C807.238 389.372 806.038 389.472 804.438 390.872C801.938 393.172 799.238 394.972 795.738 395.172C795.538 395.172 795.238 395.072 795.038 395.072C783.138 394.972 775.638 389.072 775.038 379.372C774.538 371.472 779.038 364.472 786.438 361.972C794.138 359.372 801.938 362.072 806.438 369.072C807.038 370.072 807.638 370.972 808.338 372.272C813.138 364.872 819.838 362.872 827.838 364.172C828.638 364.472 829.338 364.772 830.038 364.972Z" fill="#010101"/>
<path d="M816.2 396C817.1 396.4 818 396.7 818.8 397.1C821.4 398 824.3 398.1 826.8 399.4C827.6 399.9 828.5 400.3 828.9 401.2C832.2 404.1 836.8 404.4 841 407.1C835.6 410.9 829.8 412 823.7 412.1C818.5 411 813.3 409.7 809.2 406C807.4 404.4 806 404.8 803.9 405.8C794.2 410.8 784.7 409.7 775.6 403.9C774.6 403.3 773.2 402.7 773.4 401.5C773.6 400.1 775.2 400.4 776.2 400.1C782.7 398.3 789.5 398 795.7 395.1H795.6C796.6 394.3 797.9 394.9 798.9 394.3C805.4 390.6 810.9 392.2 816.2 396Z" fill="#ECE9E9"/>
<path d="M1018.5 397.1C1018.5 401.2 1018.4 405.4 1018.5 409.5C1018.5 411.7 1017.8 412.6 1015.6 411.7C1014.5 411.3 1013.4 410.9 1012.3 410.5C1004.2 407.4 999.9 401.7 1000.8 395.1C1001.7 388.9 1008.6 383.1 1016.1 382C1018.5 381.7 1018.5 382.9 1018.5 384.5C1018.5 388.9 1018.5 393 1018.5 397.1Z" fill="#FB9892"/>
<path d="M1017.8 436.9C1016.1 443.2 1017.3 449.6 1017.1 455.9C1016.2 455.9 1015.4 455.8 1014.9 455C1014.9 448.7 1014.9 442.4 1014.9 436.1C1016 436.2 1017 436.1 1017.8 436.9Z" fill="#5780AC"/>
<path d="M1456 1203.1C1443 1194.5 1430.6 1186.5 1418.4 1178.1C1415.1 1175.8 1412.8 1175.9 1409.6 1178.1C1397.8 1186.4 1385.8 1194.5 1373.8 1202.7C1372.2 1201.3 1372.9 1199.7 1372.9 1198.4C1372.9 1131.3 1372.9 1064.2 1372.8 997.1C1372.8 992.7 1373.9 991.5 1378.3 991.6C1402.8 991.8 1427.3 991.8 1451.7 991.6C1455.1 991.6 1456.3 992.4 1456.3 996C1456.2 1064.1 1456.2 1132.2 1456.2 1200.3C1456.3 1200.9 1456.1 1201.6 1456 1203.1Z" fill="#FEFEFE"/>
<path d="M463.4 362.4C463.4 403 430.1 436.1 389.5 435.9C349.3 435.7 316.1 402.3 316.2 362.1C316.3 321.5 349.6 288.2 390.1 288.3C430.7 288.4 463.4 321.5 463.4 362.4Z" fill="#FEFEFE"/>
<path d="M829.001 401.1C828.301 400.8 827.701 400.5 827.001 400.2C826.401 399.2 827.101 398.9 827.901 398.7C845.901 398.7 863.801 398.8 881.801 398.6C885.901 398.6 887.101 399.6 887.101 403.8C887.001 452 887.001 500.1 887.001 548.2C886.401 548.9 885.701 549 884.801 548.9C884.801 501.4 884.701 453.9 884.901 406.5C884.901 402.1 883.901 400.9 879.401 401C862.701 401.2 845.801 401.1 829.001 401.1Z" fill="#5982AF"/>
<path d="M827.9 398.8C827.6 399.3 827.3 399.8 827 400.3C824.1 399.8 821.4 398.7 818.9 397.1C821.9 397.2 824.9 397.2 827.9 397.3C827.9 397.7 827.9 398.3 827.9 398.8Z" fill="#D58782"/>
<path d="M886.801 834.1C885.901 825.4 885.101 816.6 884.201 807.9C884.901 798.1 883.401 788.4 883.401 778.6C883.301 756.4 883.401 734.1 883.401 711.9C883.401 709.5 883.601 707.3 884.901 705.2C885.601 704.5 886.301 703.8 887.001 703.2C887.001 746 887.101 788.9 887.101 831.7C887.101 832.5 886.901 833.3 886.801 834.1Z" fill="#5881AE"/>
<path d="M884.901 705.2C884.901 737.3 884.901 769.4 884.801 801.5C884.801 803.6 885.301 805.8 884.201 807.9C881.701 779.2 879.701 750.5 876.401 721.9C875.401 713.3 878.301 708.8 884.901 705.2Z" fill="#FAFBFC"/>
<path d="M1283.2 463.5C1283.2 445.5 1283.3 427.5 1283.1 409.5C1283.1 405.8 1284.1 404.7 1287.9 404.7C1315.4 404.8 1342.9 404.8 1370.4 404.7C1374 404.7 1374.9 405.9 1374.9 409.3C1374.8 445.1 1374.8 480.9 1374.9 516.8C1374.9 520.4 1373.9 521.8 1370.1 521.8C1342.8 521.7 1315.5 521.7 1288.1 521.8C1284.1 521.8 1283.1 520.3 1283.1 516.5C1283.3 498.8 1283.2 481.1 1283.2 463.5Z" fill="#6189B3"/>
<path d="M1165.8 451.4C1165.8 429.6 1165.9 407.7 1165.7 385.9C1165.7 382.2 1166.7 381.1 1170.4 381.1C1197.7 381.3 1225.1 381.2 1252.4 381.1C1255.9 381.1 1256.9 382.1 1256.9 385.6C1256.8 429.4 1256.8 473.2 1256.9 517.1C1256.9 520.5 1256 521.8 1252.4 521.8C1225.1 521.7 1197.7 521.7 1170.4 521.8C1166.6 521.8 1165.6 520.6 1165.6 516.9C1165.9 495 1165.8 473.2 1165.8 451.4Z" fill="#5C85B0"/>
<path d="M1399.8 463C1399.8 445.2 1399.9 427.3 1399.7 409.5C1399.7 405.9 1400.5 404.6 1404.4 404.6C1431.7 404.8 1459 404.8 1486.4 404.6C1490.3 404.6 1491.1 405.9 1491.1 409.5C1491 445.3 1491 481.1 1491.1 517C1491.1 520.9 1489.7 521.7 1486.2 521.7C1459 521.6 1431.9 521.6 1404.7 521.7C1400.6 521.7 1399.7 520.2 1399.8 516.5C1399.9 498.7 1399.8 480.9 1399.8 463Z" fill="#5A83AF"/>
<path d="M1329.2 395.1C1315.6 395.1 1301.9 395 1288.3 395.2C1284.5 395.3 1283 394.3 1283.1 390.3C1283.4 379.7 1282.2 381.2 1292.1 381.2C1317.7 381.1 1343.3 381.3 1368.9 381.1C1373.5 381.1 1375 382.3 1374.8 387C1374.4 396.7 1375.8 395.1 1366.6 395.2C1354.1 395.2 1341.7 395.1 1329.2 395.1Z" fill="#6188B3"/>
<path d="M1246 317.9C1232.2 317.9 1218.4 317.8 1204.6 318C1201.1 318 1200 316.8 1200 313.4C1200 303.9 1199.9 303.9 1209.4 303.9C1234.9 303.9 1260.3 304 1285.8 303.8C1290.3 303.8 1292.4 304.8 1291.7 309.6C1291.5 310.9 1291.6 312.3 1291.7 313.6C1292 317.1 1290.4 318.1 1286.9 318.1C1273.3 317.8 1259.6 317.9 1246 317.9Z" fill="#6189B3"/>
<path d="M1445.4 381.2C1458.9 381.2 1472.4 381.3 1485.9 381.1C1489.7 381 1491.2 381.9 1491 386C1490.7 395.1 1491 395.1 1481.7 395.1C1456.2 395.1 1430.7 395 1405.3 395.2C1401.1 395.2 1399.4 394.5 1399.6 389.8C1400 381.1 1399.7 381.1 1408.4 381.1C1420.8 381.2 1433.1 381.2 1445.4 381.2Z" fill="#6188B3"/>
<path d="M1330.7 317.9C1323.2 317.9 1315.7 317.8 1308.2 318C1305 318.1 1303.8 316.9 1303.9 313.7C1304.2 301.7 1302.4 304.1 1313.5 304C1326.7 303.8 1339.8 304.1 1353 303.9C1356.3 303.9 1357.3 304.8 1357.2 308.1C1356.9 320.2 1358.6 317.8 1347.6 318C1342.1 318 1336.4 317.9 1330.7 317.9Z" fill="#6188B3"/>
<path d="M1095.3 395.1C1095.3 394.4 1095.3 393.7 1095.3 393C1097.4 391.1 1100 391.6 1102.4 391.5C1113 391.4 1123.6 391.5 1134.3 391.5C1136 391.5 1137.6 391.6 1139.2 391.1C1140.5 390.7 1141.1 389.8 1141.1 388.5C1141.1 387.2 1140.5 386.3 1139.2 386C1137.6 385.6 1135.9 385.6 1134.2 385.6C1123.4 385.6 1112.6 385.6 1101.8 385.6C1099.4 385.6 1096.7 386.2 1095 383.7C1094.7 383.1 1094.3 382.6 1094 382C1092.9 380.6 1092.9 379.3 1094.3 378.1C1095.1 380.5 1096.7 381.3 1099.3 381.2C1112.9 381 1126.6 381.2 1140.2 381C1143.7 381 1145.2 381.6 1145.1 385.6C1144.9 395.1 1145.1 395.1 1135.7 395.1C1122.2 395.1 1108.7 395.1 1095.3 395.1Z" fill="#638AB3"/>
<path d="M1094.2 378.1C1094.1 379.4 1094 380.7 1093.9 382C1092.1 382.8 1090.4 383.2 1089 381.5C1088 380.4 1088.1 379 1088.9 377.8C1090.2 375.7 1092 376.5 1093.7 377C1093.9 377.3 1094 377.7 1094.2 378.1Z" fill="#1F1514"/>
<path d="M1095 383C1109.1 383 1123.2 383.1 1137.3 383C1140.9 383 1143 383.1 1143.1 387.8C1143.1 392.5 1140.9 392.3 1137.6 392.3C1123.5 392.2 1109.4 392.3 1095.3 392.3C1095.2 389.3 1095.1 386.2 1095 383Z" fill="#FDFDFE"/>
<path d="M1061.1 381C1060.9 382.8 1059.6 383.8 1057.7 383.6C1056.1 383.4 1054.9 382.3 1054.9 380.5C1054.9 378.5 1056.3 377.4 1058.1 377.4C1060.1 377.5 1061.2 378.8 1061.1 381Z" fill="#150D0C"/>
<path d="M793.001 391C785.501 391 779.801 385.2 779.901 377.6C780.001 370.3 785.601 364.7 793.001 364.7C800.301 364.7 806.001 370.3 806.101 377.5C806.201 385.2 800.501 391 793.001 391Z" fill="#FD9993"/>
<path d="M828.001 392.9C822.101 394.6 816.501 392.8 813.301 388C810.101 383.3 810.301 377.2 813.601 372.7C817.401 367.7 822.801 366.3 829.901 368.7C830.601 373.1 831.201 377.4 829.401 381.7C827.401 383.1 827.401 380.9 826.701 380.1C826.101 379.5 825.701 378.8 824.701 379.3C824.401 379.5 824.201 379.7 824.201 380.1C824.101 381.1 824.701 381.6 825.501 381.8C826.901 382.3 828.501 382.3 829.001 384C829.501 387.2 830.101 390.2 828.001 392.9Z" fill="#FC9993"/>
<path d="M816.2 396C809.6 392 802.7 394.4 795.9 395C800.3 393.1 804.8 391.5 807.6 386.1C810.1 390.4 812.6 393.7 816.2 396Z" fill="#F39690"/>
<path d="M423.7 393.9C417.5 388.4 412 383.5 406.5 378.6C403.9 376.3 401.3 374 398.7 371.6C396.2 369.2 393.8 367 389.7 368.1C387.3 368.8 385.2 367 384.2 364.7C383.1 362.1 383.2 359 385.8 357.5C388.8 355.8 388.7 353.5 388.7 350.8C388.7 339 388.7 327.2 388.7 315.4C388.7 313.7 388 311.8 389.7 310.1C391.5 311.5 390.8 313.4 390.8 315C390.9 326.8 390.8 338.6 390.8 350.4C390.8 351.4 390.4 352.9 390.9 353.3C395.5 357.4 394.5 364.5 398.7 368.5C406.2 375.6 414 382.4 421.6 389.3C422.8 390.2 424.2 390.7 423.7 393.9Z" fill="#5A83AF"/>
<path d="M1285.8 463C1285.8 446 1285.9 429 1285.7 412.1C1285.7 408.4 1286.3 406.9 1290.5 407C1316.1 407.2 1341.8 407.2 1367.4 407C1371.1 407 1372.2 408 1372.1 411.7C1372 446 1371.9 480.3 1372.1 514.6C1372.1 518.5 1370.8 519.2 1367.3 519.2C1341.7 519.1 1316 519 1290.4 519.2C1286.7 519.2 1285.6 518.2 1285.7 514.5C1286 497.3 1285.8 480.1 1285.8 463Z" fill="#E74F4F"/>
<path d="M1168 451C1168 430.2 1168.1 409.3 1167.9 388.5C1167.9 384.5 1169.1 383.6 1173 383.6C1198.7 383.8 1224.3 383.7 1250 383.6C1253.7 383.6 1254.9 384.5 1254.9 388.3C1254.8 430.5 1254.8 472.6 1254.9 514.8C1254.9 517.9 1254.2 519.1 1250.8 519.1C1224.6 519 1198.5 518.9 1172.3 519.1C1168.5 519.1 1168 517.7 1168.1 514.5C1168 493.4 1168 472.2 1168 451Z" fill="#FEFEFE"/>
<path d="M1488.8 463C1488.8 480.2 1488.7 497.3 1488.9 514.5C1488.9 518.3 1487.9 519.2 1484.1 519.2C1458.3 519 1432.5 519 1406.7 519.2C1403 519.2 1401.9 518.4 1401.9 514.5C1402.1 480.2 1402.1 445.9 1401.9 411.6C1401.9 407.8 1402.9 406.9 1406.6 406.9C1432.4 407.1 1458.2 407.1 1484 406.9C1487.7 406.9 1488.8 407.7 1488.8 411.6C1488.7 428.7 1488.8 445.9 1488.8 463Z" fill="#FEFEFE"/>
<path d="M1328.4 392.9C1315.6 392.9 1302.8 392.8 1290 393C1286.1 393.1 1285.8 391.4 1285.8 388.3C1285.8 385 1286.4 383.6 1290.2 383.6C1316.2 383.8 1342.1 383.8 1368.1 383.6C1371.9 383.6 1372.3 385.3 1372.4 388.4C1372.5 391.7 1371.7 393.1 1368 393C1354.7 392.8 1341.6 392.9 1328.4 392.9Z" fill="#FEFEFE"/>
<path d="M1246 306.1C1258.8 306.1 1271.6 306.2 1284.5 306C1287.7 306 1289.4 306.4 1289.2 310.2C1289 313.3 1289.1 315.3 1284.8 315.3C1259 315.1 1233.2 315.1 1207.4 315.3C1203.6 315.3 1202.7 314.1 1202.6 310.5C1202.5 306.4 1204.2 306 1207.6 306C1220.3 306.2 1233.2 306.1 1246 306.1Z" fill="#FEFEFE"/>
<path d="M1445.4 392.9C1432.3 392.9 1419.1 392.8 1406 393C1402.4 393.1 1402 391.5 1402 388.6C1402.1 385.7 1401.9 383.6 1406 383.6C1432.3 383.8 1458.6 383.8 1484.8 383.6C1489 383.6 1488.7 385.8 1488.8 388.6C1488.9 391.7 1488.3 393 1484.8 393C1471.7 392.8 1458.5 392.9 1445.4 392.9Z" fill="#FDFEFE"/>
<path d="M1330.5 315.3C1323.8 315.3 1317.2 315.1 1310.5 315.4C1306.8 315.5 1306.5 313.6 1306.6 310.8C1306.7 308.3 1306.2 306 1310.3 306.1C1323.9 306.4 1337.6 306.3 1351.2 306.1C1355.1 306 1354.9 307.9 1355 310.6C1355.1 313.6 1354.9 315.6 1350.9 315.4C1344.1 315 1337.3 315.3 1330.5 315.3Z" fill="#FEFEFE"/>
<path d="M796.1 377.8C795.9 379.7 794.9 380.9 793 380.9C791.1 380.9 790 379.7 790 377.7C790.1 375.9 791.1 375 792.8 374.9C794.8 374.8 795.8 375.9 796.1 377.8Z" fill="#0C0807"/>
<path d="M828.301 382C828.101 382.2 828.001 382.5 827.901 382.8C826.201 383.5 824.401 384.2 822.901 382.4C822.101 381.4 821.901 380.3 822.601 379.2C823.301 378 824.401 377.1 825.901 377.4C828.501 377.8 828.401 380 828.301 382Z" fill="#1A1312"/>
<path d="M391.5 365.7C388.3 366.4 386.5 365.4 386 362.6C385.7 361.2 386 359.6 387.4 359.2C389.3 358.8 388.4 360.8 388.9 361.6C389.7 363 390.5 364.2 391.5 365.7Z" fill="#EEF2F6"/>
<path d="M391.501 358.3C393.601 359.8 394.501 361.1 393.601 363.4C391.101 362.5 390.601 360.9 391.501 358.3Z" fill="#E2E9F1"/>
<path d="M1305.2 506.7C1308.6 504.5 1312.2 504.9 1315.7 505.1C1319.1 505.3 1320.1 504 1319.8 500.8C1319.6 498.2 1319.8 495.5 1319.7 492.8C1319.7 489.1 1320.6 485.7 1315 483.8C1308.6 481.6 1308.6 472 1314.2 467.6C1315.2 466.8 1316.5 466.2 1317.6 465.5C1318.6 464.9 1319.8 464.3 1319.4 462.9C1319 461.7 1317.7 462.1 1316.8 461.9C1309.6 460.3 1304 456.7 1300.3 450.1C1298.8 447.4 1298.7 445.9 1302.6 446C1314.6 446.1 1326.6 446 1338.6 446.1C1339.3 446.1 1340 445.9 1340.6 446.2C1342.1 446.9 1342.8 450.6 1345.2 446.9C1347.6 443.4 1349.3 440.1 1347.3 435.8C1344 428.9 1336.5 425.5 1328.9 427.5C1323 429.1 1318.1 432.5 1313.4 436.4C1312.2 437.4 1311.3 439 1309.3 439.2C1309.3 438.6 1309 437.9 1309.2 437.7C1314.9 431.4 1321.6 426.6 1330.1 425C1338.4 423.5 1346.2 427.7 1349.7 435.4C1352 440.2 1350.1 444.2 1347.2 447.8C1342.8 453.4 1336.7 456.9 1330.8 460.7C1327.9 462.6 1323.2 463.3 1322.4 466.4C1321.2 470.9 1321.9 476 1321.9 480.8C1321.9 483.5 1324 483 1325.5 482.9C1330.1 482.5 1333.7 483.8 1335.4 488.5C1337.1 493.3 1335.1 496.9 1331.5 499.9C1329.9 501.3 1328.3 502.8 1326.4 504.5C1329.9 505.6 1333.5 504.1 1336.4 506.6C1326 506.7 1315.6 506.7 1305.2 506.7Z" fill="#FEFEFE"/>
<path d="M1339.2 448.2C1335.3 455.8 1329.5 459.3 1322.2 459.9C1314.8 460.5 1308.6 457.5 1304 451.5C1303.4 450.7 1302.6 449.9 1303.2 448.9C1303.8 447.9 1305 448.3 1305.9 448.3C1316.7 448.2 1327.5 448.2 1339.2 448.2Z" fill="#E74F4F"/>
<path d="M1321.9 505.3C1321.9 498.8 1321.9 493.3 1321.9 487.7C1321.9 486.5 1321.8 485.1 1323.5 485.2C1326.3 485.2 1329.2 484.3 1331.6 486.7C1334.5 489.6 1334.6 493.8 1331.5 496.9C1328.7 499.6 1325.6 502.1 1321.9 505.3Z" fill="#E74F4F"/>
<path d="M1319.7 467.8C1319.7 471.9 1319.7 475.7 1319.7 479.6C1319.7 480.7 1319.9 482.1 1318.6 482.7C1317.2 483.3 1316 482.4 1315 481.5C1311.1 478 1311.8 469.2 1319.7 467.8Z" fill="#E74F4F"/>
</svg>
